  0
SECTION
  2
HEADER
  9
$ANGBASE
  50
0.0
  9
$ANGDIR
  70
1
  9
$MEASUREMENT
  70
1
  0
ENDSEC
  0
SECTION
  2
TABLES
  0
TABLE
  2
LTYPE
  70
4
  0
LTYPE
  5
40F
  2
CONTINUOUS
  70
0
  3
Solid line
  72
65
  73
0
  40
0.0
  0
LTYPE
  5
410
  2
DASHDOT
 70
0
  3
Dash Dot ____ _ ____ _
 72
65
 73
4
 40
2.0
 49
1.25
 49
-0.25
 49
0.25
 49
-0.25
  0
LTYPE
  5
411
  2
DASHED
 70
0
  3
Dashed __ __ __ __ __
 72
65
 73
2
 40
0.75
 49
0.5
 49
-0.25
  0
LTYPE
  5
43B
  2
DOTTED
 70
0
  3
Dotted .  .  .  .
 72
65
 73
2
 40
0.2
 49
0.0
 49
-0.2
  0
ENDTAB
  0
TABLE
  2
STYLE
  70
4
  0
STYLE
  2
KICAD
  70
0
  40
0
  41
1
  42
1
  50
0
  71
0
  3
isocp.shx
  0
STYLE
  2
KICADB
  70
0
  40
0
  41
1
  42
1
  50
0
  71
0
  3
isocp.shx
  0
STYLE
  2
KICADI
  70
0
  40
0
  41
1
  42
1
  50
15
  71
0
  3
isocp.shx
  0
STYLE
  2
KICADBI
  70
0
  40
0
  41
1
  42
1
  50
15
  71
0
  3
isocp.shx
  0
ENDTAB
  0
TABLE
  2
LAYER
  70
1
  0
LAYER
  2
BLACK
  70
0
  62
7
  6
CONTINUOUS
  0
ENDTAB
  0
ENDSEC
  0
SECTION
  2
ENTITIES
0
ARC
8
BLACK
10
94.6328999999999922
20
-69.6000999999999976
40
1.1999602076735711
50
-89.68141220
51
-45.00000000
0
ARC
8
BLACK
10
98.2295999999999907
20
-59.3948999999999998
40
1.1999602076735711
50
89.68236718
51
135.00000000
0
LINE
8
BLACK
6
CONTINUOUS
10
94.7522749999999974
20
-77.2785250000000019
11
93.5364749999999958
21
-76.0627250000000004
0
ARC
8
BLACK
10
97.7004000000000019
20
-59.9246999999999943
40
1.2004000041652783
50
134.61207138
51
179.99522694
0
ARC
8
BLACK
10
93.6850000000000023
20
-71.2999999999999972
40
0.5
50
90.00000000
51
180.00000000
0
LINE
8
BLACK
6
CONTINUOUS
10
93.1850000000000023
20
-75.214193999999992
11
93.1850000000000023
21
-71.2999999999999972
0
LINE
8
BLACK
6
CONTINUOUS
10
97.3399999999999892
20
-77.6299999999999955
11
95.6007999999999925
21
-77.6299999999999955
0
LINE
8
BLACK
6
CONTINUOUS
10
96.8573469999999901
20
-59.0701529999999977
11
97.3810999999999893
21
-58.5463999999999984
0
LINE
8
BLACK
6
CONTINUOUS
10
95.4813999999999936
20
-70.448599999999999
11
96.154246999999998
21
-69.7757529999999946
0
LINE
8
BLACK
6
CONTINUOUS
10
117.9824489999999884
20
-58.5524489999999957
11
118.5035999999999916
21
-59.073599999999999
0
LINE
8
BLACK
6
CONTINUOUS
10
98.2362519999999932
20
-58.1950000000000003
11
117.1278999999999968
21
-58.1950000000000003
0
ARC
8
BLACK
10
95.6007999999999925
20
-76.4299999999999926
40
1.2
50
-135.00000000
51
-90.00000000
0
ARC
8
BLACK
10
94.3849999999999909
20
-75.2141999999999911
40
1.1999955630126304
50
-180.00028648
51
-135.00000000
0
ARC
8
BLACK
10
95.2995999999999981
20
-68.9328000000000003
40
1.2003999999999999
50
-44.60532148
51
-0.00000000
0
LINE
8
BLACK
6
CONTINUOUS
10
118.8549999999999898
20
-77.6299999999999955
11
97.3399999999999892
21
-77.6299999999999955
0
LINE
8
BLACK
6
CONTINUOUS
10
93.6850000000000023
20
-70.7999999999999972
11
94.6395720000000011
21
-70.7999999999999972
0
LINE
8
BLACK
6
CONTINUOUS
10
118.8549999999999898
20
-59.9287519999999958
11
118.8549999999999898
21
-77.6299999999999955
0
ARC
8
BLACK
10
117.6550999999999902
20
-59.9221000000000004
40
1.1999602076735711
50
-0.31763282
51
45.00000000
0
ARC
8
BLACK
10
117.1277999999999935
20
-59.3953999999999951
40
1.2004000041652783
50
44.60518649
51
89.99522694
0
LINE
8
BLACK
6
CONTINUOUS
10
96.5
20
-68.9328000000000003
11
96.5
21
-59.9245999999999981
0
CIRCLE
8
BLACK
10
111.5
20
-76.
40
0.5
0
CIRCLE
8
BLACK
10
112.7399999999999949
20
-58.9699999999999989
40
0.499999
0
CIRCLE
8
BLACK
10
112.7399999999999949
20
-63.9699999999999989
40
0.499999
0
CIRCLE
8
BLACK
10
96.6749999999999972
20
-70.9549999999999983
40
0.375
0
CIRCLE
8
BLACK
10
94.1349999999999909
20
-72.1850000000000023
40
0.375
0
CIRCLE
8
WHITE
10
111.5
20
-76.
40
0.5
0
CIRCLE
8
WHITE
10
112.7399999999999949
20
-58.9699999999999989
40
0.499999
0
CIRCLE
8
WHITE
10
112.7399999999999949
20
-63.9699999999999989
40
0.499999
0
CIRCLE
8
WHITE
10
96.6749999999999972
20
-70.9549999999999983
40
0.375
0
CIRCLE
8
WHITE
10
94.1349999999999909
20
-72.1850000000000023
40
0.375
  0
ENDSEC
  0
EOF
