  0
SECTION
  2
HEADER
  9
$ANGBASE
  50
0.0
  9
$ANGDIR
  70
1
  9
$MEASUREMENT
  70
1
  0
ENDSEC
  0
SECTION
  2
TABLES
  0
TABLE
  2
LTYPE
  70
4
  0
LTYPE
  5
40F
  2
CONTINUOUS
  70
0
  3
Solid line
  72
65
  73
0
  40
0.0
  0
LTYPE
  5
410
  2
DASHDOT
 70
0
  3
Dash Dot ____ _ ____ _
 72
65
 73
4
 40
2.0
 49
1.25
 49
-0.25
 49
0.25
 49
-0.25
  0
LTYPE
  5
411
  2
DASHED
 70
0
  3
Dashed __ __ __ __ __
 72
65
 73
2
 40
0.75
 49
0.5
 49
-0.25
  0
LTYPE
  5
43B
  2
DOTTED
 70
0
  3
Dotted .  .  .  .
 72
65
 73
2
 40
0.2
 49
0.0
 49
-0.2
  0
ENDTAB
  0
TABLE
  2
STYLE
  70
4
  0
STYLE
  2
KICAD
  70
0
  40
0
  41
1
  42
1
  50
0
  71
0
  3
isocp.shx
  0
STYLE
  2
KICADB
  70
0
  40
0
  41
1
  42
1
  50
0
  71
0
  3
isocp.shx
  0
STYLE
  2
KICADI
  70
0
  40
0
  41
1
  42
1
  50
15
  71
0
  3
isocp.shx
  0
STYLE
  2
KICADBI
  70
0
  40
0
  41
1
  42
1
  50
15
  71
0
  3
isocp.shx
  0
ENDTAB
  0
TABLE
  2
LAYER
  70
1
  0
LAYER
  2
BLACK
  70
0
  62
7
  6
CONTINUOUS
  0
ENDTAB
  0
ENDSEC
  0
SECTION
  2
ENTITIES
0
ARC
8
BLACK
10
1.4479
20
8.0298999999999996
40
1.1999602076735711
50
-89.68141220
51
-45.00000000
0
ARC
8
BLACK
10
5.0446
20
18.2350999999999992
40
1.1999602076735711
50
89.68236718
51
135.00000000
0
LINE
8
BLACK
6
CONTINUOUS
10
1.567275
20
0.351475
11
0.351475
21
1.567275
0
ARC
8
BLACK
10
4.5153999999999996
20
17.7052999999999976
40
1.2004000041652783
50
134.61207138
51
179.99522694
0
ARC
8
BLACK
10
0.5
20
6.3300000000000001
40
0.5
50
90.00000000
51
180.00000000
0
LINE
8
BLACK
6
CONTINUOUS
10
0.
20
2.4158059999999999
11
0.
21
6.3300000000000001
0
LINE
8
BLACK
6
CONTINUOUS
10
4.1550000000000002
20
0.
11
2.4157999999999999
21
0.
0
LINE
8
BLACK
6
CONTINUOUS
10
3.6723469999999998
20
18.5598469999999978
11
4.1960999999999995
21
19.0836000000000006
0
LINE
8
BLACK
6
CONTINUOUS
10
2.2963999999999998
20
7.1814
11
2.9692469999999997
21
7.854247
0
LINE
8
BLACK
6
CONTINUOUS
10
24.7974490000000003
20
19.0775509999999997
11
25.3186
21
18.5564
0
LINE
8
BLACK
6
CONTINUOUS
10
5.0512519999999999
20
19.4349999999999987
11
23.9428999999999981
21
19.4349999999999987
0
ARC
8
BLACK
10
2.4157999999999999
20
1.2
40
1.2
50
-135.00000000
51
-90.00000000
0
ARC
8
BLACK
10
1.2
20
2.4157999999999999
40
1.1999955630126304
50
-180.00028648
51
-135.00000000
0
ARC
8
BLACK
10
2.1145999999999998
20
8.6972000000000005
40
1.2003999999999999
50
-44.60532148
51
-0.00000000
0
LINE
8
BLACK
6
CONTINUOUS
10
25.6699999999999982
20
0.
11
4.1550000000000002
21
0.
0
LINE
8
BLACK
6
CONTINUOUS
10
0.5
20
6.8300000000000001
11
1.454572
21
6.8300000000000001
0
LINE
8
BLACK
6
CONTINUOUS
10
25.6699999999999982
20
17.7012479999999996
11
25.6699999999999982
21
0.
0
ARC
8
BLACK
10
24.4700999999999986
20
17.7078999999999986
40
1.1999602076735711
50
-0.31763282
51
45.00000000
0
ARC
8
BLACK
10
23.9427999999999983
20
18.2346000000000004
40
1.2004000041652783
50
44.60518649
51
89.99522694
0
LINE
8
BLACK
6
CONTINUOUS
10
3.3149999999999999
20
8.6972000000000005
11
3.3149999999999999
21
17.7054000000000009
0
CIRCLE
8
BLACK
10
18.3149999999999977
20
1.6299999999999999
40
0.5
0
CIRCLE
8
BLACK
10
19.5549999999999997
20
18.6600000000000001
40
0.499999
0
CIRCLE
8
BLACK
10
19.5549999999999997
20
13.6600000000000001
40
0.499999
0
CIRCLE
8
BLACK
10
3.4899999999999998
20
6.6749999999999998
40
0.375
0
CIRCLE
8
BLACK
10
0.95
20
5.4449999999999994
40
0.375
0
CIRCLE
8
WHITE
10
18.3149999999999977
20
1.6299999999999999
40
0.5
0
CIRCLE
8
WHITE
10
19.5549999999999997
20
18.6600000000000001
40
0.499999
0
CIRCLE
8
WHITE
10
19.5549999999999997
20
13.6600000000000001
40
0.499999
0
CIRCLE
8
WHITE
10
3.4899999999999998
20
6.6749999999999998
40
0.375
0
CIRCLE
8
WHITE
10
0.95
20
5.4449999999999994
40
0.375
  0
ENDSEC
  0
EOF
