%TF.GenerationSoftware,KiCad,Pcbnew,9.0.1-129-g6cd3a802a7*%
%TF.CreationDate,2025-04-10T10:37:01+02:00*%
%TF.ProjectId,LowCapacitanceProbe,4c6f7743-6170-4616-9369-74616e636550,1.0.0*%
%TF.SameCoordinates,PX58de3e8PY4a08a30*%
%TF.FileFunction,Copper,L4,Bot*%
%TF.FilePolarity,Positive*%
%FSLAX45Y45*%
G04 Gerber Fmt 4.5, Leading zero omitted, Abs format (unit mm)*
G04 Created by KiCad (PCBNEW 9.0.1-129-g6cd3a802a7) date 2025-04-10 10:37:01*
%MOMM*%
%LPD*%
G01*
G04 APERTURE LIST*
G04 Aperture macros list*
%AMRoundRect*
0 Rectangle with rounded corners*
0 $1 Rounding radius*
0 $2 $3 $4 $5 $6 $7 $8 $9 X,Y pos of 4 corners*
0 Add a 4 corners polygon primitive as box body*
4,1,4,$2,$3,$4,$5,$6,$7,$8,$9,$2,$3,0*
0 Add four circle primitives for the rounded corners*
1,1,$1+$1,$2,$3*
1,1,$1+$1,$4,$5*
1,1,$1+$1,$6,$7*
1,1,$1+$1,$8,$9*
0 Add four rect primitives between the rounded corners*
20,1,$1+$1,$2,$3,$4,$5,0*
20,1,$1+$1,$4,$5,$6,$7,0*
20,1,$1+$1,$6,$7,$8,$9,0*
20,1,$1+$1,$8,$9,$2,$3,0*%
G04 Aperture macros list end*
%TA.AperFunction,SMDPad,CuDef*%
%ADD10R,5.080000X1.500000*%
%TD*%
%TA.AperFunction,ComponentPad*%
%ADD11C,2.000000*%
%TD*%
%TA.AperFunction,SMDPad,CuDef*%
%ADD12R,1.300000X2.000000*%
%TD*%
%TA.AperFunction,SMDPad,CuDef*%
%ADD13R,2.000000X2.000000*%
%TD*%
%TA.AperFunction,ComponentPad*%
%ADD14RoundRect,0.125000X0.500000X0.500000X-0.500000X0.500000X-0.500000X-0.500000X0.500000X-0.500000X0*%
%TD*%
%TA.AperFunction,SMDPad,CuDef*%
%ADD15RoundRect,0.250000X1.645000X0.250000X-1.645000X0.250000X-1.645000X-0.250000X1.645000X-0.250000X0*%
%TD*%
%TA.AperFunction,SMDPad,CuDef*%
%ADD16R,1.300000X1.730000*%
%TD*%
%TA.AperFunction,ViaPad*%
%ADD17C,0.600000*%
%TD*%
%TA.AperFunction,Conductor*%
%ADD18C,0.400000*%
%TD*%
%TA.AperFunction,Conductor*%
%ADD19C,0.250000*%
%TD*%
G04 APERTURE END LIST*
D10*
%TO.P,J2,2,Ext*%
%TO.N,GND*%
X2292900Y940000D03*
X2292900Y90000D03*
%TD*%
D11*
%TO.P,TP3,1,1*%
%TO.N,GND*%
X1831500Y163000D03*
%TD*%
D12*
%TO.P,RV3,1,1*%
%TO.N,GND*%
X2184500Y1194000D03*
D13*
%TO.P,RV3,2,2*%
%TO.N,/G2_BIAS*%
X2299500Y1594000D03*
D12*
%TO.P,RV3,3,3*%
%TO.N,/POWER*%
X2414500Y1194000D03*
%TD*%
D14*
%TO.P,TP1,1,1*%
%TO.N,/IN*%
X349000Y667500D03*
D15*
X222000Y606000D03*
D14*
X95000Y544500D03*
%TD*%
D12*
%TO.P,RV2,1,1*%
%TO.N,Net-(R17-Pad2)*%
X1661500Y1194000D03*
D13*
%TO.P,RV2,2,2*%
%TO.N,/GAIN_TUNE*%
X1776500Y1594000D03*
D16*
%TO.P,RV2,3,3*%
%TO.N,/POWER*%
X1891500Y1180500D03*
%TD*%
D17*
%TO.N,GND*%
X734000Y1892000D03*
X2482500Y1440000D03*
X1627000Y1892000D03*
X2287000Y750000D03*
X1915000Y398000D03*
X1030000Y1457500D03*
X2362000Y750000D03*
X1820000Y1884000D03*
X2137000Y275000D03*
X1307000Y60000D03*
X732500Y1465000D03*
X1687000Y775000D03*
X2062000Y750000D03*
X2144000Y1460000D03*
X2362000Y275000D03*
X1607000Y60000D03*
X1382000Y60000D03*
X2287000Y275000D03*
X1712000Y500000D03*
X1532000Y60000D03*
X2412500Y1860000D03*
X929000Y916000D03*
X1022500Y823000D03*
X1156000Y161000D03*
X425000Y1335000D03*
X1706000Y650000D03*
X1002500Y959000D03*
X1016000Y236000D03*
X642500Y1335000D03*
X1255000Y1495000D03*
X1982000Y60000D03*
X1495000Y505000D03*
X2212000Y750000D03*
X1762000Y750000D03*
X795500Y522000D03*
X1527500Y1475000D03*
X1687000Y270000D03*
X2137000Y750000D03*
X1932000Y1746000D03*
X693500Y1114000D03*
X1912000Y750000D03*
X868500Y458000D03*
X1307500Y240000D03*
X1775000Y1355000D03*
X2512000Y275000D03*
X1363000Y1891000D03*
X1339000Y705000D03*
X492500Y1820000D03*
X1987000Y750000D03*
X1423000Y227000D03*
X1462500Y775000D03*
X2232000Y1892000D03*
X1612000Y775000D03*
X1235500Y335000D03*
X1962500Y1497500D03*
X1837000Y750000D03*
X2032500Y1115000D03*
X392500Y1715000D03*
X1457000Y60000D03*
X1157000Y60000D03*
X2212000Y275000D03*
X435000Y1115000D03*
X1487000Y275000D03*
X2512000Y750000D03*
X2081000Y1885000D03*
X1232000Y60000D03*
X1387000Y775000D03*
X2062000Y275000D03*
X1596500Y200000D03*
X1682000Y60000D03*
X1987000Y275000D03*
X1151000Y1892000D03*
X908500Y520500D03*
X2437000Y275000D03*
X939000Y1885000D03*
X1537000Y775000D03*
X2437000Y750000D03*
%TO.N,Net-(R17-Pad2)*%
X1720000Y1002500D03*
%TO.N,/G2_BIAS*%
X2147500Y1550000D03*
X986000Y1060000D03*
%TO.N,/POWER*%
X1109000Y1085000D03*
X1892500Y1052500D03*
%TO.N,/GAIN_TUNE*%
X917500Y222500D03*
X1777500Y1455000D03*
X1627500Y980000D03*
%TD*%
D18*
%TO.N,GND*%
X2032500Y1125000D02*
X2067500Y1160000D01*
X2032500Y1115000D02*
X2032500Y1125000D01*
X2067500Y1160000D02*
X2151500Y1160000D01*
X2151500Y1160000D02*
X2184500Y1193000D01*
D19*
%TO.N,Net-(R17-Pad2)*%
X1720000Y1002500D02*
X1661500Y1061000D01*
X1661500Y1061000D02*
X1661500Y1194000D01*
%TO.N,/G2_BIAS*%
X2256500Y1550000D02*
X2299500Y1593000D01*
X2147500Y1550000D02*
X2256500Y1550000D01*
%TO.N,/POWER*%
X1892500Y1052500D02*
X1892500Y1193000D01*
D18*
X2367500Y1380000D02*
X2414500Y1333000D01*
X1991500Y1194000D02*
X2057500Y1260000D01*
X1891500Y1194000D02*
X1991500Y1194000D01*
X2057500Y1310000D02*
X2127500Y1380000D01*
X2057500Y1260000D02*
X2057500Y1310000D01*
X2127500Y1380000D02*
X2367500Y1380000D01*
D19*
X1892500Y1193000D02*
X1891500Y1194000D01*
D18*
X2414500Y1333000D02*
X2414500Y1193000D01*
D19*
%TO.N,/GAIN_TUNE*%
X1777500Y1455000D02*
X1777500Y1593000D01*
X1777500Y1593000D02*
X1776500Y1594000D01*
%TD*%
%TA.AperFunction,Conductor*%
%TO.N,GND*%
G36*
X949128Y1011948D02*
G01*
X962822Y1004042D01*
X978094Y999950D01*
X978094Y999950D01*
X993905Y999950D01*
X993906Y999950D01*
X1009178Y1004042D01*
X1022872Y1011948D01*
X1025924Y1015000D01*
X1578367Y1015000D01*
X1571542Y1003178D01*
X1567450Y987906D01*
X1567450Y972094D01*
X1571542Y956822D01*
X1579448Y943128D01*
X1590628Y931948D01*
X1604322Y924042D01*
X1619594Y919950D01*
X1619594Y919950D01*
X1635405Y919950D01*
X1635406Y919950D01*
X1650678Y924042D01*
X1664372Y931948D01*
X1675552Y943128D01*
X1677398Y946325D01*
X1681944Y950419D01*
X1688029Y951059D01*
X1690921Y949949D01*
X1696822Y946542D01*
X1712094Y942450D01*
X1712094Y942450D01*
X1727905Y942450D01*
X1727906Y942450D01*
X1743178Y946542D01*
X1756872Y954448D01*
X1768052Y965628D01*
X1775958Y979322D01*
X1780050Y994594D01*
X1780050Y1010406D01*
X1778819Y1015000D01*
X1845076Y1015000D01*
X1855628Y1004448D01*
X1869322Y996542D01*
X1884594Y992450D01*
X1884594Y992450D01*
X1900405Y992450D01*
X1900406Y992450D01*
X1915678Y996542D01*
X1929372Y1004448D01*
X1939924Y1015000D01*
X2546950Y1015000D01*
X2546950Y29950D01*
X2545059Y24131D01*
X2540109Y20535D01*
X2537050Y20050D01*
X1144801Y20050D01*
X1138982Y21941D01*
X1137800Y22950D01*
X974426Y186324D01*
X971648Y191775D01*
X972606Y197819D01*
X972852Y198273D01*
X973458Y199322D01*
X977550Y214594D01*
X977550Y230406D01*
X973458Y245678D01*
X965552Y259372D01*
X954372Y270552D01*
X940678Y278458D01*
X925406Y282550D01*
X918900Y282550D01*
X913081Y284441D01*
X909484Y289391D01*
X909000Y292450D01*
X909000Y366500D01*
X909000Y366500D01*
X856500Y419000D01*
X856500Y419000D01*
X782759Y419000D01*
X780828Y419190D01*
X779231Y419508D01*
X776062Y420138D01*
X772493Y421616D01*
X768453Y424316D01*
X766953Y425547D01*
X766047Y426453D01*
X764816Y427953D01*
X762116Y431993D01*
X760638Y435562D01*
X759690Y440328D01*
X759500Y442259D01*
X759500Y520241D01*
X759690Y522172D01*
X760638Y526938D01*
X762116Y530507D01*
X764816Y534548D01*
X766047Y536047D01*
X776953Y546953D01*
X778452Y548184D01*
X782493Y550884D01*
X786062Y552362D01*
X788586Y552864D01*
X790828Y553310D01*
X792759Y553500D01*
X1080500Y553500D01*
X1080500Y553500D01*
X1120500Y593500D01*
X1120500Y727750D01*
X1057250Y791000D01*
X1057250Y791000D01*
X564697Y791000D01*
X562766Y791190D01*
X561169Y791508D01*
X557999Y792138D01*
X554431Y793616D01*
X550391Y796316D01*
X548890Y797547D01*
X354450Y991988D01*
X351672Y997440D01*
X351550Y998988D01*
X351550Y1015000D01*
X435437Y1015000D01*
X560438Y1015000D01*
X946076Y1015000D01*
X949128Y1011948D01*
G37*
%TD.AperFunction*%
%TD*%
%TA.AperFunction,Conductor*%
%TO.N,GND*%
G36*
X1875385Y1921481D02*
G01*
X1879961Y1916201D01*
X1880955Y1909285D01*
X1880137Y1906305D01*
X1873718Y1890808D01*
X1873718Y1890807D01*
X1870450Y1874377D01*
X1870450Y1857623D01*
X1873718Y1841193D01*
X1873718Y1841192D01*
X1880129Y1825714D01*
X1889437Y1811784D01*
X1901284Y1799937D01*
X1910549Y1793746D01*
X1915214Y1790630D01*
X1930692Y1784218D01*
X1947123Y1780950D01*
X1947123Y1780950D01*
X1947123Y1780950D01*
X1963877Y1780950D01*
X1963877Y1780950D01*
X1980308Y1784218D01*
X1995786Y1790630D01*
X2009716Y1799937D01*
X2021563Y1811784D01*
X2030870Y1825714D01*
X2037282Y1841192D01*
X2040550Y1857623D01*
X2040550Y1874377D01*
X2037282Y1890808D01*
X2031638Y1904433D01*
X2030863Y1906305D01*
X2030116Y1913252D01*
X2033243Y1919500D01*
X2039252Y1923065D01*
X2042319Y1923450D01*
X2393797Y1923450D01*
X2394779Y1923411D01*
X2408836Y1922294D01*
X2409083Y1922274D01*
X2411021Y1921964D01*
X2424488Y1918701D01*
X2426353Y1918089D01*
X2430867Y1916201D01*
X2439138Y1912742D01*
X2440881Y1911844D01*
X2452662Y1904546D01*
X2454244Y1903383D01*
X2465111Y1893985D01*
X2465762Y1893379D01*
X2465792Y1893350D01*
X2468271Y1890836D01*
X2468335Y1890809D01*
X2469129Y1890016D01*
X2469218Y1889927D01*
X2469219Y1889925D01*
X2469223Y1889922D01*
X2517335Y1841810D01*
X2518001Y1841089D01*
X2527295Y1830195D01*
X2528445Y1828609D01*
X2535651Y1816805D01*
X2536536Y1815058D01*
X2541793Y1802268D01*
X2542392Y1800402D01*
X2545568Y1786944D01*
X2545866Y1785007D01*
X2546915Y1770778D01*
X2546948Y1769798D01*
X2546923Y1765234D01*
X2546950Y1764947D01*
X2546950Y1057400D01*
X2544982Y1050696D01*
X2539701Y1046121D01*
X2534550Y1045000D01*
X2501704Y1045000D01*
X2495000Y1046968D01*
X2490424Y1052249D01*
X2489430Y1059165D01*
X2492332Y1065520D01*
X2495841Y1068112D01*
X2495829Y1068130D01*
X2496325Y1068470D01*
X2496695Y1068743D01*
X2496777Y1068779D01*
X2504721Y1076724D01*
X2509259Y1087001D01*
X2509550Y1089514D01*
X2509550Y1298486D01*
X2509550Y1298488D01*
X2509259Y1300999D01*
X2509259Y1300999D01*
X2509259Y1300999D01*
X2504721Y1311277D01*
X2496777Y1319221D01*
X2496776Y1319221D01*
X2486499Y1323759D01*
X2483987Y1324050D01*
X2483987Y1324050D01*
X2476950Y1324050D01*
X2476547Y1324168D01*
X2476138Y1324077D01*
X2473223Y1325144D01*
X2470246Y1326019D01*
X2469971Y1326336D01*
X2469577Y1326480D01*
X2467702Y1328954D01*
X2465671Y1331299D01*
X2465539Y1331810D01*
X2465357Y1332049D01*
X2465065Y1333644D01*
X2464587Y1335493D01*
X2464550Y1335971D01*
X2464550Y1339589D01*
X2464453Y1339950D01*
X2461139Y1352319D01*
X2458077Y1357623D01*
X2454550Y1363731D01*
X2445231Y1373050D01*
X2398231Y1420050D01*
X2392525Y1423345D01*
X2386819Y1426639D01*
X2380454Y1428345D01*
X2374089Y1430050D01*
X2134089Y1430050D01*
X2120911Y1430050D01*
X2120911Y1430050D01*
X2116521Y1428874D01*
X2116521Y1428874D01*
X2108181Y1426639D01*
X2108181Y1426639D01*
X2108181Y1426639D01*
X2096769Y1420050D01*
X2096768Y1420050D01*
X2058703Y1381985D01*
X2052571Y1378637D01*
X2045602Y1379135D01*
X2040009Y1383322D01*
X2037774Y1388334D01*
X2037282Y1390808D01*
X2030870Y1406286D01*
X2022958Y1418128D01*
X2021563Y1420216D01*
X2009716Y1432063D01*
X1995786Y1441370D01*
X1980308Y1447782D01*
X1980307Y1447782D01*
X1963877Y1451050D01*
X1963877Y1451050D01*
X1947123Y1451050D01*
X1947123Y1451050D01*
X1930692Y1447782D01*
X1930692Y1447782D01*
X1915214Y1441370D01*
X1901284Y1432063D01*
X1889437Y1420216D01*
X1880129Y1406286D01*
X1873718Y1390808D01*
X1873718Y1390808D01*
X1870450Y1374377D01*
X1870450Y1357623D01*
X1873718Y1341193D01*
X1873718Y1341192D01*
X1880130Y1325714D01*
X1880130Y1325714D01*
X1886394Y1316339D01*
X1888481Y1309671D01*
X1886633Y1302933D01*
X1881435Y1298264D01*
X1876083Y1297050D01*
X1822014Y1297050D01*
X1822012Y1297050D01*
X1819501Y1296759D01*
X1819501Y1296759D01*
X1809223Y1292221D01*
X1801279Y1284277D01*
X1796741Y1273999D01*
X1796741Y1273999D01*
X1796450Y1271487D01*
X1796450Y1089514D01*
X1796450Y1089512D01*
X1796741Y1087001D01*
X1796741Y1087001D01*
X1801279Y1076724D01*
X1801279Y1076724D01*
X1809223Y1068779D01*
X1819501Y1064242D01*
X1821479Y1064012D01*
X1827911Y1061284D01*
X1831848Y1055512D01*
X1832450Y1051695D01*
X1832450Y1044594D01*
X1834764Y1035957D01*
X1836542Y1029322D01*
X1836543Y1029321D01*
X1844447Y1015629D01*
X1844448Y1015628D01*
X1845076Y1015000D01*
X1778819Y1015000D01*
X1775958Y1025678D01*
X1774015Y1029042D01*
X1768052Y1039371D01*
X1768052Y1039372D01*
X1756872Y1050552D01*
X1756871Y1050552D01*
X1751009Y1053937D01*
X1746187Y1058994D01*
X1744865Y1065854D01*
X1747462Y1072341D01*
X1748440Y1073443D01*
X1751721Y1076724D01*
X1756258Y1087001D01*
X1756550Y1089514D01*
X1756550Y1298486D01*
X1756550Y1298488D01*
X1756259Y1300999D01*
X1756258Y1300999D01*
X1756258Y1300999D01*
X1751721Y1311277D01*
X1743776Y1319221D01*
X1743776Y1319221D01*
X1733499Y1323759D01*
X1730986Y1324050D01*
X1592014Y1324050D01*
X1592012Y1324050D01*
X1589501Y1323759D01*
X1589501Y1323759D01*
X1579223Y1319221D01*
X1571279Y1311277D01*
X1566741Y1300999D01*
X1566741Y1300999D01*
X1566450Y1298487D01*
X1566450Y1089514D01*
X1566450Y1089512D01*
X1566741Y1087001D01*
X1566741Y1087001D01*
X1571279Y1076724D01*
X1571279Y1076724D01*
X1579223Y1068779D01*
X1589501Y1064242D01*
X1592013Y1063950D01*
X1607144Y1063950D01*
X1609815Y1063166D01*
X1612562Y1062704D01*
X1613122Y1062195D01*
X1613848Y1061982D01*
X1615671Y1059877D01*
X1617732Y1058004D01*
X1618159Y1057006D01*
X1618423Y1056701D01*
X1619121Y1054760D01*
X1619621Y1052894D01*
X1619455Y1045910D01*
X1615538Y1040123D01*
X1610853Y1037708D01*
X1608691Y1037129D01*
X1604321Y1035958D01*
X1604321Y1035957D01*
X1590629Y1028052D01*
X1590628Y1028052D01*
X1579448Y1016872D01*
X1579447Y1016871D01*
X1578367Y1015000D01*
X1025924Y1015000D01*
X1034052Y1023128D01*
X1041958Y1036822D01*
X1042801Y1039971D01*
X1046438Y1045937D01*
X1052723Y1048990D01*
X1059660Y1048160D01*
X1063547Y1045529D01*
X1072128Y1036948D01*
X1072129Y1036948D01*
X1072129Y1036948D01*
X1085338Y1029322D01*
X1085822Y1029042D01*
X1101094Y1024950D01*
X1101095Y1024950D01*
X1116906Y1024950D01*
X1116906Y1024950D01*
X1132178Y1029042D01*
X1145872Y1036948D01*
X1157052Y1048128D01*
X1164958Y1061822D01*
X1169050Y1077094D01*
X1169050Y1092906D01*
X1164958Y1108178D01*
X1164957Y1108179D01*
X1157052Y1121871D01*
X1157052Y1121872D01*
X1145872Y1133052D01*
X1145871Y1133053D01*
X1132179Y1140957D01*
X1132179Y1140958D01*
X1132178Y1140958D01*
X1116906Y1145050D01*
X1101094Y1145050D01*
X1085822Y1140958D01*
X1085821Y1140957D01*
X1072129Y1133053D01*
X1072128Y1133052D01*
X1060948Y1121872D01*
X1060948Y1121871D01*
X1053043Y1108179D01*
X1053042Y1108178D01*
X1052198Y1105029D01*
X1048562Y1099063D01*
X1042277Y1096010D01*
X1035339Y1096840D01*
X1031453Y1099471D01*
X1022872Y1108052D01*
X1022871Y1108053D01*
X1009179Y1115957D01*
X1009179Y1115958D01*
X1009178Y1115958D01*
X993906Y1120050D01*
X978094Y1120050D01*
X962822Y1115958D01*
X962821Y1115957D01*
X949129Y1108053D01*
X949128Y1108052D01*
X937948Y1096872D01*
X937947Y1096871D01*
X930043Y1083179D01*
X930042Y1083178D01*
X925950Y1067906D01*
X925950Y1052094D01*
X930042Y1036822D01*
X930042Y1036822D01*
X930043Y1036821D01*
X937947Y1023129D01*
X937948Y1023128D01*
X946076Y1015000D01*
X351550Y1015000D01*
X351550Y1698487D01*
X1646450Y1698487D01*
X1646450Y1489514D01*
X1646450Y1489512D01*
X1646741Y1487001D01*
X1646741Y1487001D01*
X1651279Y1476724D01*
X1651279Y1476723D01*
X1659223Y1468779D01*
X1669501Y1464241D01*
X1672013Y1463950D01*
X1705050Y1463950D01*
X1711754Y1461982D01*
X1716329Y1456701D01*
X1717450Y1451550D01*
X1717450Y1447094D01*
X1721478Y1432063D01*
X1721542Y1431822D01*
X1721543Y1431821D01*
X1729447Y1418129D01*
X1729448Y1418129D01*
X1729448Y1418128D01*
X1740628Y1406948D01*
X1740629Y1406948D01*
X1740629Y1406948D01*
X1754321Y1399043D01*
X1754322Y1399042D01*
X1769594Y1394950D01*
X1769594Y1394950D01*
X1785405Y1394950D01*
X1785406Y1394950D01*
X1800678Y1399042D01*
X1814372Y1406948D01*
X1825552Y1418128D01*
X1833458Y1431822D01*
X1837550Y1447094D01*
X1837550Y1451550D01*
X1839518Y1458254D01*
X1844799Y1462829D01*
X1849950Y1463950D01*
X1880986Y1463950D01*
X1880986Y1463950D01*
X1880988Y1463950D01*
X1880988Y1463950D01*
X1883499Y1464241D01*
X1883499Y1464241D01*
X1883499Y1464241D01*
X1893776Y1468779D01*
X1901721Y1476723D01*
X1906258Y1487001D01*
X1906550Y1489513D01*
X1906550Y1557906D01*
X2087450Y1557906D01*
X2087450Y1542094D01*
X2091542Y1526822D01*
X2091543Y1526821D01*
X2099448Y1513129D01*
X2099448Y1513129D01*
X2099448Y1513128D01*
X2110628Y1501948D01*
X2110629Y1501948D01*
X2110629Y1501948D01*
X2124321Y1494043D01*
X2124322Y1494042D01*
X2139594Y1489950D01*
X2139595Y1489950D01*
X2155405Y1489950D01*
X2155406Y1489950D01*
X2156799Y1490323D01*
X2163783Y1490157D01*
X2169570Y1486241D01*
X2171352Y1483354D01*
X2174279Y1476723D01*
X2182224Y1468779D01*
X2192501Y1464241D01*
X2195014Y1463950D01*
X2403986Y1463950D01*
X2403988Y1463950D01*
X2403988Y1463950D01*
X2406499Y1464241D01*
X2406499Y1464241D01*
X2406499Y1464241D01*
X2416777Y1468779D01*
X2424721Y1476723D01*
X2429259Y1487001D01*
X2429550Y1489513D01*
X2429550Y1698486D01*
X2429550Y1698488D01*
X2429259Y1700999D01*
X2429259Y1700999D01*
X2429259Y1700999D01*
X2424721Y1711276D01*
X2416777Y1719221D01*
X2416776Y1719221D01*
X2406499Y1723758D01*
X2403987Y1724050D01*
X2195014Y1724050D01*
X2195012Y1724050D01*
X2192501Y1723759D01*
X2192501Y1723758D01*
X2182224Y1719221D01*
X2174279Y1711277D01*
X2169742Y1700999D01*
X2169742Y1700999D01*
X2169450Y1698487D01*
X2169450Y1622341D01*
X2167482Y1615637D01*
X2162201Y1611061D01*
X2156218Y1610164D01*
X2156218Y1610050D01*
X2155456Y1610050D01*
X2155433Y1610046D01*
X2155406Y1610050D01*
X2155406Y1610050D01*
X2139594Y1610050D01*
X2124322Y1605958D01*
X2124321Y1605957D01*
X2110629Y1598052D01*
X2110628Y1598052D01*
X2099448Y1586872D01*
X2099448Y1586871D01*
X2091543Y1573179D01*
X2091542Y1573178D01*
X2087450Y1557906D01*
X1906550Y1557906D01*
X1906550Y1598052D01*
X1906550Y1698486D01*
X1906550Y1698486D01*
X1906550Y1698488D01*
X1906259Y1700999D01*
X1906258Y1700999D01*
X1906258Y1700999D01*
X1901721Y1711276D01*
X1893776Y1719221D01*
X1893776Y1719221D01*
X1883499Y1723758D01*
X1880986Y1724050D01*
X1672014Y1724050D01*
X1672012Y1724050D01*
X1669501Y1723759D01*
X1669501Y1723758D01*
X1659223Y1719221D01*
X1651279Y1711277D01*
X1646741Y1700999D01*
X1646741Y1700999D01*
X1646450Y1698487D01*
X351550Y1698487D01*
X351550Y1770047D01*
X351589Y1771029D01*
X352243Y1779257D01*
X352725Y1785331D01*
X353035Y1787269D01*
X353849Y1790630D01*
X356298Y1800735D01*
X356908Y1802597D01*
X362256Y1815383D01*
X363153Y1817125D01*
X370449Y1828906D01*
X371609Y1830484D01*
X381008Y1841354D01*
X381612Y1842004D01*
X381634Y1842025D01*
X384155Y1844512D01*
X384182Y1844576D01*
X384973Y1845368D01*
X385066Y1845461D01*
X385067Y1845461D01*
X385070Y1845465D01*
X433442Y1893837D01*
X434159Y1894500D01*
X445056Y1903796D01*
X446640Y1904944D01*
X458446Y1912152D01*
X460191Y1913036D01*
X472983Y1918293D01*
X474847Y1918892D01*
X488306Y1922068D01*
X490243Y1922366D01*
X504473Y1923415D01*
X505451Y1923448D01*
X509002Y1923428D01*
X509002Y1923428D01*
X510014Y1923423D01*
X510301Y1923450D01*
X1868681Y1923450D01*
X1875385Y1921481D01*
G37*
%TD.AperFunction*%
%TA.AperFunction,Conductor*%
G36*
X2320251Y1327982D02*
G01*
X2324826Y1322701D01*
X2325820Y1315785D01*
X2324512Y1312430D01*
X2324744Y1312328D01*
X2319742Y1300999D01*
X2319742Y1300999D01*
X2319450Y1298487D01*
X2319450Y1089514D01*
X2319450Y1089512D01*
X2319741Y1087001D01*
X2319742Y1087001D01*
X2324279Y1076724D01*
X2324279Y1076724D01*
X2332224Y1068779D01*
X2332305Y1068743D01*
X2332430Y1068638D01*
X2333171Y1068130D01*
X2333120Y1068055D01*
X2337643Y1064235D01*
X2339695Y1057556D01*
X2337812Y1050828D01*
X2332589Y1046186D01*
X2327296Y1045000D01*
X2317900Y1045000D01*
X2317900Y1015000D01*
X2267900Y1015000D01*
X2267900Y1045000D01*
X2266370Y1046530D01*
X2264876Y1046968D01*
X2260301Y1052249D01*
X2259306Y1059165D01*
X2262209Y1065520D01*
X2266572Y1068744D01*
X2266747Y1068821D01*
X2266748Y1068822D01*
X2274679Y1076752D01*
X2274679Y1076753D01*
X2279209Y1087012D01*
X2279209Y1087013D01*
X2279500Y1089521D01*
X2279500Y1089521D01*
X2279500Y1169000D01*
X2089500Y1169000D01*
X2089500Y1089522D01*
X2089500Y1089519D01*
X2089791Y1087013D01*
X2089791Y1087013D01*
X2094321Y1076753D01*
X2094321Y1076752D01*
X2102252Y1068822D01*
X2102253Y1068821D01*
X2102428Y1068744D01*
X2102696Y1068517D01*
X2103201Y1068172D01*
X2103166Y1068121D01*
X2107766Y1064235D01*
X2109819Y1057557D01*
X2107935Y1050828D01*
X2102713Y1046186D01*
X2097420Y1045000D01*
X2034421Y1045000D01*
X2034419Y1045000D01*
X2031913Y1044709D01*
X2031913Y1044709D01*
X2021652Y1040179D01*
X2021652Y1040179D01*
X2013721Y1032248D01*
X2013721Y1032247D01*
X2009191Y1021988D01*
X2009191Y1021988D01*
X2008900Y1019479D01*
X2008900Y1015000D01*
X1939924Y1015000D01*
X1940552Y1015628D01*
X1948458Y1029322D01*
X1952550Y1044594D01*
X1952550Y1051927D01*
X1954518Y1058631D01*
X1959799Y1063206D01*
X1962601Y1063987D01*
X1962599Y1063997D01*
X1963498Y1064242D01*
X1963499Y1064242D01*
X1973776Y1068779D01*
X1981721Y1076724D01*
X1986258Y1087001D01*
X1986550Y1089514D01*
X1986550Y1131556D01*
X1988518Y1138260D01*
X1993799Y1142836D01*
X1997332Y1143850D01*
X1998088Y1143950D01*
X1998089Y1143950D01*
X2010819Y1147361D01*
X2022231Y1153950D01*
X2083650Y1215368D01*
X2089782Y1218717D01*
X2092417Y1219000D01*
X2279500Y1219000D01*
X2279500Y1298479D01*
X2279500Y1298481D01*
X2279209Y1300987D01*
X2279209Y1300987D01*
X2274215Y1312299D01*
X2274542Y1312444D01*
X2272997Y1317186D01*
X2274768Y1323945D01*
X2279912Y1328673D01*
X2285392Y1329950D01*
X2313547Y1329950D01*
X2320251Y1327982D01*
G37*
%TD.AperFunction*%
%TD*%
M02*
