  0
SECTION
  2
HEADER
  9
$ANGBASE
  50
0.0
  9
$ANGDIR
  70
1
  9
$MEASUREMENT
  70
1
  0
ENDSEC
  0
SECTION
  2
TABLES
  0
TABLE
  2
LTYPE
  70
4
  0
LTYPE
  5
40F
  2
CONTINUOUS
  70
0
  3
Solid line
  72
65
  73
0
  40
0.0
  0
LTYPE
  5
410
  2
DASHDOT
 70
0
  3
Dash Dot ____ _ ____ _
 72
65
 73
4
 40
2.0
 49
1.25
 49
-0.25
 49
0.25
 49
-0.25
  0
LTYPE
  5
411
  2
DASHED
 70
0
  3
Dashed __ __ __ __ __
 72
65
 73
2
 40
0.75
 49
0.5
 49
-0.25
  0
LTYPE
  5
43B
  2
DOTTED
 70
0
  3
Dotted .  .  .  .
 72
65
 73
2
 40
0.2
 49
0.0
 49
-0.2
  0
ENDTAB
  0
TABLE
  2
STYLE
  70
4
  0
STYLE
  2
KICAD
  70
0
  40
0
  41
1
  42
1
  50
0
  71
0
  3
isocp.shx
  0
STYLE
  2
KICADB
  70
0
  40
0
  41
1
  42
1
  50
0
  71
0
  3
isocp.shx
  0
STYLE
  2
KICADI
  70
0
  40
0
  41
1
  42
1
  50
15
  71
0
  3
isocp.shx
  0
STYLE
  2
KICADBI
  70
0
  40
0
  41
1
  42
1
  50
15
  71
0
  3
isocp.shx
  0
ENDTAB
  0
TABLE
  2
LAYER
  70
1
  0
LAYER
  2
BLACK
  70
0
  62
7
  6
CONTINUOUS
  0
ENDTAB
  0
ENDSEC
  0
SECTION
  2
ENTITIES
0
ARC
8
BLACK
10
1.4480999999999999
20
8.0297000000000001
40
1.1996773649610966
50
-89.69091049
51
-45.00000000
0
ARC
8
BLACK
10
5.0443999999999996
20
18.2352999999999987
40
1.1996773649610966
50
89.67276285
51
135.00000000
0
LINE
8
BLACK
6
CONTINUOUS
10
1.567275
20
0.351475
11
0.351475
21
1.567275
0
ARC
8
BLACK
10
4.5154999999999994
20
17.7052999999999976
40
1.2005000041649314
50
134.61546898
51
179.99522734
0
ARC
8
BLACK
10
0.5
20
6.3300000000000001
40
0.5
50
90.00000000
51
180.00000000
0
LINE
8
BLACK
6
CONTINUOUS
10
0.
20
2.4158059999999999
11
0.
21
6.3300000000000001
0
LINE
8
BLACK
6
CONTINUOUS
10
4.1550000000000002
20
0.
11
2.4157999999999999
21
0.
0
LINE
8
BLACK
6
CONTINUOUS
10
3.6723469999999998
20
18.5598469999999978
11
4.1960999999999995
21
19.0836000000000006
0
LINE
8
BLACK
6
CONTINUOUS
10
2.2963999999999998
20
7.1814
11
2.9692469999999997
21
7.854247
0
LINE
8
BLACK
6
CONTINUOUS
10
24.7974490000000003
20
19.0775509999999997
11
25.3186
21
18.5564
0
LINE
8
BLACK
6
CONTINUOUS
10
5.0512519999999999
20
19.4349999999999987
11
23.9428999999999981
21
19.4349999999999987
0
ARC
8
BLACK
10
2.4157999999999999
20
1.2
40
1.2
50
-135.00000000
51
-90.00000000
0
ARC
8
BLACK
10
1.2
20
2.4157999999999999
40
1.1999955630126304
50
-180.00028648
51
-135.00000000
0
ARC
8
BLACK
10
2.1145
20
8.6972000000000005
40
1.2004999999999999
50
-44.60196999
51
-0.00000000
0
LINE
8
BLACK
6
CONTINUOUS
10
25.6699999999999982
20
0.
11
4.1550000000000002
21
0.
0
LINE
8
BLACK
6
CONTINUOUS
10
0.5
20
6.8300000000000001
11
1.454572
21
6.8300000000000001
0
LINE
8
BLACK
6
CONTINUOUS
10
25.6699999999999982
20
17.7012479999999996
11
25.6699999999999982
21
0.
0
ARC
8
BLACK
10
24.4702999999999982
20
17.7080999999999982
40
1.1996773649610966
50
-0.32723715
51
45.00000000
0
ARC
8
BLACK
10
23.9427999999999983
20
18.2345000000000006
40
1.2005000041649314
50
44.60858449
51
89.99522734
0
LINE
8
BLACK
6
CONTINUOUS
10
3.3149999999999999
20
8.6972000000000005
11
3.3149999999999999
21
17.7054000000000009
0
LINE
8
BLACK
6
CONTINUOUS
10
19.0549999999999997
20
19.1600000000000001
11
20.0549999999999997
21
18.1600000000000001
0
LINE
8
BLACK
6
CONTINUOUS
10
20.0549999999999997
20
19.1600000000000001
11
19.0549999999999997
21
18.1600000000000001
0
LINE
8
BLACK
6
CONTINUOUS
10
19.0549999999999997
20
14.1600000000000001
11
20.0549999999999997
21
13.1600000000000001
0
LINE
8
BLACK
6
CONTINUOUS
10
20.0549999999999997
20
14.1600000000000001
11
19.0549999999999997
21
13.1600000000000001
0
LINE
8
BLACK
6
CONTINUOUS
10
2.5577679999999998
20
-3.164838
11
2.5577679999999998
21
-1.164838
0
LINE
8
BLACK
6
CONTINUOUS
10
2.5577679999999998
20
-1.164838
11
3.0339579999999997
21
-1.164838
0
LINE
8
BLACK
6
CONTINUOUS
10
3.0339579999999997
20
-1.164838
11
3.3196729999999999
21
-1.260076
0
LINE
8
BLACK
6
CONTINUOUS
10
3.3196729999999999
20
-1.260076
11
3.5101489999999997
21
-1.4505519999999998
0
LINE
8
BLACK
6
CONTINUOUS
10
3.5101489999999997
20
-1.4505519999999998
11
3.6053869999999999
21
-1.6410279999999999
0
LINE
8
BLACK
6
CONTINUOUS
10
3.6053869999999999
20
-1.6410279999999999
11
3.7006250000000001
21
-2.0219800000000001
0
LINE
8
BLACK
6
CONTINUOUS
10
3.7006250000000001
20
-2.0219800000000001
11
3.7006250000000001
21
-2.3076949999999998
0
LINE
8
BLACK
6
CONTINUOUS
10
3.7006250000000001
20
-2.3076949999999998
11
3.6053869999999999
21
-2.688647
0
LINE
8
BLACK
6
CONTINUOUS
10
3.6053869999999999
20
-2.688647
11
3.5101489999999997
21
-2.8791229999999999
0
LINE
8
BLACK
6
CONTINUOUS
10
3.5101489999999997
20
-2.8791229999999999
11
3.3196729999999999
21
-3.0695999999999999
0
LINE
8
BLACK
6
CONTINUOUS
10
3.3196729999999999
20
-3.0695999999999999
11
3.0339579999999997
21
-3.164838
0
LINE
8
BLACK
6
CONTINUOUS
10
3.0339579999999997
20
-3.164838
11
2.5577679999999998
21
-3.164838
0
LINE
8
BLACK
6
CONTINUOUS
10
4.5577679999999994
20
-3.164838
11
4.5577679999999994
21
-1.831504
0
LINE
8
BLACK
6
CONTINUOUS
10
4.5577679999999994
20
-2.2124570000000001
11
4.6530059999999995
21
-2.0219800000000001
0
LINE
8
BLACK
6
CONTINUOUS
10
4.6530059999999995
20
-2.0219800000000001
11
4.7482439999999997
21
-1.926742
0
LINE
8
BLACK
6
CONTINUOUS
10
4.7482439999999997
20
-1.926742
11
4.93872
21
-1.831504
0
LINE
8
BLACK
6
CONTINUOUS
10
4.93872
20
-1.831504
11
5.1291969999999996
21
-1.831504
0
LINE
8
BLACK
6
CONTINUOUS
10
5.7958629999999998
20
-3.164838
11
5.7958629999999998
21
-1.831504
0
LINE
8
BLACK
6
CONTINUOUS
10
5.7958629999999998
20
-1.164838
11
5.7006249999999996
21
-1.260076
0
LINE
8
BLACK
6
CONTINUOUS
10
5.7006249999999996
20
-1.260076
11
5.7958629999999998
21
-1.3553139999999999
0
LINE
8
BLACK
6
CONTINUOUS
10
5.7958629999999998
20
-1.3553139999999999
11
5.8911009999999999
21
-1.260076
0
LINE
8
BLACK
6
CONTINUOUS
10
5.8911009999999999
20
-1.260076
11
5.7958629999999998
21
-1.164838
0
LINE
8
BLACK
6
CONTINUOUS
10
5.7958629999999998
20
-1.164838
11
5.7958629999999998
21
-1.3553139999999999
0
LINE
8
BLACK
6
CONTINUOUS
10
7.0339579999999993
20
-3.164838
11
6.8434819999999998
21
-3.0695999999999999
0
LINE
8
BLACK
6
CONTINUOUS
10
6.8434819999999998
20
-3.0695999999999999
11
6.7482439999999997
21
-2.8791229999999999
0
LINE
8
BLACK
6
CONTINUOUS
10
6.7482439999999997
20
-2.8791229999999999
11
6.7482439999999997
21
-1.164838
0
LINE
8
BLACK
6
CONTINUOUS
10
8.0815769999999993
20
-3.164838
11
7.8911009999999999
21
-3.0695999999999999
0
LINE
8
BLACK
6
CONTINUOUS
10
7.8911009999999999
20
-3.0695999999999999
11
7.7958629999999998
21
-2.8791229999999999
0
LINE
8
BLACK
6
CONTINUOUS
10
7.7958629999999998
20
-2.8791229999999999
11
7.7958629999999998
21
-1.164838
0
LINE
8
BLACK
6
CONTINUOUS
10
10.3672919999999991
20
-3.164838
11
10.3672919999999991
21
-1.164838
0
LINE
8
BLACK
6
CONTINUOUS
10
10.3672919999999991
20
-1.164838
11
11.0339589999999994
21
-2.5934089999999999
0
LINE
8
BLACK
6
CONTINUOUS
10
11.0339589999999994
20
-2.5934089999999999
11
11.7006249999999987
21
-1.164838
0
LINE
8
BLACK
6
CONTINUOUS
10
11.7006249999999987
20
-1.164838
11
11.7006249999999987
21
-3.164838
0
LINE
8
BLACK
6
CONTINUOUS
10
13.5101490000000002
20
-3.164838
11
13.5101490000000002
21
-2.117219
0
LINE
8
BLACK
6
CONTINUOUS
10
13.5101490000000002
20
-2.117219
11
13.414911
21
-1.926742
0
LINE
8
BLACK
6
CONTINUOUS
10
13.414911
20
-1.926742
11
13.2244349999999997
21
-1.831504
0
LINE
8
BLACK
6
CONTINUOUS
10
13.2244349999999997
20
-1.831504
11
12.8434819999999998
21
-1.831504
0
LINE
8
BLACK
6
CONTINUOUS
10
12.8434819999999998
20
-1.831504
11
12.6530059999999995
21
-1.926742
0
LINE
8
BLACK
6
CONTINUOUS
10
13.5101490000000002
20
-3.0695999999999999
11
13.3196729999999999
21
-3.164838
0
LINE
8
BLACK
6
CONTINUOUS
10
13.3196729999999999
20
-3.164838
11
12.8434819999999998
21
-3.164838
0
LINE
8
BLACK
6
CONTINUOUS
10
12.8434819999999998
20
-3.164838
11
12.6530059999999995
21
-3.0695999999999999
0
LINE
8
BLACK
6
CONTINUOUS
10
12.6530059999999995
20
-3.0695999999999999
11
12.5577679999999994
21
-2.8791229999999999
0
LINE
8
BLACK
6
CONTINUOUS
10
12.5577679999999994
20
-2.8791229999999999
11
12.5577679999999994
21
-2.688647
0
LINE
8
BLACK
6
CONTINUOUS
10
12.5577679999999994
20
-2.688647
11
12.6530059999999995
21
-2.4981709999999997
0
LINE
8
BLACK
6
CONTINUOUS
10
12.6530059999999995
20
-2.4981709999999997
11
12.8434819999999998
21
-2.402933
0
LINE
8
BLACK
6
CONTINUOUS
10
12.8434819999999998
20
-2.402933
11
13.3196729999999999
21
-2.402933
0
LINE
8
BLACK
6
CONTINUOUS
10
13.3196729999999999
20
-2.402933
11
13.5101490000000002
21
-2.3076949999999998
0
LINE
8
BLACK
6
CONTINUOUS
10
14.4625299999999992
20
-1.831504
11
14.4625299999999992
21
-3.8315039999999998
0
LINE
8
BLACK
6
CONTINUOUS
10
14.4625299999999992
20
-1.926742
11
14.6530059999999995
21
-1.831504
0
LINE
8
BLACK
6
CONTINUOUS
10
14.6530059999999995
20
-1.831504
11
15.0339589999999994
21
-1.831504
0
LINE
8
BLACK
6
CONTINUOUS
10
15.0339589999999994
20
-1.831504
11
15.2244349999999997
21
-1.926742
0
LINE
8
BLACK
6
CONTINUOUS
10
15.2244349999999997
20
-1.926742
11
15.3196729999999999
21
-2.0219800000000001
0
LINE
8
BLACK
6
CONTINUOUS
10
15.3196729999999999
20
-2.0219800000000001
11
15.414911
21
-2.2124570000000001
0
LINE
8
BLACK
6
CONTINUOUS
10
15.414911
20
-2.2124570000000001
11
15.414911
21
-2.7838849999999997
0
LINE
8
BLACK
6
CONTINUOUS
10
15.414911
20
-2.7838849999999997
11
15.3196729999999999
21
-2.974361
0
LINE
8
BLACK
6
CONTINUOUS
10
15.3196729999999999
20
-2.974361
11
15.2244349999999997
21
-3.0695999999999999
0
LINE
8
BLACK
6
CONTINUOUS
10
15.2244349999999997
20
-3.0695999999999999
11
15.0339589999999994
21
-3.164838
0
LINE
8
BLACK
6
CONTINUOUS
10
15.0339589999999994
20
-3.164838
11
14.6530059999999995
21
-3.164838
0
LINE
8
BLACK
6
CONTINUOUS
10
14.6530059999999995
20
-3.164838
11
14.4625299999999992
21
-3.0695999999999999
0
LINE
8
BLACK
6
CONTINUOUS
10
16.2720540000000007
20
-2.974361
11
16.3672919999999991
21
-3.0695999999999999
0
LINE
8
BLACK
6
CONTINUOUS
10
16.3672919999999991
20
-3.0695999999999999
11
16.2720540000000007
21
-3.164838
0
LINE
8
BLACK
6
CONTINUOUS
10
16.2720540000000007
20
-3.164838
11
16.1768159999999988
21
-3.0695999999999999
0
LINE
8
BLACK
6
CONTINUOUS
10
16.1768159999999988
20
-3.0695999999999999
11
16.2720540000000007
21
-2.974361
0
LINE
8
BLACK
6
CONTINUOUS
10
16.2720540000000007
20
-2.974361
11
16.2720540000000007
21
-3.164838
0
LINE
8
BLACK
6
CONTINUOUS
10
16.2720540000000007
20
-1.926742
11
16.3672919999999991
21
-2.0219800000000001
0
LINE
8
BLACK
6
CONTINUOUS
10
16.3672919999999991
20
-2.0219800000000001
11
16.2720540000000007
21
-2.117219
0
LINE
8
BLACK
6
CONTINUOUS
10
16.2720540000000007
20
-2.117219
11
16.1768159999999988
21
-2.0219800000000001
0
LINE
8
BLACK
6
CONTINUOUS
10
16.1768159999999988
20
-2.0219800000000001
11
16.2720540000000007
21
-1.926742
0
LINE
8
BLACK
6
CONTINUOUS
10
16.2720540000000007
20
-1.926742
11
16.2720540000000007
21
-2.117219
0
LINE
8
BLACK
6
CONTINUOUS
10
-1.05
20
-5.9499999999999993
11
-0.05
21
-6.9499999999999993
0
LINE
8
BLACK
6
CONTINUOUS
10
-0.05
20
-5.9499999999999993
11
-1.05
21
-6.9499999999999993
0
LINE
8
BLACK
6
CONTINUOUS
10
3.6053869999999999
20
-7.3648379999999998
11
2.4625300000000001
21
-7.3648379999999998
0
LINE
8
BLACK
6
CONTINUOUS
10
3.0339579999999997
20
-7.3648379999999998
11
3.0339579999999997
21
-5.3648379999999998
0
LINE
8
BLACK
6
CONTINUOUS
10
3.0339579999999997
20
-5.3648379999999998
11
2.8434819999999998
21
-5.6505519999999994
0
LINE
8
BLACK
6
CONTINUOUS
10
2.8434819999999998
20
-5.6505519999999994
11
2.653006
21
-5.8410279999999997
0
LINE
8
BLACK
6
CONTINUOUS
10
2.653006
20
-5.8410279999999997
11
2.4625300000000001
21
-5.9362659999999998
0
LINE
8
BLACK
6
CONTINUOUS
10
4.4625300000000001
20
-7.1743609999999993
11
4.5577679999999994
21
-7.2695999999999996
0
LINE
8
BLACK
6
CONTINUOUS
10
4.5577679999999994
20
-7.2695999999999996
11
4.4625300000000001
21
-7.3648379999999998
0
LINE
8
BLACK
6
CONTINUOUS
10
4.4625300000000001
20
-7.3648379999999998
11
4.367292
21
-7.2695999999999996
0
LINE
8
BLACK
6
CONTINUOUS
10
4.367292
20
-7.2695999999999996
11
4.4625300000000001
21
-7.1743609999999993
0
LINE
8
BLACK
6
CONTINUOUS
10
4.4625300000000001
20
-7.1743609999999993
11
4.4625300000000001
21
-7.3648379999999998
0
LINE
8
BLACK
6
CONTINUOUS
10
5.7958629999999998
20
-5.3648379999999998
11
5.9863399999999993
21
-5.3648379999999998
0
LINE
8
BLACK
6
CONTINUOUS
10
5.9863399999999993
20
-5.3648379999999998
11
6.1768159999999996
21
-5.4600759999999999
0
LINE
8
BLACK
6
CONTINUOUS
10
6.1768159999999996
20
-5.4600759999999999
11
6.2720539999999998
21
-5.5553140000000001
0
LINE
8
BLACK
6
CONTINUOUS
10
6.2720539999999998
20
-5.5553140000000001
11
6.367292
21
-5.7457899999999995
0
LINE
8
BLACK
6
CONTINUOUS
10
6.367292
20
-5.7457899999999995
11
6.4625300000000001
21
-6.1267420000000001
0
LINE
8
BLACK
6
CONTINUOUS
10
6.4625300000000001
20
-6.1267420000000001
11
6.4625300000000001
21
-6.6029329999999993
0
LINE
8
BLACK
6
CONTINUOUS
10
6.4625300000000001
20
-6.6029329999999993
11
6.367292
21
-6.9838849999999999
0
LINE
8
BLACK
6
CONTINUOUS
10
6.367292
20
-6.9838849999999999
11
6.2720539999999998
21
-7.1743609999999993
0
LINE
8
BLACK
6
CONTINUOUS
10
6.2720539999999998
20
-7.1743609999999993
11
6.1768159999999996
21
-7.2695999999999996
0
LINE
8
BLACK
6
CONTINUOUS
10
6.1768159999999996
20
-7.2695999999999996
11
5.9863399999999993
21
-7.3648379999999998
0
LINE
8
BLACK
6
CONTINUOUS
10
5.9863399999999993
20
-7.3648379999999998
11
5.7958629999999998
21
-7.3648379999999998
0
LINE
8
BLACK
6
CONTINUOUS
10
5.7958629999999998
20
-7.3648379999999998
11
5.6053869999999995
21
-7.2695999999999996
0
LINE
8
BLACK
6
CONTINUOUS
10
5.6053869999999995
20
-7.2695999999999996
11
5.5101490000000002
21
-7.1743609999999993
0
LINE
8
BLACK
6
CONTINUOUS
10
5.5101490000000002
20
-7.1743609999999993
11
5.414911
21
-6.9838849999999999
0
LINE
8
BLACK
6
CONTINUOUS
10
5.414911
20
-6.9838849999999999
11
5.3196729999999999
21
-6.6029329999999993
0
LINE
8
BLACK
6
CONTINUOUS
10
5.3196729999999999
20
-6.6029329999999993
11
5.3196729999999999
21
-6.1267420000000001
0
LINE
8
BLACK
6
CONTINUOUS
10
5.3196729999999999
20
-6.1267420000000001
11
5.414911
21
-5.7457899999999995
0
LINE
8
BLACK
6
CONTINUOUS
10
5.414911
20
-5.7457899999999995
11
5.5101490000000002
21
-5.5553140000000001
0
LINE
8
BLACK
6
CONTINUOUS
10
5.5101490000000002
20
-5.5553140000000001
11
5.6053869999999995
21
-5.4600759999999999
0
LINE
8
BLACK
6
CONTINUOUS
10
5.6053869999999995
20
-5.4600759999999999
11
5.7958629999999998
21
-5.3648379999999998
0
LINE
8
BLACK
6
CONTINUOUS
10
7.7006249999999996
20
-5.3648379999999998
11
7.8911020000000001
21
-5.3648379999999998
0
LINE
8
BLACK
6
CONTINUOUS
10
7.8911020000000001
20
-5.3648379999999998
11
8.0815780000000004
21
-5.4600759999999999
0
LINE
8
BLACK
6
CONTINUOUS
10
8.0815780000000004
20
-5.4600759999999999
11
8.1768159999999988
21
-5.5553140000000001
0
LINE
8
BLACK
6
CONTINUOUS
10
8.1768159999999988
20
-5.5553140000000001
11
8.2720539999999989
21
-5.7457899999999995
0
LINE
8
BLACK
6
CONTINUOUS
10
8.2720539999999989
20
-5.7457899999999995
11
8.3672919999999991
21
-6.1267420000000001
0
LINE
8
BLACK
6
CONTINUOUS
10
8.3672919999999991
20
-6.1267420000000001
11
8.3672919999999991
21
-6.6029329999999993
0
LINE
8
BLACK
6
CONTINUOUS
10
8.3672919999999991
20
-6.6029329999999993
11
8.2720539999999989
21
-6.9838849999999999
0
LINE
8
BLACK
6
CONTINUOUS
10
8.2720539999999989
20
-6.9838849999999999
11
8.1768159999999988
21
-7.1743609999999993
0
LINE
8
BLACK
6
CONTINUOUS
10
8.1768159999999988
20
-7.1743609999999993
11
8.0815780000000004
21
-7.2695999999999996
0
LINE
8
BLACK
6
CONTINUOUS
10
8.0815780000000004
20
-7.2695999999999996
11
7.8911020000000001
21
-7.3648379999999998
0
LINE
8
BLACK
6
CONTINUOUS
10
7.8911020000000001
20
-7.3648379999999998
11
7.7006249999999996
21
-7.3648379999999998
0
LINE
8
BLACK
6
CONTINUOUS
10
7.7006249999999996
20
-7.3648379999999998
11
7.5101489999999993
21
-7.2695999999999996
0
LINE
8
BLACK
6
CONTINUOUS
10
7.5101489999999993
20
-7.2695999999999996
11
7.414911
21
-7.1743609999999993
0
LINE
8
BLACK
6
CONTINUOUS
10
7.414911
20
-7.1743609999999993
11
7.3196729999999999
21
-6.9838849999999999
0
LINE
8
BLACK
6
CONTINUOUS
10
7.3196729999999999
20
-6.9838849999999999
11
7.2244349999999997
21
-6.6029329999999993
0
LINE
8
BLACK
6
CONTINUOUS
10
7.2244349999999997
20
-6.6029329999999993
11
7.2244349999999997
21
-6.1267420000000001
0
LINE
8
BLACK
6
CONTINUOUS
10
7.2244349999999997
20
-6.1267420000000001
11
7.3196729999999999
21
-5.7457899999999995
0
LINE
8
BLACK
6
CONTINUOUS
10
7.3196729999999999
20
-5.7457899999999995
11
7.414911
21
-5.5553140000000001
0
LINE
8
BLACK
6
CONTINUOUS
10
7.414911
20
-5.5553140000000001
11
7.5101489999999993
21
-5.4600759999999999
0
LINE
8
BLACK
6
CONTINUOUS
10
7.5101489999999993
20
-5.4600759999999999
11
7.7006249999999996
21
-5.3648379999999998
0
LINE
8
BLACK
6
CONTINUOUS
10
9.6053870000000003
20
-5.3648379999999998
11
9.7958639999999999
21
-5.3648379999999998
0
LINE
8
BLACK
6
CONTINUOUS
10
9.7958639999999999
20
-5.3648379999999998
11
9.9863400000000002
21
-5.4600759999999999
0
LINE
8
BLACK
6
CONTINUOUS
10
9.9863400000000002
20
-5.4600759999999999
11
10.0815780000000004
21
-5.5553140000000001
0
LINE
8
BLACK
6
CONTINUOUS
10
10.0815780000000004
20
-5.5553140000000001
11
10.1768159999999988
21
-5.7457899999999995
0
LINE
8
BLACK
6
CONTINUOUS
10
10.1768159999999988
20
-5.7457899999999995
11
10.2720539999999989
21
-6.1267420000000001
0
LINE
8
BLACK
6
CONTINUOUS
10
10.2720539999999989
20
-6.1267420000000001
11
10.2720539999999989
21
-6.6029329999999993
0
LINE
8
BLACK
6
CONTINUOUS
10
10.2720539999999989
20
-6.6029329999999993
11
10.1768159999999988
21
-6.9838849999999999
0
LINE
8
BLACK
6
CONTINUOUS
10
10.1768159999999988
20
-6.9838849999999999
11
10.0815780000000004
21
-7.1743609999999993
0
LINE
8
BLACK
6
CONTINUOUS
10
10.0815780000000004
20
-7.1743609999999993
11
9.9863400000000002
21
-7.2695999999999996
0
LINE
8
BLACK
6
CONTINUOUS
10
9.9863400000000002
20
-7.2695999999999996
11
9.7958639999999999
21
-7.3648379999999998
0
LINE
8
BLACK
6
CONTINUOUS
10
9.7958639999999999
20
-7.3648379999999998
11
9.6053870000000003
21
-7.3648379999999998
0
LINE
8
BLACK
6
CONTINUOUS
10
9.6053870000000003
20
-7.3648379999999998
11
9.414911
21
-7.2695999999999996
0
LINE
8
BLACK
6
CONTINUOUS
10
9.414911
20
-7.2695999999999996
11
9.3196729999999999
21
-7.1743609999999993
0
LINE
8
BLACK
6
CONTINUOUS
10
9.3196729999999999
20
-7.1743609999999993
11
9.2244349999999997
21
-6.9838849999999999
0
LINE
8
BLACK
6
CONTINUOUS
10
9.2244349999999997
20
-6.9838849999999999
11
9.1291969999999996
21
-6.6029329999999993
0
LINE
8
BLACK
6
CONTINUOUS
10
9.1291969999999996
20
-6.6029329999999993
11
9.1291969999999996
21
-6.1267420000000001
0
LINE
8
BLACK
6
CONTINUOUS
10
9.1291969999999996
20
-6.1267420000000001
11
9.2244349999999997
21
-5.7457899999999995
0
LINE
8
BLACK
6
CONTINUOUS
10
9.2244349999999997
20
-5.7457899999999995
11
9.3196729999999999
21
-5.5553140000000001
0
LINE
8
BLACK
6
CONTINUOUS
10
9.3196729999999999
20
-5.5553140000000001
11
9.414911
21
-5.4600759999999999
0
LINE
8
BLACK
6
CONTINUOUS
10
9.414911
20
-5.4600759999999999
11
9.6053870000000003
21
-5.3648379999999998
0
LINE
8
BLACK
6
CONTINUOUS
10
11.1291969999999996
20
-7.3648379999999998
11
11.1291969999999996
21
-6.031504
0
LINE
8
BLACK
6
CONTINUOUS
10
11.1291969999999996
20
-6.2219799999999994
11
11.2244349999999997
21
-6.1267420000000001
0
LINE
8
BLACK
6
CONTINUOUS
10
11.2244349999999997
20
-6.1267420000000001
11
11.414911
21
-6.031504
0
LINE
8
BLACK
6
CONTINUOUS
10
11.414911
20
-6.031504
11
11.7006259999999997
21
-6.031504
0
LINE
8
BLACK
6
CONTINUOUS
10
11.7006259999999997
20
-6.031504
11
11.8911020000000001
21
-6.1267420000000001
0
LINE
8
BLACK
6
CONTINUOUS
10
11.8911020000000001
20
-6.1267420000000001
11
11.9863400000000002
21
-6.3172189999999997
0
LINE
8
BLACK
6
CONTINUOUS
10
11.9863400000000002
20
-6.3172189999999997
11
11.9863400000000002
21
-7.3648379999999998
0
LINE
8
BLACK
6
CONTINUOUS
10
11.9863400000000002
20
-6.3172189999999997
11
12.0815779999999986
21
-6.1267420000000001
0
LINE
8
BLACK
6
CONTINUOUS
10
12.0815779999999986
20
-6.1267420000000001
11
12.2720539999999989
21
-6.031504
0
LINE
8
BLACK
6
CONTINUOUS
10
12.2720539999999989
20
-6.031504
11
12.5577679999999994
21
-6.031504
0
LINE
8
BLACK
6
CONTINUOUS
10
12.5577679999999994
20
-6.031504
11
12.7482449999999989
21
-6.1267420000000001
0
LINE
8
BLACK
6
CONTINUOUS
10
12.7482449999999989
20
-6.1267420000000001
11
12.8434829999999991
21
-6.3172189999999997
0
LINE
8
BLACK
6
CONTINUOUS
10
12.8434829999999991
20
-6.3172189999999997
11
12.8434829999999991
21
-7.3648379999999998
0
LINE
8
BLACK
6
CONTINUOUS
10
13.7958639999999999
20
-7.3648379999999998
11
13.7958639999999999
21
-6.031504
0
LINE
8
BLACK
6
CONTINUOUS
10
13.7958639999999999
20
-6.2219799999999994
11
13.8911020000000001
21
-6.1267420000000001
0
LINE
8
BLACK
6
CONTINUOUS
10
13.8911020000000001
20
-6.1267420000000001
11
14.0815779999999986
21
-6.031504
0
LINE
8
BLACK
6
CONTINUOUS
10
14.0815779999999986
20
-6.031504
11
14.3672930000000001
21
-6.031504
0
LINE
8
BLACK
6
CONTINUOUS
10
14.3672930000000001
20
-6.031504
11
14.5577689999999986
21
-6.1267420000000001
0
LINE
8
BLACK
6
CONTINUOUS
10
14.5577689999999986
20
-6.1267420000000001
11
14.6530069999999988
21
-6.3172189999999997
0
LINE
8
BLACK
6
CONTINUOUS
10
14.6530069999999988
20
-6.3172189999999997
11
14.6530069999999988
21
-7.3648379999999998
0
LINE
8
BLACK
6
CONTINUOUS
10
14.6530069999999988
20
-6.3172189999999997
11
14.7482449999999989
21
-6.1267420000000001
0
LINE
8
BLACK
6
CONTINUOUS
10
14.7482449999999989
20
-6.1267420000000001
11
14.9387209999999993
21
-6.031504
0
LINE
8
BLACK
6
CONTINUOUS
10
14.9387209999999993
20
-6.031504
11
15.2244349999999997
21
-6.031504
0
LINE
8
BLACK
6
CONTINUOUS
10
15.2244349999999997
20
-6.031504
11
15.4149119999999993
21
-6.1267420000000001
0
LINE
8
BLACK
6
CONTINUOUS
10
15.4149119999999993
20
-6.1267420000000001
11
15.5101499999999994
21
-6.3172189999999997
0
LINE
8
BLACK
6
CONTINUOUS
10
15.5101499999999994
20
-6.3172189999999997
11
15.5101499999999994
21
-7.3648379999999998
0
LINE
8
BLACK
6
CONTINUOUS
10
19.4149119999999975
20
-5.2695999999999996
11
17.7006270000000008
21
-7.8410279999999997
0
LINE
8
BLACK
6
CONTINUOUS
10
21.9863409999999995
20
-5.3648379999999998
11
22.1768179999999973
21
-5.3648379999999998
0
LINE
8
BLACK
6
CONTINUOUS
10
22.1768179999999973
20
-5.3648379999999998
11
22.3672939999999976
21
-5.4600759999999999
0
LINE
8
BLACK
6
CONTINUOUS
10
22.3672939999999976
20
-5.4600759999999999
11
22.4625319999999995
21
-5.5553140000000001
0
LINE
8
BLACK
6
CONTINUOUS
10
22.4625319999999995
20
-5.5553140000000001
11
22.5577699999999979
21
-5.7457899999999995
0
LINE
8
BLACK
6
CONTINUOUS
10
22.5577699999999979
20
-5.7457899999999995
11
22.6530079999999998
21
-6.1267420000000001
0
LINE
8
BLACK
6
CONTINUOUS
10
22.6530079999999998
20
-6.1267420000000001
11
22.6530079999999998
21
-6.6029329999999993
0
LINE
8
BLACK
6
CONTINUOUS
10
22.6530079999999998
20
-6.6029329999999993
11
22.5577699999999979
21
-6.9838849999999999
0
LINE
8
BLACK
6
CONTINUOUS
10
22.5577699999999979
20
-6.9838849999999999
11
22.4625319999999995
21
-7.1743609999999993
0
LINE
8
BLACK
6
CONTINUOUS
10
22.4625319999999995
20
-7.1743609999999993
11
22.3672939999999976
21
-7.2695999999999996
0
LINE
8
BLACK
6
CONTINUOUS
10
22.3672939999999976
20
-7.2695999999999996
11
22.1768179999999973
21
-7.3648379999999998
0
LINE
8
BLACK
6
CONTINUOUS
10
22.1768179999999973
20
-7.3648379999999998
11
21.9863409999999995
21
-7.3648379999999998
0
LINE
8
BLACK
6
CONTINUOUS
10
21.9863409999999995
20
-7.3648379999999998
11
21.7958649999999992
21
-7.2695999999999996
0
LINE
8
BLACK
6
CONTINUOUS
10
21.7958649999999992
20
-7.2695999999999996
11
21.7006270000000008
21
-7.1743609999999993
0
LINE
8
BLACK
6
CONTINUOUS
10
21.7006270000000008
20
-7.1743609999999993
11
21.6053889999999988
21
-6.9838849999999999
0
LINE
8
BLACK
6
CONTINUOUS
10
21.6053889999999988
20
-6.9838849999999999
11
21.5101510000000005
21
-6.6029329999999993
0
LINE
8
BLACK
6
CONTINUOUS
10
21.5101510000000005
20
-6.6029329999999993
11
21.5101510000000005
21
-6.1267420000000001
0
LINE
8
BLACK
6
CONTINUOUS
10
21.5101510000000005
20
-6.1267420000000001
11
21.6053889999999988
21
-5.7457899999999995
0
LINE
8
BLACK
6
CONTINUOUS
10
21.6053889999999988
20
-5.7457899999999995
11
21.7006270000000008
21
-5.5553140000000001
0
LINE
8
BLACK
6
CONTINUOUS
10
21.7006270000000008
20
-5.5553140000000001
11
21.7958649999999992
21
-5.4600759999999999
0
LINE
8
BLACK
6
CONTINUOUS
10
21.7958649999999992
20
-5.4600759999999999
11
21.9863409999999995
21
-5.3648379999999998
0
LINE
8
BLACK
6
CONTINUOUS
10
23.5101510000000005
20
-7.1743609999999993
11
23.6053889999999988
21
-7.2695999999999996
0
LINE
8
BLACK
6
CONTINUOUS
10
23.6053889999999988
20
-7.2695999999999996
11
23.5101510000000005
21
-7.3648379999999998
0
LINE
8
BLACK
6
CONTINUOUS
10
23.5101510000000005
20
-7.3648379999999998
11
23.4149129999999985
21
-7.2695999999999996
0
LINE
8
BLACK
6
CONTINUOUS
10
23.4149129999999985
20
-7.2695999999999996
11
23.5101510000000005
21
-7.1743609999999993
0
LINE
8
BLACK
6
CONTINUOUS
10
23.5101510000000005
20
-7.1743609999999993
11
23.5101510000000005
21
-7.3648379999999998
0
LINE
8
BLACK
6
CONTINUOUS
10
24.8434840000000001
20
-5.3648379999999998
11
25.0339609999999979
21
-5.3648379999999998
0
LINE
8
BLACK
6
CONTINUOUS
10
25.0339609999999979
20
-5.3648379999999998
11
25.2244369999999982
21
-5.4600759999999999
0
LINE
8
BLACK
6
CONTINUOUS
10
25.2244369999999982
20
-5.4600759999999999
11
25.3196750000000002
21
-5.5553140000000001
0
LINE
8
BLACK
6
CONTINUOUS
10
25.3196750000000002
20
-5.5553140000000001
11
25.4149129999999985
21
-5.7457899999999995
0
LINE
8
BLACK
6
CONTINUOUS
10
25.4149129999999985
20
-5.7457899999999995
11
25.5101510000000005
21
-6.1267420000000001
0
LINE
8
BLACK
6
CONTINUOUS
10
25.5101510000000005
20
-6.1267420000000001
11
25.5101510000000005
21
-6.6029329999999993
0
LINE
8
BLACK
6
CONTINUOUS
10
25.5101510000000005
20
-6.6029329999999993
11
25.4149129999999985
21
-6.9838849999999999
0
LINE
8
BLACK
6
CONTINUOUS
10
25.4149129999999985
20
-6.9838849999999999
11
25.3196750000000002
21
-7.1743609999999993
0
LINE
8
BLACK
6
CONTINUOUS
10
25.3196750000000002
20
-7.1743609999999993
11
25.2244369999999982
21
-7.2695999999999996
0
LINE
8
BLACK
6
CONTINUOUS
10
25.2244369999999982
20
-7.2695999999999996
11
25.0339609999999979
21
-7.3648379999999998
0
LINE
8
BLACK
6
CONTINUOUS
10
25.0339609999999979
20
-7.3648379999999998
11
24.8434840000000001
21
-7.3648379999999998
0
LINE
8
BLACK
6
CONTINUOUS
10
24.8434840000000001
20
-7.3648379999999998
11
24.6530079999999998
21
-7.2695999999999996
0
LINE
8
BLACK
6
CONTINUOUS
10
24.6530079999999998
20
-7.2695999999999996
11
24.5577699999999979
21
-7.1743609999999993
0
LINE
8
BLACK
6
CONTINUOUS
10
24.5577699999999979
20
-7.1743609999999993
11
24.4625319999999995
21
-6.9838849999999999
0
LINE
8
BLACK
6
CONTINUOUS
10
24.4625319999999995
20
-6.9838849999999999
11
24.3672939999999976
21
-6.6029329999999993
0
LINE
8
BLACK
6
CONTINUOUS
10
24.3672939999999976
20
-6.6029329999999993
11
24.3672939999999976
21
-6.1267420000000001
0
LINE
8
BLACK
6
CONTINUOUS
10
24.3672939999999976
20
-6.1267420000000001
11
24.4625319999999995
21
-5.7457899999999995
0
LINE
8
BLACK
6
CONTINUOUS
10
24.4625319999999995
20
-5.7457899999999995
11
24.5577699999999979
21
-5.5553140000000001
0
LINE
8
BLACK
6
CONTINUOUS
10
24.5577699999999979
20
-5.5553140000000001
11
24.6530079999999998
21
-5.4600759999999999
0
LINE
8
BLACK
6
CONTINUOUS
10
24.6530079999999998
20
-5.4600759999999999
11
24.8434840000000001
21
-5.3648379999999998
0
LINE
8
BLACK
6
CONTINUOUS
10
26.1768179999999973
20
-5.3648379999999998
11
27.4149129999999985
21
-5.3648379999999998
0
LINE
8
BLACK
6
CONTINUOUS
10
27.4149129999999985
20
-5.3648379999999998
11
26.7482459999999982
21
-6.1267420000000001
0
LINE
8
BLACK
6
CONTINUOUS
10
26.7482459999999982
20
-6.1267420000000001
11
27.0339609999999979
21
-6.1267420000000001
0
LINE
8
BLACK
6
CONTINUOUS
10
27.0339609999999979
20
-6.1267420000000001
11
27.2244369999999982
21
-6.2219799999999994
0
LINE
8
BLACK
6
CONTINUOUS
10
27.2244369999999982
20
-6.2219799999999994
11
27.3196750000000002
21
-6.3172189999999997
0
LINE
8
BLACK
6
CONTINUOUS
10
27.3196750000000002
20
-6.3172189999999997
11
27.4149129999999985
21
-6.507695
0
LINE
8
BLACK
6
CONTINUOUS
10
27.4149129999999985
20
-6.507695
11
27.4149129999999985
21
-6.9838849999999999
0
LINE
8
BLACK
6
CONTINUOUS
10
27.4149129999999985
20
-6.9838849999999999
11
27.3196750000000002
21
-7.1743609999999993
0
LINE
8
BLACK
6
CONTINUOUS
10
27.3196750000000002
20
-7.1743609999999993
11
27.2244369999999982
21
-7.2695999999999996
0
LINE
8
BLACK
6
CONTINUOUS
10
27.2244369999999982
20
-7.2695999999999996
11
27.0339609999999979
21
-7.3648379999999998
0
LINE
8
BLACK
6
CONTINUOUS
10
27.0339609999999979
20
-7.3648379999999998
11
26.4625319999999995
21
-7.3648379999999998
0
LINE
8
BLACK
6
CONTINUOUS
10
26.4625319999999995
20
-7.3648379999999998
11
26.2720559999999992
21
-7.2695999999999996
0
LINE
8
BLACK
6
CONTINUOUS
10
26.2720559999999992
20
-7.2695999999999996
11
26.1768179999999973
21
-7.1743609999999993
0
LINE
8
BLACK
6
CONTINUOUS
10
28.3672939999999976
20
-7.3648379999999998
11
28.7482459999999982
21
-7.3648379999999998
0
LINE
8
BLACK
6
CONTINUOUS
10
28.7482459999999982
20
-7.3648379999999998
11
28.9387229999999995
21
-7.2695999999999996
0
LINE
8
BLACK
6
CONTINUOUS
10
28.9387229999999995
20
-7.2695999999999996
11
29.0339609999999979
21
-7.1743609999999993
0
LINE
8
BLACK
6
CONTINUOUS
10
29.0339609999999979
20
-7.1743609999999993
11
29.2244369999999982
21
-6.8886469999999997
0
LINE
8
BLACK
6
CONTINUOUS
10
29.2244369999999982
20
-6.8886469999999997
11
29.3196750000000002
21
-6.507695
0
LINE
8
BLACK
6
CONTINUOUS
10
29.3196750000000002
20
-6.507695
11
29.3196750000000002
21
-5.7457899999999995
0
LINE
8
BLACK
6
CONTINUOUS
10
29.3196750000000002
20
-5.7457899999999995
11
29.2244369999999982
21
-5.5553140000000001
0
LINE
8
BLACK
6
CONTINUOUS
10
29.2244369999999982
20
-5.5553140000000001
11
29.1291989999999998
21
-5.4600759999999999
0
LINE
8
BLACK
6
CONTINUOUS
10
29.1291989999999998
20
-5.4600759999999999
11
28.9387229999999995
21
-5.3648379999999998
0
LINE
8
BLACK
6
CONTINUOUS
10
28.9387229999999995
20
-5.3648379999999998
11
28.5577699999999979
21
-5.3648379999999998
0
LINE
8
BLACK
6
CONTINUOUS
10
28.5577699999999979
20
-5.3648379999999998
11
28.3672939999999976
21
-5.4600759999999999
0
LINE
8
BLACK
6
CONTINUOUS
10
28.3672939999999976
20
-5.4600759999999999
11
28.2720559999999992
21
-5.5553140000000001
0
LINE
8
BLACK
6
CONTINUOUS
10
28.2720559999999992
20
-5.5553140000000001
11
28.1768179999999973
21
-5.7457899999999995
0
LINE
8
BLACK
6
CONTINUOUS
10
28.1768179999999973
20
-5.7457899999999995
11
28.1768179999999973
21
-6.2219799999999994
0
LINE
8
BLACK
6
CONTINUOUS
10
28.1768179999999973
20
-6.2219799999999994
11
28.2720559999999992
21
-6.4124569999999999
0
LINE
8
BLACK
6
CONTINUOUS
10
28.2720559999999992
20
-6.4124569999999999
11
28.3672939999999976
21
-6.507695
0
LINE
8
BLACK
6
CONTINUOUS
10
28.3672939999999976
20
-6.507695
11
28.5577699999999979
21
-6.6029329999999993
0
LINE
8
BLACK
6
CONTINUOUS
10
28.5577699999999979
20
-6.6029329999999993
11
28.9387229999999995
21
-6.6029329999999993
0
LINE
8
BLACK
6
CONTINUOUS
10
28.9387229999999995
20
-6.6029329999999993
11
29.1291989999999998
21
-6.507695
0
LINE
8
BLACK
6
CONTINUOUS
10
29.1291989999999998
20
-6.507695
11
29.2244369999999982
21
-6.4124569999999999
0
LINE
8
BLACK
6
CONTINUOUS
10
29.2244369999999982
20
-6.4124569999999999
11
29.3196750000000002
21
-6.2219799999999994
0
LINE
8
BLACK
6
CONTINUOUS
10
31.0339609999999979
20
-6.031504
11
31.0339609999999979
21
-7.3648379999999998
0
LINE
8
BLACK
6
CONTINUOUS
10
30.5577699999999979
20
-5.2695999999999996
11
30.0815799999999989
21
-6.6981709999999994
0
LINE
8
BLACK
6
CONTINUOUS
10
30.0815799999999989
20
-6.6981709999999994
11
31.3196750000000002
21
-6.6981709999999994
0
LINE
8
BLACK
6
CONTINUOUS
10
31.9863419999999969
20
-5.3648379999999998
11
31.9863419999999969
21
-5.7457899999999995
0
LINE
8
BLACK
6
CONTINUOUS
10
32.7482469999999992
20
-5.3648379999999998
11
32.7482469999999992
21
-5.7457899999999995
0
LINE
8
BLACK
6
CONTINUOUS
10
35.7006289999999993
20
-8.1267420000000001
11
35.6053899999999999
21
-8.031504
0
LINE
8
BLACK
6
CONTINUOUS
10
35.6053899999999999
20
-8.031504
11
35.414913999999996
21
-7.7457899999999995
0
LINE
8
BLACK
6
CONTINUOUS
10
35.414913999999996
20
-7.7457899999999995
11
35.3196760000000012
21
-7.5553140000000001
0
LINE
8
BLACK
6
CONTINUOUS
10
35.3196760000000012
20
-7.5553140000000001
11
35.2244379999999992
21
-7.2695999999999996
0
LINE
8
BLACK
6
CONTINUOUS
10
35.2244379999999992
20
-7.2695999999999996
11
35.1291999999999973
21
-6.7934089999999996
0
LINE
8
BLACK
6
CONTINUOUS
10
35.1291999999999973
20
-6.7934089999999996
11
35.1291999999999973
21
-6.4124569999999999
0
LINE
8
BLACK
6
CONTINUOUS
10
35.1291999999999973
20
-6.4124569999999999
11
35.2244379999999992
21
-5.9362659999999998
0
LINE
8
BLACK
6
CONTINUOUS
10
35.2244379999999992
20
-5.9362659999999998
11
35.3196760000000012
21
-5.6505519999999994
0
LINE
8
BLACK
6
CONTINUOUS
10
35.3196760000000012
20
-5.6505519999999994
11
35.414913999999996
21
-5.4600759999999999
0
LINE
8
BLACK
6
CONTINUOUS
10
35.414913999999996
20
-5.4600759999999999
11
35.6053899999999999
21
-5.1743609999999993
0
LINE
8
BLACK
6
CONTINUOUS
10
35.6053899999999999
20
-5.1743609999999993
11
35.7006289999999993
21
-5.0791230000000001
0
LINE
8
BLACK
6
CONTINUOUS
10
36.3672949999999986
20
-5.5553140000000001
11
36.4625330000000005
21
-5.4600759999999999
0
LINE
8
BLACK
6
CONTINUOUS
10
36.4625330000000005
20
-5.4600759999999999
11
36.6530089999999973
21
-5.3648379999999998
0
LINE
8
BLACK
6
CONTINUOUS
10
36.6530089999999973
20
-5.3648379999999998
11
37.1291999999999973
21
-5.3648379999999998
0
LINE
8
BLACK
6
CONTINUOUS
10
37.1291999999999973
20
-5.3648379999999998
11
37.3196760000000012
21
-5.4600759999999999
0
LINE
8
BLACK
6
CONTINUOUS
10
37.3196760000000012
20
-5.4600759999999999
11
37.414913999999996
21
-5.5553140000000001
0
LINE
8
BLACK
6
CONTINUOUS
10
37.414913999999996
20
-5.5553140000000001
11
37.5101519999999979
21
-5.7457899999999995
0
LINE
8
BLACK
6
CONTINUOUS
10
37.5101519999999979
20
-5.7457899999999995
11
37.5101519999999979
21
-5.9362659999999998
0
LINE
8
BLACK
6
CONTINUOUS
10
37.5101519999999979
20
-5.9362659999999998
11
37.414913999999996
21
-6.2219799999999994
0
LINE
8
BLACK
6
CONTINUOUS
10
37.414913999999996
20
-6.2219799999999994
11
36.2720569999999967
21
-7.3648379999999998
0
LINE
8
BLACK
6
CONTINUOUS
10
36.2720569999999967
20
-7.3648379999999998
11
37.5101519999999979
21
-7.3648379999999998
0
LINE
8
BLACK
6
CONTINUOUS
10
39.891104999999996
20
-7.3648379999999998
11
39.891104999999996
21
-5.3648379999999998
0
LINE
8
BLACK
6
CONTINUOUS
10
40.7482479999999967
20
-7.3648379999999998
11
40.7482479999999967
21
-6.3172189999999997
0
LINE
8
BLACK
6
CONTINUOUS
10
40.7482479999999967
20
-6.3172189999999997
11
40.6530099999999948
21
-6.1267420000000001
0
LINE
8
BLACK
6
CONTINUOUS
10
40.6530099999999948
20
-6.1267420000000001
11
40.462533999999998
21
-6.031504
0
LINE
8
BLACK
6
CONTINUOUS
10
40.462533999999998
20
-6.031504
11
40.1768189999999947
21
-6.031504
0
LINE
8
BLACK
6
CONTINUOUS
10
40.1768189999999947
20
-6.031504
11
39.986342999999998
21
-6.1267420000000001
0
LINE
8
BLACK
6
CONTINUOUS
10
39.986342999999998
20
-6.1267420000000001
11
39.891104999999996
21
-6.2219799999999994
0
LINE
8
BLACK
6
CONTINUOUS
10
41.986342999999998
20
-7.3648379999999998
11
41.7958670000000012
21
-7.2695999999999996
0
LINE
8
BLACK
6
CONTINUOUS
10
41.7958670000000012
20
-7.2695999999999996
11
41.7006289999999993
21
-7.1743609999999993
0
LINE
8
BLACK
6
CONTINUOUS
10
41.7006289999999993
20
-7.1743609999999993
11
41.6053909999999973
21
-6.9838849999999999
0
LINE
8
BLACK
6
CONTINUOUS
10
41.6053909999999973
20
-6.9838849999999999
11
41.6053909999999973
21
-6.4124569999999999
0
LINE
8
BLACK
6
CONTINUOUS
10
41.6053909999999973
20
-6.4124569999999999
11
41.7006289999999993
21
-6.2219799999999994
0
LINE
8
BLACK
6
CONTINUOUS
10
41.7006289999999993
20
-6.2219799999999994
11
41.7958670000000012
21
-6.1267420000000001
0
LINE
8
BLACK
6
CONTINUOUS
10
41.7958670000000012
20
-6.1267420000000001
11
41.986342999999998
21
-6.031504
0
LINE
8
BLACK
6
CONTINUOUS
10
41.986342999999998
20
-6.031504
11
42.2720580000000012
21
-6.031504
0
LINE
8
BLACK
6
CONTINUOUS
10
42.2720580000000012
20
-6.031504
11
42.462533999999998
21
-6.1267420000000001
0
LINE
8
BLACK
6
CONTINUOUS
10
42.462533999999998
20
-6.1267420000000001
11
42.5577719999999999
21
-6.2219799999999994
0
LINE
8
BLACK
6
CONTINUOUS
10
42.5577719999999999
20
-6.2219799999999994
11
42.6530099999999948
21
-6.4124569999999999
0
LINE
8
BLACK
6
CONTINUOUS
10
42.6530099999999948
20
-6.4124569999999999
11
42.6530099999999948
21
-6.9838849999999999
0
LINE
8
BLACK
6
CONTINUOUS
10
42.6530099999999948
20
-6.9838849999999999
11
42.5577719999999999
21
-7.1743609999999993
0
LINE
8
BLACK
6
CONTINUOUS
10
42.5577719999999999
20
-7.1743609999999993
11
42.462533999999998
21
-7.2695999999999996
0
LINE
8
BLACK
6
CONTINUOUS
10
42.462533999999998
20
-7.2695999999999996
11
42.2720580000000012
21
-7.3648379999999998
0
LINE
8
BLACK
6
CONTINUOUS
10
42.2720580000000012
20
-7.3648379999999998
11
41.986342999999998
21
-7.3648379999999998
0
LINE
8
BLACK
6
CONTINUOUS
10
43.7958670000000012
20
-7.3648379999999998
11
43.6053909999999973
21
-7.2695999999999996
0
LINE
8
BLACK
6
CONTINUOUS
10
43.6053909999999973
20
-7.2695999999999996
11
43.5101529999999954
21
-7.0791230000000001
0
LINE
8
BLACK
6
CONTINUOUS
10
43.5101529999999954
20
-7.0791230000000001
11
43.5101529999999954
21
-5.3648379999999998
0
LINE
8
BLACK
6
CONTINUOUS
10
45.3196769999999987
20
-7.2695999999999996
11
45.1292009999999948
21
-7.3648379999999998
0
LINE
8
BLACK
6
CONTINUOUS
10
45.1292009999999948
20
-7.3648379999999998
11
44.7482479999999967
21
-7.3648379999999998
0
LINE
8
BLACK
6
CONTINUOUS
10
44.7482479999999967
20
-7.3648379999999998
11
44.5577719999999999
21
-7.2695999999999996
0
LINE
8
BLACK
6
CONTINUOUS
10
44.5577719999999999
20
-7.2695999999999996
11
44.462533999999998
21
-7.0791230000000001
0
LINE
8
BLACK
6
CONTINUOUS
10
44.462533999999998
20
-7.0791230000000001
11
44.462533999999998
21
-6.3172189999999997
0
LINE
8
BLACK
6
CONTINUOUS
10
44.462533999999998
20
-6.3172189999999997
11
44.5577719999999999
21
-6.1267420000000001
0
LINE
8
BLACK
6
CONTINUOUS
10
44.5577719999999999
20
-6.1267420000000001
11
44.7482479999999967
21
-6.031504
0
LINE
8
BLACK
6
CONTINUOUS
10
44.7482479999999967
20
-6.031504
11
45.1292009999999948
21
-6.031504
0
LINE
8
BLACK
6
CONTINUOUS
10
45.1292009999999948
20
-6.031504
11
45.3196769999999987
21
-6.1267420000000001
0
LINE
8
BLACK
6
CONTINUOUS
10
45.3196769999999987
20
-6.1267420000000001
11
45.4149150000000006
21
-6.3172189999999997
0
LINE
8
BLACK
6
CONTINUOUS
10
45.4149150000000006
20
-6.3172189999999997
11
45.4149150000000006
21
-6.507695
0
LINE
8
BLACK
6
CONTINUOUS
10
45.4149150000000006
20
-6.507695
11
44.462533999999998
21
-6.6981709999999994
0
LINE
8
BLACK
6
CONTINUOUS
10
46.1768199999999993
20
-7.2695999999999996
11
46.3672959999999961
21
-7.3648379999999998
0
LINE
8
BLACK
6
CONTINUOUS
10
46.3672959999999961
20
-7.3648379999999998
11
46.7482479999999967
21
-7.3648379999999998
0
LINE
8
BLACK
6
CONTINUOUS
10
46.7482479999999967
20
-7.3648379999999998
11
46.938724999999998
21
-7.2695999999999996
0
LINE
8
BLACK
6
CONTINUOUS
10
46.938724999999998
20
-7.2695999999999996
11
47.033963
21
-7.0791230000000001
0
LINE
8
BLACK
6
CONTINUOUS
10
47.033963
20
-7.0791230000000001
11
47.033963
21
-6.9838849999999999
0
LINE
8
BLACK
6
CONTINUOUS
10
47.033963
20
-6.9838849999999999
11
46.938724999999998
21
-6.7934089999999996
0
LINE
8
BLACK
6
CONTINUOUS
10
46.938724999999998
20
-6.7934089999999996
11
46.7482479999999967
21
-6.6981709999999994
0
LINE
8
BLACK
6
CONTINUOUS
10
46.7482479999999967
20
-6.6981709999999994
11
46.462533999999998
21
-6.6981709999999994
0
LINE
8
BLACK
6
CONTINUOUS
10
46.462533999999998
20
-6.6981709999999994
11
46.2720580000000012
21
-6.6029329999999993
0
LINE
8
BLACK
6
CONTINUOUS
10
46.2720580000000012
20
-6.6029329999999993
11
46.1768199999999993
21
-6.4124569999999999
0
LINE
8
BLACK
6
CONTINUOUS
10
46.1768199999999993
20
-6.4124569999999999
11
46.1768199999999993
21
-6.3172189999999997
0
LINE
8
BLACK
6
CONTINUOUS
10
46.1768199999999993
20
-6.3172189999999997
11
46.2720580000000012
21
-6.1267420000000001
0
LINE
8
BLACK
6
CONTINUOUS
10
46.2720580000000012
20
-6.1267420000000001
11
46.462533999999998
21
-6.031504
0
LINE
8
BLACK
6
CONTINUOUS
10
46.462533999999998
20
-6.031504
11
46.7482479999999967
21
-6.031504
0
LINE
8
BLACK
6
CONTINUOUS
10
46.7482479999999967
20
-6.031504
11
46.938724999999998
21
-6.1267420000000001
0
LINE
8
BLACK
6
CONTINUOUS
10
47.7006299999999968
20
-8.1267420000000001
11
47.7958679999999987
21
-8.031504
0
LINE
8
BLACK
6
CONTINUOUS
10
47.7958679999999987
20
-8.031504
11
47.9863439999999954
21
-7.7457899999999995
0
LINE
8
BLACK
6
CONTINUOUS
10
47.9863439999999954
20
-7.7457899999999995
11
48.0815819999999974
21
-7.5553140000000001
0
LINE
8
BLACK
6
CONTINUOUS
10
48.0815819999999974
20
-7.5553140000000001
11
48.1768199999999993
21
-7.2695999999999996
0
LINE
8
BLACK
6
CONTINUOUS
10
48.1768199999999993
20
-7.2695999999999996
11
48.2720580000000012
21
-6.7934089999999996
0
LINE
8
BLACK
6
CONTINUOUS
10
48.2720580000000012
20
-6.7934089999999996
11
48.2720580000000012
21
-6.4124569999999999
0
LINE
8
BLACK
6
CONTINUOUS
10
48.2720580000000012
20
-6.4124569999999999
11
48.1768199999999993
21
-5.9362659999999998
0
LINE
8
BLACK
6
CONTINUOUS
10
48.1768199999999993
20
-5.9362659999999998
11
48.0815819999999974
21
-5.6505519999999994
0
LINE
8
BLACK
6
CONTINUOUS
10
48.0815819999999974
20
-5.6505519999999994
11
47.9863439999999954
21
-5.4600759999999999
0
LINE
8
BLACK
6
CONTINUOUS
10
47.9863439999999954
20
-5.4600759999999999
11
47.7958679999999987
21
-5.1743609999999993
0
LINE
8
BLACK
6
CONTINUOUS
10
47.7958679999999987
20
-5.1743609999999993
11
47.7006299999999968
21
-5.0791230000000001
0
LINE
8
BLACK
6
CONTINUOUS
10
51.3196779999999961
20
-8.1267420000000001
11
51.2244389999999967
21
-8.031504
0
LINE
8
BLACK
6
CONTINUOUS
10
51.2244389999999967
20
-8.031504
11
51.033963
21
-7.7457899999999995
0
LINE
8
BLACK
6
CONTINUOUS
10
51.033963
20
-7.7457899999999995
11
50.938724999999998
21
-7.5553140000000001
0
LINE
8
BLACK
6
CONTINUOUS
10
50.938724999999998
20
-7.5553140000000001
11
50.8434869999999961
21
-7.2695999999999996
0
LINE
8
BLACK
6
CONTINUOUS
10
50.8434869999999961
20
-7.2695999999999996
11
50.7482489999999942
21
-6.7934089999999996
0
LINE
8
BLACK
6
CONTINUOUS
10
50.7482489999999942
20
-6.7934089999999996
11
50.7482489999999942
21
-6.4124569999999999
0
LINE
8
BLACK
6
CONTINUOUS
10
50.7482489999999942
20
-6.4124569999999999
11
50.8434869999999961
21
-5.9362659999999998
0
LINE
8
BLACK
6
CONTINUOUS
10
50.8434869999999961
20
-5.9362659999999998
11
50.938724999999998
21
-5.6505519999999994
0
LINE
8
BLACK
6
CONTINUOUS
10
50.938724999999998
20
-5.6505519999999994
11
51.033963
21
-5.4600759999999999
0
LINE
8
BLACK
6
CONTINUOUS
10
51.033963
20
-5.4600759999999999
11
51.2244389999999967
21
-5.1743609999999993
0
LINE
8
BLACK
6
CONTINUOUS
10
51.2244389999999967
20
-5.1743609999999993
11
51.3196779999999961
21
-5.0791230000000001
0
LINE
8
BLACK
6
CONTINUOUS
10
52.0815819999999974
20
-6.031504
11
52.0815819999999974
21
-7.3648379999999998
0
LINE
8
BLACK
6
CONTINUOUS
10
52.0815819999999974
20
-6.2219799999999994
11
52.1768199999999993
21
-6.1267420000000001
0
LINE
8
BLACK
6
CONTINUOUS
10
52.1768199999999993
20
-6.1267420000000001
11
52.3672959999999961
21
-6.031504
0
LINE
8
BLACK
6
CONTINUOUS
10
52.3672959999999961
20
-6.031504
11
52.6530109999999993
21
-6.031504
0
LINE
8
BLACK
6
CONTINUOUS
10
52.6530109999999993
20
-6.031504
11
52.8434869999999961
21
-6.1267420000000001
0
LINE
8
BLACK
6
CONTINUOUS
10
52.8434869999999961
20
-6.1267420000000001
11
52.938724999999998
21
-6.3172189999999997
0
LINE
8
BLACK
6
CONTINUOUS
10
52.938724999999998
20
-6.3172189999999997
11
52.938724999999998
21
-7.3648379999999998
0
LINE
8
BLACK
6
CONTINUOUS
10
54.1768199999999993
20
-7.3648379999999998
11
53.9863439999999954
21
-7.2695999999999996
0
LINE
8
BLACK
6
CONTINUOUS
10
53.9863439999999954
20
-7.2695999999999996
11
53.8911060000000006
21
-7.1743609999999993
0
LINE
8
BLACK
6
CONTINUOUS
10
53.8911060000000006
20
-7.1743609999999993
11
53.7958679999999987
21
-6.9838849999999999
0
LINE
8
BLACK
6
CONTINUOUS
10
53.7958679999999987
20
-6.9838849999999999
11
53.7958679999999987
21
-6.4124569999999999
0
LINE
8
BLACK
6
CONTINUOUS
10
53.7958679999999987
20
-6.4124569999999999
11
53.8911060000000006
21
-6.2219799999999994
0
LINE
8
BLACK
6
CONTINUOUS
10
53.8911060000000006
20
-6.2219799999999994
11
53.9863439999999954
21
-6.1267420000000001
0
LINE
8
BLACK
6
CONTINUOUS
10
53.9863439999999954
20
-6.1267420000000001
11
54.1768199999999993
21
-6.031504
0
LINE
8
BLACK
6
CONTINUOUS
10
54.1768199999999993
20
-6.031504
11
54.4625349999999955
21
-6.031504
0
LINE
8
BLACK
6
CONTINUOUS
10
54.4625349999999955
20
-6.031504
11
54.6530109999999993
21
-6.1267420000000001
0
LINE
8
BLACK
6
CONTINUOUS
10
54.6530109999999993
20
-6.1267420000000001
11
54.7482489999999942
21
-6.2219799999999994
0
LINE
8
BLACK
6
CONTINUOUS
10
54.7482489999999942
20
-6.2219799999999994
11
54.8434869999999961
21
-6.4124569999999999
0
LINE
8
BLACK
6
CONTINUOUS
10
54.8434869999999961
20
-6.4124569999999999
11
54.8434869999999961
21
-6.9838849999999999
0
LINE
8
BLACK
6
CONTINUOUS
10
54.8434869999999961
20
-6.9838849999999999
11
54.7482489999999942
21
-7.1743609999999993
0
LINE
8
BLACK
6
CONTINUOUS
10
54.7482489999999942
20
-7.1743609999999993
11
54.6530109999999993
21
-7.2695999999999996
0
LINE
8
BLACK
6
CONTINUOUS
10
54.6530109999999993
20
-7.2695999999999996
11
54.4625349999999955
21
-7.3648379999999998
0
LINE
8
BLACK
6
CONTINUOUS
10
54.4625349999999955
20
-7.3648379999999998
11
54.1768199999999993
21
-7.3648379999999998
0
LINE
8
BLACK
6
CONTINUOUS
10
55.4149159999999981
20
-6.031504
11
56.1768199999999993
21
-6.031504
0
LINE
8
BLACK
6
CONTINUOUS
10
55.7006299999999968
20
-5.3648379999999998
11
55.7006299999999968
21
-7.0791230000000001
0
LINE
8
BLACK
6
CONTINUOUS
10
55.7006299999999968
20
-7.0791230000000001
11
55.7958679999999987
21
-7.2695999999999996
0
LINE
8
BLACK
6
CONTINUOUS
10
55.7958679999999987
20
-7.2695999999999996
11
55.9863439999999954
21
-7.3648379999999998
0
LINE
8
BLACK
6
CONTINUOUS
10
55.9863439999999954
20
-7.3648379999999998
11
56.1768199999999993
21
-7.3648379999999998
0
LINE
8
BLACK
6
CONTINUOUS
10
58.3672970000000007
20
-6.031504
11
58.3672970000000007
21
-8.031504
0
LINE
8
BLACK
6
CONTINUOUS
10
58.3672970000000007
20
-6.1267420000000001
11
58.5577729999999974
21
-6.031504
0
LINE
8
BLACK
6
CONTINUOUS
10
58.5577729999999974
20
-6.031504
11
58.9387259999999955
21
-6.031504
0
LINE
8
BLACK
6
CONTINUOUS
10
58.9387259999999955
20
-6.031504
11
59.1292019999999994
21
-6.1267420000000001
0
LINE
8
BLACK
6
CONTINUOUS
10
59.1292019999999994
20
-6.1267420000000001
11
59.2244399999999942
21
-6.2219799999999994
0
LINE
8
BLACK
6
CONTINUOUS
10
59.2244399999999942
20
-6.2219799999999994
11
59.3196779999999961
21
-6.4124569999999999
0
LINE
8
BLACK
6
CONTINUOUS
10
59.3196779999999961
20
-6.4124569999999999
11
59.3196779999999961
21
-6.9838849999999999
0
LINE
8
BLACK
6
CONTINUOUS
10
59.3196779999999961
20
-6.9838849999999999
11
59.2244399999999942
21
-7.1743609999999993
0
LINE
8
BLACK
6
CONTINUOUS
10
59.2244399999999942
20
-7.1743609999999993
11
59.1292019999999994
21
-7.2695999999999996
0
LINE
8
BLACK
6
CONTINUOUS
10
59.1292019999999994
20
-7.2695999999999996
11
58.9387259999999955
21
-7.3648379999999998
0
LINE
8
BLACK
6
CONTINUOUS
10
58.9387259999999955
20
-7.3648379999999998
11
58.5577729999999974
21
-7.3648379999999998
0
LINE
8
BLACK
6
CONTINUOUS
10
58.5577729999999974
20
-7.3648379999999998
11
58.3672970000000007
21
-7.2695999999999996
0
LINE
8
BLACK
6
CONTINUOUS
10
60.4625349999999955
20
-7.3648379999999998
11
60.2720589999999987
21
-7.2695999999999996
0
LINE
8
BLACK
6
CONTINUOUS
10
60.2720589999999987
20
-7.2695999999999996
11
60.1768209999999968
21
-7.0791230000000001
0
LINE
8
BLACK
6
CONTINUOUS
10
60.1768209999999968
20
-7.0791230000000001
11
60.1768209999999968
21
-5.3648379999999998
0
LINE
8
BLACK
6
CONTINUOUS
10
62.0815829999999949
20
-7.3648379999999998
11
62.0815829999999949
21
-6.3172189999999997
0
LINE
8
BLACK
6
CONTINUOUS
10
62.0815829999999949
20
-6.3172189999999997
11
61.986345
21
-6.1267420000000001
0
LINE
8
BLACK
6
CONTINUOUS
10
61.986345
20
-6.1267420000000001
11
61.7958689999999962
21
-6.031504
0
LINE
8
BLACK
6
CONTINUOUS
10
61.7958689999999962
20
-6.031504
11
61.4149159999999981
21
-6.031504
0
LINE
8
BLACK
6
CONTINUOUS
10
61.4149159999999981
20
-6.031504
11
61.2244399999999942
21
-6.1267420000000001
0
LINE
8
BLACK
6
CONTINUOUS
10
62.0815829999999949
20
-7.2695999999999996
11
61.8911069999999981
21
-7.3648379999999998
0
LINE
8
BLACK
6
CONTINUOUS
10
61.8911069999999981
20
-7.3648379999999998
11
61.4149159999999981
21
-7.3648379999999998
0
LINE
8
BLACK
6
CONTINUOUS
10
61.4149159999999981
20
-7.3648379999999998
11
61.2244399999999942
21
-7.2695999999999996
0
LINE
8
BLACK
6
CONTINUOUS
10
61.2244399999999942
20
-7.2695999999999996
11
61.1292019999999994
21
-7.0791230000000001
0
LINE
8
BLACK
6
CONTINUOUS
10
61.1292019999999994
20
-7.0791230000000001
11
61.1292019999999994
21
-6.8886469999999997
0
LINE
8
BLACK
6
CONTINUOUS
10
61.1292019999999994
20
-6.8886469999999997
11
61.2244399999999942
21
-6.6981709999999994
0
LINE
8
BLACK
6
CONTINUOUS
10
61.2244399999999942
20
-6.6981709999999994
11
61.4149159999999981
21
-6.6029329999999993
0
LINE
8
BLACK
6
CONTINUOUS
10
61.4149159999999981
20
-6.6029329999999993
11
61.8911069999999981
21
-6.6029329999999993
0
LINE
8
BLACK
6
CONTINUOUS
10
61.8911069999999981
20
-6.6029329999999993
11
62.0815829999999949
21
-6.507695
0
LINE
8
BLACK
6
CONTINUOUS
10
62.7482499999999987
20
-6.031504
11
63.510154
21
-6.031504
0
LINE
8
BLACK
6
CONTINUOUS
10
63.0339639999999974
20
-5.3648379999999998
11
63.0339639999999974
21
-7.0791230000000001
0
LINE
8
BLACK
6
CONTINUOUS
10
63.0339639999999974
20
-7.0791230000000001
11
63.1292019999999994
21
-7.2695999999999996
0
LINE
8
BLACK
6
CONTINUOUS
10
63.1292019999999994
20
-7.2695999999999996
11
63.3196779999999961
21
-7.3648379999999998
0
LINE
8
BLACK
6
CONTINUOUS
10
63.3196779999999961
20
-7.3648379999999998
11
63.510154
21
-7.3648379999999998
0
LINE
8
BLACK
6
CONTINUOUS
10
64.9387260000000026
20
-7.2695999999999996
11
64.7482499999999987
21
-7.3648379999999998
0
LINE
8
BLACK
6
CONTINUOUS
10
64.7482499999999987
20
-7.3648379999999998
11
64.3672969999999935
21
-7.3648379999999998
0
LINE
8
BLACK
6
CONTINUOUS
10
64.3672969999999935
20
-7.3648379999999998
11
64.1768210000000039
21
-7.2695999999999996
0
LINE
8
BLACK
6
CONTINUOUS
10
64.1768210000000039
20
-7.2695999999999996
11
64.0815829999999949
21
-7.0791230000000001
0
LINE
8
BLACK
6
CONTINUOUS
10
64.0815829999999949
20
-7.0791230000000001
11
64.0815829999999949
21
-6.3172189999999997
0
LINE
8
BLACK
6
CONTINUOUS
10
64.0815829999999949
20
-6.3172189999999997
11
64.1768210000000039
21
-6.1267420000000001
0
LINE
8
BLACK
6
CONTINUOUS
10
64.1768210000000039
20
-6.1267420000000001
11
64.3672969999999935
21
-6.031504
0
LINE
8
BLACK
6
CONTINUOUS
10
64.3672969999999935
20
-6.031504
11
64.7482499999999987
21
-6.031504
0
LINE
8
BLACK
6
CONTINUOUS
10
64.7482499999999987
20
-6.031504
11
64.9387260000000026
21
-6.1267420000000001
0
LINE
8
BLACK
6
CONTINUOUS
10
64.9387260000000026
20
-6.1267420000000001
11
65.0339639999999974
21
-6.3172189999999997
0
LINE
8
BLACK
6
CONTINUOUS
10
65.0339639999999974
20
-6.3172189999999997
11
65.0339639999999974
21
-6.507695
0
LINE
8
BLACK
6
CONTINUOUS
10
65.0339639999999974
20
-6.507695
11
64.0815829999999949
21
-6.6981709999999994
0
LINE
8
BLACK
6
CONTINUOUS
10
66.7482499999999987
20
-7.3648379999999998
11
66.7482499999999987
21
-5.3648379999999998
0
LINE
8
BLACK
6
CONTINUOUS
10
66.7482499999999987
20
-7.2695999999999996
11
66.5577739999999949
21
-7.3648379999999998
0
LINE
8
BLACK
6
CONTINUOUS
10
66.5577739999999949
20
-7.3648379999999998
11
66.1768210000000039
21
-7.3648379999999998
0
LINE
8
BLACK
6
CONTINUOUS
10
66.1768210000000039
20
-7.3648379999999998
11
65.986345
21
-7.2695999999999996
0
LINE
8
BLACK
6
CONTINUOUS
10
65.986345
20
-7.2695999999999996
11
65.891106999999991
21
-7.1743609999999993
0
LINE
8
BLACK
6
CONTINUOUS
10
65.891106999999991
20
-7.1743609999999993
11
65.7958689999999962
21
-6.9838849999999999
0
LINE
8
BLACK
6
CONTINUOUS
10
65.7958689999999962
20
-6.9838849999999999
11
65.7958689999999962
21
-6.4124569999999999
0
LINE
8
BLACK
6
CONTINUOUS
10
65.7958689999999962
20
-6.4124569999999999
11
65.891106999999991
21
-6.2219799999999994
0
LINE
8
BLACK
6
CONTINUOUS
10
65.891106999999991
20
-6.2219799999999994
11
65.986345
21
-6.1267420000000001
0
LINE
8
BLACK
6
CONTINUOUS
10
65.986345
20
-6.1267420000000001
11
66.1768210000000039
21
-6.031504
0
LINE
8
BLACK
6
CONTINUOUS
10
66.1768210000000039
20
-6.031504
11
66.5577739999999949
21
-6.031504
0
LINE
8
BLACK
6
CONTINUOUS
10
66.5577739999999949
20
-6.031504
11
66.7482499999999987
21
-6.1267420000000001
0
LINE
8
BLACK
6
CONTINUOUS
10
67.5101549999999975
20
-8.1267420000000001
11
67.6053929999999923
21
-8.031504
0
LINE
8
BLACK
6
CONTINUOUS
10
67.6053929999999923
20
-8.031504
11
67.7958689999999962
21
-7.7457899999999995
0
LINE
8
BLACK
6
CONTINUOUS
10
67.7958689999999962
20
-7.7457899999999995
11
67.891106999999991
21
-7.5553140000000001
0
LINE
8
BLACK
6
CONTINUOUS
10
67.891106999999991
20
-7.5553140000000001
11
67.986345
21
-7.2695999999999996
0
LINE
8
BLACK
6
CONTINUOUS
10
67.986345
20
-7.2695999999999996
11
68.0815829999999949
21
-6.7934089999999996
0
LINE
8
BLACK
6
CONTINUOUS
10
68.0815829999999949
20
-6.7934089999999996
11
68.0815829999999949
21
-6.4124569999999999
0
LINE
8
BLACK
6
CONTINUOUS
10
68.0815829999999949
20
-6.4124569999999999
11
67.986345
21
-5.9362659999999998
0
LINE
8
BLACK
6
CONTINUOUS
10
67.986345
20
-5.9362659999999998
11
67.891106999999991
21
-5.6505519999999994
0
LINE
8
BLACK
6
CONTINUOUS
10
67.891106999999991
20
-5.6505519999999994
11
67.7958689999999962
21
-5.4600759999999999
0
LINE
8
BLACK
6
CONTINUOUS
10
67.7958689999999962
20
-5.4600759999999999
11
67.6053929999999923
21
-5.1743609999999993
0
LINE
8
BLACK
6
CONTINUOUS
10
67.6053929999999923
20
-5.1743609999999993
11
67.5101549999999975
21
-5.0791230000000001
  0
ENDSEC
  0
EOF
