%TF.GenerationSoftware,KiCad,Pcbnew,9.0.1-193-gcc69f8b9ae*%
%TF.CreationDate,2025-04-23T10:26:54+02:00*%
%TF.ProjectId,LowCapacitanceProbe,4c6f7743-6170-4616-9369-74616e636550,1.0.0*%
%TF.SameCoordinates,PX22404f8PY679ca88*%
%TF.FileFunction,Profile,NP*%
%FSLAX45Y45*%
G04 Gerber Fmt 4.5, Leading zero omitted, Abs format (unit mm)*
G04 Created by KiCad (PCBNEW 9.0.1-193-gcc69f8b9ae) date 2025-04-23 10:26:54*
%MOMM*%
%LPD*%
G01*
G04 APERTURE LIST*
%TA.AperFunction,Profile*%
%ADD10C,0.100000*%
%TD*%
G04 APERTURE END LIST*
D10*
X229640Y718140D02*
G75*
G02*
X145457Y683004I-84830J84830D01*
G01*
X419610Y1908360D02*
G75*
G02*
X505125Y1943496I84830J-84830D01*
G01*
X156728Y35148D02*
X35148Y156728D01*
X331500Y1770540D02*
G75*
G02*
X367233Y1855986I120050J-10D01*
G01*
X0Y633000D02*
G75*
G02*
X50000Y683000I50000J0D01*
G01*
X0Y241581D02*
X0Y633000D01*
X415500Y0D02*
X241580Y0D01*
X367235Y1855985D02*
X419610Y1908360D01*
X229640Y718140D02*
X296925Y785425D01*
X2479745Y1907755D02*
X2531860Y1855640D01*
X505125Y1943500D02*
X2394290Y1943500D01*
X241580Y0D02*
G75*
G02*
X156727Y35147I0J120000D01*
G01*
X35148Y156728D02*
G75*
G02*
X0Y241581I84852J84852D01*
G01*
X331500Y869720D02*
G75*
G02*
X296926Y785424I-120050J0D01*
G01*
X2567000Y0D02*
X415500Y0D01*
X50000Y683000D02*
X145457Y683000D01*
X2567000Y1770125D02*
X2567000Y0D01*
X2531860Y1855640D02*
G75*
G02*
X2566996Y1770125I-84830J-84830D01*
G01*
X2394290Y1943500D02*
G75*
G02*
X2479746Y1907756I-10J-120050D01*
G01*
X331500Y869720D02*
X331500Y1770540D01*
M02*
