%TF.GenerationSoftware,KiCad,Pcbnew,9.0.1-129-g6cd3a802a7*%
%TF.CreationDate,2025-04-11T10:19:02+02:00*%
%TF.ProjectId,LowCapacitanceProbe,4c6f7743-6170-4616-9369-74616e636550,1.0.0*%
%TF.SameCoordinates,PX58de3e8PY4a08a30*%
%TF.FileFunction,Copper,L3,Inr*%
%TF.FilePolarity,Positive*%
%FSLAX45Y45*%
G04 Gerber Fmt 4.5, Leading zero omitted, Abs format (unit mm)*
G04 Created by KiCad (PCBNEW 9.0.1-129-g6cd3a802a7) date 2025-04-11 10:19:02*
%MOMM*%
%LPD*%
G01*
G04 APERTURE LIST*
G04 Aperture macros list*
%AMRoundRect*
0 Rectangle with rounded corners*
0 $1 Rounding radius*
0 $2 $3 $4 $5 $6 $7 $8 $9 X,Y pos of 4 corners*
0 Add a 4 corners polygon primitive as box body*
4,1,4,$2,$3,$4,$5,$6,$7,$8,$9,$2,$3,0*
0 Add four circle primitives for the rounded corners*
1,1,$1+$1,$2,$3*
1,1,$1+$1,$4,$5*
1,1,$1+$1,$6,$7*
1,1,$1+$1,$8,$9*
0 Add four rect primitives between the rounded corners*
20,1,$1+$1,$2,$3,$4,$5,0*
20,1,$1+$1,$4,$5,$6,$7,0*
20,1,$1+$1,$6,$7,$8,$9,0*
20,1,$1+$1,$8,$9,$2,$3,0*%
G04 Aperture macros list end*
%TA.AperFunction,ComponentPad*%
%ADD10C,2.000000*%
%TD*%
%TA.AperFunction,ComponentPad*%
%ADD11RoundRect,0.125000X0.500000X0.500000X-0.500000X0.500000X-0.500000X-0.500000X0.500000X-0.500000X0*%
%TD*%
%TA.AperFunction,ViaPad*%
%ADD12C,0.600000*%
%TD*%
%TA.AperFunction,Conductor*%
%ADD13C,0.250000*%
%TD*%
%TA.AperFunction,Conductor*%
%ADD14C,0.200000*%
%TD*%
G04 APERTURE END LIST*
D10*
%TO.N,GND*%
%TO.C,TP3*%
X1831500Y163000D03*
%TD*%
D11*
%TO.N,/IN*%
%TO.C,TP1*%
X349000Y667500D03*
X95000Y544500D03*
%TD*%
D12*
%TO.N,GND*%
X1292000Y570000D03*
X734000Y1892000D03*
X2482500Y1440000D03*
X1627000Y1892000D03*
X2287000Y750000D03*
X1915000Y398000D03*
X1030000Y1457500D03*
X2362000Y750000D03*
X1820000Y1884000D03*
X2137000Y275000D03*
X1307000Y60000D03*
X732500Y1465000D03*
X1687000Y775000D03*
X2062000Y750000D03*
X2144000Y1460000D03*
X2362000Y275000D03*
X1607000Y60000D03*
X1382000Y60000D03*
X2287000Y275000D03*
X1712000Y500000D03*
X1532000Y60000D03*
X2412500Y1860000D03*
X929000Y916000D03*
X1022500Y823000D03*
X1156000Y161000D03*
X425000Y1335000D03*
X1706000Y650000D03*
X1002500Y959000D03*
X1016000Y236000D03*
X642500Y1335000D03*
X1255000Y1495000D03*
X1982000Y60000D03*
X1495000Y505000D03*
X2212000Y750000D03*
X1762000Y750000D03*
X795500Y522000D03*
X1527500Y1475000D03*
X1687000Y270000D03*
X2137000Y750000D03*
X1932000Y1746000D03*
X693500Y1114000D03*
X1912000Y750000D03*
X868500Y458000D03*
X1307500Y240000D03*
X1775000Y1355000D03*
X2512000Y275000D03*
X1363000Y1891000D03*
X1339000Y705000D03*
X492500Y1820000D03*
X1987000Y750000D03*
X1423000Y227000D03*
X1462500Y775000D03*
X2232000Y1892000D03*
X1612000Y775000D03*
X1235500Y335000D03*
X1962500Y1497500D03*
X1837000Y750000D03*
X2032500Y1115000D03*
X392500Y1715000D03*
X1457000Y60000D03*
X1157000Y60000D03*
X2212000Y275000D03*
X435000Y1115000D03*
X1487000Y275000D03*
X2512000Y750000D03*
X2081000Y1885000D03*
X1232000Y60000D03*
X1387000Y775000D03*
X2062000Y275000D03*
X1596500Y200000D03*
X1682000Y60000D03*
X1987000Y275000D03*
X1151000Y1892000D03*
X908500Y520500D03*
X2437000Y275000D03*
X939000Y1885000D03*
X1537000Y775000D03*
X2437000Y750000D03*
%TO.N,Net-(R17-Pad2)*%
X1720000Y1002500D03*
%TO.N,/G2_BIAS*%
X2147500Y1550000D03*
X986000Y1060000D03*
%TO.N,/POWER*%
X1109000Y1085000D03*
X1892500Y1052500D03*
%TO.N,/GAIN_TUNE*%
X917500Y222500D03*
X1777500Y1455000D03*
X1627500Y980000D03*
%TD*%
D13*
%TO.N,/G2_BIAS*%
X2103500Y1594000D02*
X2147500Y1550000D01*
X1202000Y1372000D02*
X1587000Y1372000D01*
X986000Y1060000D02*
X986000Y1156000D01*
X986000Y1156000D02*
X1202000Y1372000D01*
X1809000Y1594000D02*
X2103500Y1594000D01*
X1587000Y1372000D02*
X1809000Y1594000D01*
%TO.N,/POWER*%
X1892500Y1052500D02*
X1742000Y902000D01*
X1292000Y902000D02*
X1109000Y1085000D01*
X1742000Y902000D02*
X1292000Y902000D01*
D14*
%TO.N,/GAIN_TUNE*%
X1627500Y980000D02*
X1377000Y980000D01*
X1627500Y980000D02*
X1627500Y1183000D01*
X1377000Y980000D02*
X1199000Y1158000D01*
X1199000Y1158000D02*
X1079000Y1158000D01*
X1120000Y957000D02*
X1120000Y425000D01*
X1048900Y1127900D02*
X1048900Y1028100D01*
X1079000Y1158000D02*
X1048900Y1127900D01*
X1627500Y1305000D02*
X1777500Y1455000D01*
X1627500Y1183000D02*
X1627500Y1305000D01*
X1120000Y425000D02*
X917500Y222500D01*
X1048900Y1028100D02*
X1120000Y957000D01*
%TD*%
%TA.AperFunction,Conductor*%
%TO.N,GND*%
G36*
X2546950Y29950D02*
G01*
X2545059Y24131D01*
X2540109Y20535D01*
X2537050Y20050D01*
X1144801Y20050D01*
X1138982Y21941D01*
X1137800Y22950D01*
X974426Y186324D01*
X971648Y191775D01*
X972606Y197819D01*
X972852Y198273D01*
X973458Y199322D01*
X977550Y214594D01*
X977550Y216488D01*
X977608Y217555D01*
X978038Y221509D01*
X978044Y221566D01*
X978169Y222727D01*
X978247Y222901D01*
X980394Y227984D01*
X980930Y228629D01*
X981156Y229025D01*
X982749Y231110D01*
X1152048Y400409D01*
X1155111Y405713D01*
X1157317Y409535D01*
X1157318Y409537D01*
X1157321Y409541D01*
X1157321Y409541D01*
X1160050Y419727D01*
X1160050Y949874D01*
X1161941Y955693D01*
X1166891Y959290D01*
X1173009Y959290D01*
X1176950Y956875D01*
X1257952Y875874D01*
X1257951Y875874D01*
X1265874Y867951D01*
X1275576Y862350D01*
X1275576Y862350D01*
X1275576Y862350D01*
X1275576Y862350D01*
X1286398Y859450D01*
X1286398Y859450D01*
X1747602Y859450D01*
X1747602Y859450D01*
X1758424Y862350D01*
X1758424Y862350D01*
X1758424Y862350D01*
X1761306Y864014D01*
X1768126Y867951D01*
X1886180Y986006D01*
X1887147Y986854D01*
X1887608Y987209D01*
X1888833Y987939D01*
X1890699Y989584D01*
X1890963Y989787D01*
X1891536Y989990D01*
X1893849Y991324D01*
X1895054Y991728D01*
X1896645Y992119D01*
X1897956Y992327D01*
X1899510Y992450D01*
X1900405Y992450D01*
X1900406Y992450D01*
X1915678Y996542D01*
X1929372Y1004448D01*
X1939924Y1015000D01*
X2546950Y1015000D01*
X2546950Y29950D01*
G37*
%TD.AperFunction*%
%TA.AperFunction,Conductor*%
G36*
X1075869Y551609D02*
G01*
X1079466Y546659D01*
X1079950Y543600D01*
X1079950Y445690D01*
X1078059Y439871D01*
X1077050Y438690D01*
X925900Y287540D01*
X920449Y284762D01*
X914405Y285719D01*
X910079Y290046D01*
X909000Y294540D01*
X909000Y366500D01*
X909000Y366500D01*
X856500Y419000D01*
X856500Y419000D01*
X782759Y419000D01*
X780828Y419190D01*
X778127Y419727D01*
X776062Y420138D01*
X772493Y421616D01*
X768453Y424316D01*
X766953Y425547D01*
X766047Y426453D01*
X764816Y427953D01*
X762116Y431993D01*
X760638Y435562D01*
X759690Y440328D01*
X759500Y442259D01*
X759500Y520241D01*
X759690Y522172D01*
X760638Y526938D01*
X762116Y530507D01*
X764816Y534548D01*
X766047Y536047D01*
X776953Y546953D01*
X778452Y548184D01*
X782493Y550884D01*
X786062Y552362D01*
X788586Y552864D01*
X790828Y553310D01*
X792759Y553500D01*
X1070050Y553500D01*
X1075869Y551609D01*
G37*
%TD.AperFunction*%
%TA.AperFunction,Conductor*%
G36*
X949128Y1011948D02*
G01*
X962822Y1004042D01*
X978094Y999950D01*
X978094Y999950D01*
X993905Y999950D01*
X993906Y999950D01*
X1009178Y1004042D01*
X1009179Y1004042D01*
X1009288Y1004072D01*
X1015399Y1003752D01*
X1018851Y1001510D01*
X1077051Y943310D01*
X1079828Y937859D01*
X1079950Y936310D01*
X1079950Y792201D01*
X1078059Y786382D01*
X1073109Y782785D01*
X1066991Y782785D01*
X1063050Y785200D01*
X1057250Y791000D01*
X1048966Y791000D01*
X564697Y791000D01*
X562766Y791190D01*
X561169Y791508D01*
X557999Y792138D01*
X554431Y793616D01*
X550391Y796316D01*
X548890Y797547D01*
X354450Y991988D01*
X351672Y997440D01*
X351550Y998988D01*
X351550Y1015000D01*
X435437Y1015000D01*
X560438Y1015000D01*
X946076Y1015000D01*
X949128Y1011948D01*
G37*
%TD.AperFunction*%
%TD*%
%TA.AperFunction,Conductor*%
%TO.N,GND*%
G36*
X1875385Y1921481D02*
G01*
X1879961Y1916201D01*
X1880955Y1909285D01*
X1880137Y1906305D01*
X1873718Y1890808D01*
X1873718Y1890807D01*
X1870450Y1874377D01*
X1870450Y1857623D01*
X1873718Y1841193D01*
X1873718Y1841192D01*
X1880129Y1825714D01*
X1889437Y1811784D01*
X1901284Y1799937D01*
X1910549Y1793746D01*
X1915214Y1790630D01*
X1930692Y1784218D01*
X1947123Y1780950D01*
X1947123Y1780950D01*
X1947123Y1780950D01*
X1963877Y1780950D01*
X1963877Y1780950D01*
X1980308Y1784218D01*
X1995786Y1790630D01*
X2009716Y1799937D01*
X2021563Y1811784D01*
X2030870Y1825714D01*
X2037282Y1841192D01*
X2040550Y1857623D01*
X2040550Y1874377D01*
X2037282Y1890808D01*
X2031638Y1904433D01*
X2030863Y1906305D01*
X2030116Y1913252D01*
X2033243Y1919500D01*
X2039252Y1923065D01*
X2042319Y1923450D01*
X2393797Y1923450D01*
X2394779Y1923411D01*
X2408836Y1922294D01*
X2409083Y1922274D01*
X2411021Y1921964D01*
X2424488Y1918701D01*
X2426353Y1918089D01*
X2430867Y1916201D01*
X2439138Y1912742D01*
X2440881Y1911844D01*
X2452662Y1904546D01*
X2454244Y1903383D01*
X2465111Y1893985D01*
X2465762Y1893379D01*
X2465792Y1893350D01*
X2468271Y1890836D01*
X2468335Y1890809D01*
X2469129Y1890016D01*
X2469218Y1889927D01*
X2469219Y1889925D01*
X2469223Y1889922D01*
X2517335Y1841810D01*
X2518001Y1841089D01*
X2527295Y1830195D01*
X2528445Y1828609D01*
X2535651Y1816805D01*
X2536536Y1815058D01*
X2541793Y1802268D01*
X2542392Y1800402D01*
X2545568Y1786944D01*
X2545866Y1785007D01*
X2546915Y1770778D01*
X2546948Y1769798D01*
X2546923Y1765234D01*
X2546950Y1764947D01*
X2546950Y1015000D01*
X1939924Y1015000D01*
X1940552Y1015628D01*
X1948458Y1029322D01*
X1952550Y1044594D01*
X1952550Y1060406D01*
X1948458Y1075678D01*
X1945457Y1080876D01*
X1940552Y1089371D01*
X1940552Y1089372D01*
X1929372Y1100552D01*
X1929371Y1100553D01*
X1915679Y1108457D01*
X1915679Y1108458D01*
X1915678Y1108458D01*
X1900406Y1112550D01*
X1884594Y1112550D01*
X1869322Y1108458D01*
X1869321Y1108457D01*
X1855629Y1100553D01*
X1855628Y1100552D01*
X1844448Y1089372D01*
X1844447Y1089371D01*
X1836543Y1075679D01*
X1836542Y1075678D01*
X1832450Y1060406D01*
X1832450Y1059749D01*
X1832286Y1057737D01*
X1832080Y1056487D01*
X1829298Y1050475D01*
X1827536Y1048398D01*
X1827534Y1048396D01*
X1827381Y1048134D01*
X1825438Y1045613D01*
X1797388Y1017563D01*
X1792694Y1015000D01*
X1783903Y1015000D01*
X1778693Y1018900D01*
X1776643Y1023122D01*
X1775958Y1025678D01*
X1772450Y1031754D01*
X1768052Y1039371D01*
X1768052Y1039372D01*
X1756872Y1050552D01*
X1756871Y1050553D01*
X1743179Y1058457D01*
X1743179Y1058458D01*
X1743178Y1058458D01*
X1727906Y1062550D01*
X1712094Y1062550D01*
X1696822Y1058458D01*
X1696821Y1058458D01*
X1686150Y1052297D01*
X1679360Y1050649D01*
X1672757Y1052935D01*
X1668438Y1058427D01*
X1667550Y1063035D01*
X1667550Y1283275D01*
X1669518Y1289979D01*
X1671181Y1292042D01*
X1753516Y1374377D01*
X1870450Y1374377D01*
X1870450Y1357623D01*
X1873718Y1341193D01*
X1873718Y1341192D01*
X1880129Y1325714D01*
X1889437Y1311784D01*
X1901284Y1299937D01*
X1910549Y1293746D01*
X1915214Y1290630D01*
X1930692Y1284218D01*
X1947123Y1280950D01*
X1947123Y1280950D01*
X1947123Y1280950D01*
X1963877Y1280950D01*
X1963877Y1280950D01*
X1980308Y1284218D01*
X1995786Y1290630D01*
X2009716Y1299937D01*
X2021563Y1311784D01*
X2030870Y1325714D01*
X2037282Y1341192D01*
X2040550Y1357623D01*
X2040550Y1374377D01*
X2037282Y1390808D01*
X2030870Y1406286D01*
X2027286Y1411650D01*
X2021563Y1420216D01*
X2009716Y1432063D01*
X1995786Y1441370D01*
X1980308Y1447782D01*
X1980307Y1447782D01*
X1963877Y1451050D01*
X1963877Y1451050D01*
X1947123Y1451050D01*
X1947123Y1451050D01*
X1930692Y1447782D01*
X1930692Y1447782D01*
X1915214Y1441370D01*
X1901284Y1432063D01*
X1889437Y1420216D01*
X1880129Y1406286D01*
X1873718Y1390808D01*
X1873718Y1390808D01*
X1870450Y1374377D01*
X1753516Y1374377D01*
X1769053Y1389914D01*
X1771551Y1391844D01*
X1771890Y1392042D01*
X1771890Y1392043D01*
X1772039Y1392149D01*
X1772133Y1392185D01*
X1772386Y1392333D01*
X1772411Y1392290D01*
X1778012Y1394412D01*
X1778128Y1394424D01*
X1778282Y1394440D01*
X1778489Y1394461D01*
X1782306Y1394877D01*
X1783648Y1394950D01*
X1785405Y1394950D01*
X1785406Y1394950D01*
X1800678Y1399042D01*
X1814372Y1406948D01*
X1825552Y1418128D01*
X1833458Y1431822D01*
X1837550Y1447094D01*
X1837550Y1462906D01*
X1833458Y1478178D01*
X1833457Y1478179D01*
X1825552Y1491871D01*
X1825552Y1491872D01*
X1814372Y1503052D01*
X1814371Y1503052D01*
X1805452Y1508202D01*
X1800630Y1513259D01*
X1799308Y1520119D01*
X1801904Y1526606D01*
X1802881Y1527707D01*
X1822993Y1547818D01*
X1829125Y1551167D01*
X1831761Y1551450D01*
X2075428Y1551450D01*
X2082132Y1549481D01*
X2086708Y1544201D01*
X2087406Y1542259D01*
X2091542Y1526821D01*
X2091543Y1526821D01*
X2099448Y1513129D01*
X2099448Y1513129D01*
X2099448Y1513128D01*
X2110628Y1501948D01*
X2110629Y1501948D01*
X2110629Y1501948D01*
X2124321Y1494043D01*
X2124322Y1494042D01*
X2139594Y1489950D01*
X2139595Y1489950D01*
X2155406Y1489950D01*
X2155406Y1489950D01*
X2170678Y1494042D01*
X2184372Y1501948D01*
X2195552Y1513128D01*
X2203458Y1526822D01*
X2207550Y1542094D01*
X2207550Y1557906D01*
X2203458Y1573178D01*
X2203457Y1573179D01*
X2195552Y1586871D01*
X2195552Y1586872D01*
X2184372Y1598052D01*
X2184371Y1598052D01*
X2170679Y1605957D01*
X2170679Y1605958D01*
X2170678Y1605958D01*
X2155406Y1610050D01*
X2155406Y1610050D01*
X2154749Y1610050D01*
X2152738Y1610214D01*
X2151488Y1610420D01*
X2145475Y1613202D01*
X2143397Y1614965D01*
X2143134Y1615119D01*
X2140612Y1617062D01*
X2129627Y1628048D01*
X2129626Y1628048D01*
X2119924Y1633650D01*
X2109102Y1636550D01*
X1814602Y1636550D01*
X1803398Y1636550D01*
X1792576Y1633650D01*
X1792576Y1633650D01*
X1782874Y1628049D01*
X1782873Y1628048D01*
X1573007Y1418182D01*
X1566875Y1414833D01*
X1564239Y1414550D01*
X1207602Y1414550D01*
X1196398Y1414550D01*
X1185576Y1411650D01*
X1185576Y1411650D01*
X1185576Y1411650D01*
X1175874Y1406049D01*
X1175873Y1406048D01*
X1167951Y1398126D01*
X958130Y1188305D01*
X958129Y1188305D01*
X958130Y1188304D01*
X951951Y1182126D01*
X951951Y1182126D01*
X946350Y1172424D01*
X946350Y1172424D01*
X943450Y1161602D01*
X943450Y1111800D01*
X943342Y1110166D01*
X943247Y1109455D01*
X942941Y1108244D01*
X942811Y1106171D01*
X942754Y1105744D01*
X942384Y1104910D01*
X941562Y1101851D01*
X941313Y1101351D01*
X940250Y1099596D01*
X939710Y1098851D01*
X938442Y1097366D01*
X937948Y1096872D01*
X930042Y1083179D01*
X930042Y1083178D01*
X925950Y1067906D01*
X925950Y1052094D01*
X929359Y1039372D01*
X930042Y1036822D01*
X930043Y1036821D01*
X937947Y1023129D01*
X937948Y1023128D01*
X946076Y1015000D01*
X351550Y1015000D01*
X351550Y1770047D01*
X351589Y1771029D01*
X352243Y1779257D01*
X352725Y1785331D01*
X353035Y1787269D01*
X353849Y1790630D01*
X356298Y1800735D01*
X356908Y1802597D01*
X362256Y1815383D01*
X363153Y1817125D01*
X370449Y1828906D01*
X371609Y1830484D01*
X381008Y1841354D01*
X381612Y1842004D01*
X381634Y1842025D01*
X384155Y1844512D01*
X384182Y1844576D01*
X384973Y1845368D01*
X385066Y1845461D01*
X385067Y1845461D01*
X385070Y1845465D01*
X433442Y1893837D01*
X434159Y1894500D01*
X445056Y1903796D01*
X446640Y1904944D01*
X458446Y1912152D01*
X460191Y1913036D01*
X472983Y1918293D01*
X474847Y1918892D01*
X488306Y1922068D01*
X490243Y1922366D01*
X504473Y1923415D01*
X505451Y1923448D01*
X509002Y1923428D01*
X509002Y1923428D01*
X510014Y1923423D01*
X510301Y1923450D01*
X1868681Y1923450D01*
X1875385Y1921481D01*
G37*
%TD.AperFunction*%
%TD*%
%TA.AperFunction,Conductor*%
%TO.N,/G2_BIAS*%
G36*
X2123627Y1591675D02*
G01*
X2129979Y1586283D01*
X2129980Y1586282D01*
X2136466Y1582754D01*
X2142706Y1580903D01*
X2149141Y1579845D01*
X2150855Y1579594D01*
X2151624Y1579135D01*
X2151843Y1578267D01*
X2151842Y1578262D01*
X2147699Y1550783D01*
X2147237Y1550016D01*
X2146717Y1549801D01*
X2119238Y1545658D01*
X2118369Y1545873D01*
X2117907Y1546640D01*
X2117906Y1546645D01*
X2117656Y1548351D01*
X2117655Y1548359D01*
X2116761Y1553972D01*
X2113461Y1563814D01*
X2110136Y1569015D01*
X2105854Y1573871D01*
X2105564Y1574718D01*
X2105905Y1575471D01*
X2122043Y1591610D01*
X2122870Y1591953D01*
X2123627Y1591675D01*
G37*
%TD.AperFunction*%
%TD*%
%TA.AperFunction,Conductor*%
%TO.N,/G2_BIAS*%
G36*
X998249Y1107081D02*
G01*
X998588Y1106349D01*
X999267Y1098045D01*
X1001358Y1090963D01*
X1001358Y1090963D01*
X1001359Y1090963D01*
X1004462Y1085242D01*
X1006744Y1082062D01*
X1008267Y1079940D01*
X1009299Y1078554D01*
X1009518Y1077685D01*
X1009058Y1076917D01*
X1009055Y1076914D01*
X986695Y1060413D01*
X985826Y1060197D01*
X985305Y1060413D01*
X975912Y1067345D01*
X962945Y1076914D01*
X962483Y1077681D01*
X962698Y1078550D01*
X963736Y1079944D01*
X963736Y1079944D01*
X963740Y1079949D01*
X967073Y1084544D01*
X967073Y1084544D01*
X967073Y1084544D01*
X971699Y1093837D01*
X973025Y1099866D01*
X973431Y1106327D01*
X973825Y1107131D01*
X974599Y1107424D01*
X997422Y1107424D01*
X998249Y1107081D01*
G37*
%TD.AperFunction*%
%TD*%
%TA.AperFunction,Conductor*%
%TO.N,/POWER*%
G36*
X1891717Y1052700D02*
G01*
X1892484Y1052237D01*
X1892699Y1051717D01*
X1896842Y1024238D01*
X1896627Y1023369D01*
X1895860Y1022907D01*
X1895855Y1022906D01*
X1894146Y1022655D01*
X1894142Y1022655D01*
X1894141Y1022654D01*
X1888527Y1021761D01*
X1888527Y1021761D01*
X1878686Y1018462D01*
X1878686Y1018461D01*
X1873486Y1015136D01*
X1868629Y1010854D01*
X1867782Y1010564D01*
X1867028Y1010905D01*
X1850890Y1027043D01*
X1850547Y1027870D01*
X1850825Y1028627D01*
X1856218Y1034980D01*
X1859746Y1041466D01*
X1861597Y1047706D01*
X1862655Y1054141D01*
X1862906Y1055856D01*
X1863365Y1056624D01*
X1864233Y1056843D01*
X1891717Y1052700D01*
G37*
%TD.AperFunction*%
%TD*%
%TA.AperFunction,Conductor*%
%TO.N,/POWER*%
G36*
X1138131Y1089127D02*
G01*
X1138593Y1088360D01*
X1138594Y1088355D01*
X1138844Y1086648D01*
X1139739Y1081027D01*
X1139739Y1081027D01*
X1143038Y1071187D01*
X1143039Y1071186D01*
X1146364Y1065986D01*
X1150646Y1061130D01*
X1150936Y1060282D01*
X1150595Y1059529D01*
X1134457Y1043390D01*
X1133630Y1043047D01*
X1132873Y1043325D01*
X1126520Y1048718D01*
X1126520Y1048718D01*
X1120034Y1052246D01*
X1120034Y1052246D01*
X1120034Y1052246D01*
X1117675Y1052946D01*
X1113794Y1054097D01*
X1113793Y1054097D01*
X1113793Y1054097D01*
X1109093Y1054870D01*
X1107359Y1055155D01*
X1106634Y1055261D01*
X1105645Y1055406D01*
X1104876Y1055865D01*
X1104657Y1056733D01*
X1108801Y1084217D01*
X1109263Y1084984D01*
X1109783Y1085199D01*
X1137262Y1089343D01*
X1138131Y1089127D01*
G37*
%TD.AperFunction*%
%TD*%
%TA.AperFunction,Conductor*%
%TO.N,/GAIN_TUNE*%
G36*
X1610583Y1003057D02*
G01*
X1610612Y1003020D01*
X1613068Y999692D01*
X1627087Y980695D01*
X1627303Y979826D01*
X1627087Y979305D01*
X1610613Y956981D01*
X1609846Y956519D01*
X1608977Y956734D01*
X1608938Y956764D01*
X1604528Y960307D01*
X1604522Y960312D01*
X1600475Y963610D01*
X1600475Y963610D01*
X1600474Y963610D01*
X1592150Y968215D01*
X1586783Y969527D01*
X1586783Y969527D01*
X1586783Y969527D01*
X1581164Y969923D01*
X1580363Y970323D01*
X1580076Y971090D01*
X1580076Y988934D01*
X1580419Y989761D01*
X1581138Y990099D01*
X1588498Y990782D01*
X1594849Y992893D01*
X1599926Y995980D01*
X1604528Y999692D01*
X1608938Y1003236D01*
X1609798Y1003487D01*
X1610583Y1003057D01*
G37*
%TD.AperFunction*%
%TD*%
%TA.AperFunction,Conductor*%
%TO.N,/GAIN_TUNE*%
G36*
X1637261Y1027081D02*
G01*
X1637599Y1026362D01*
X1638282Y1019001D01*
X1638282Y1019001D01*
X1640393Y1012651D01*
X1640393Y1012651D01*
X1643480Y1007574D01*
X1647191Y1002974D01*
X1647192Y1002971D01*
X1647192Y1002972D01*
X1650736Y998562D01*
X1650987Y997702D01*
X1650557Y996917D01*
X1650519Y996887D01*
X1628195Y980413D01*
X1627326Y980197D01*
X1626805Y980413D01*
X1604481Y996887D01*
X1604019Y997654D01*
X1604234Y998523D01*
X1604262Y998559D01*
X1607808Y1002972D01*
X1607810Y1002970D01*
X1607812Y1002978D01*
X1611110Y1007025D01*
X1615715Y1015350D01*
X1617027Y1020717D01*
X1617423Y1026336D01*
X1617823Y1027137D01*
X1618590Y1027424D01*
X1636434Y1027424D01*
X1637261Y1027081D01*
G37*
%TD.AperFunction*%
%TD*%
%TA.AperFunction,Conductor*%
%TO.N,/GAIN_TUNE*%
G36*
X1749280Y1459336D02*
G01*
X1776717Y1455199D01*
X1777484Y1454737D01*
X1777699Y1454217D01*
X1781836Y1426782D01*
X1781620Y1425913D01*
X1780853Y1425451D01*
X1780806Y1425444D01*
X1775189Y1424833D01*
X1775181Y1424832D01*
X1769979Y1424301D01*
X1760836Y1421671D01*
X1756115Y1418804D01*
X1751861Y1415110D01*
X1751011Y1414827D01*
X1750266Y1415167D01*
X1737649Y1427784D01*
X1737307Y1428611D01*
X1737576Y1429358D01*
X1742298Y1435046D01*
X1745296Y1441029D01*
X1746703Y1446802D01*
X1747332Y1452681D01*
X1747944Y1458306D01*
X1748374Y1459091D01*
X1749234Y1459342D01*
X1749280Y1459336D01*
G37*
%TD.AperFunction*%
%TD*%
%TA.AperFunction,Conductor*%
%TO.N,/GAIN_TUNE*%
G36*
X944733Y262334D02*
G01*
X957350Y249716D01*
X957693Y248889D01*
X957423Y248142D01*
X952702Y242455D01*
X952702Y242454D01*
X949704Y236472D01*
X949704Y236471D01*
X948298Y230699D01*
X948297Y230698D01*
X948297Y230698D01*
X947668Y224819D01*
X947668Y224817D01*
X947056Y219194D01*
X946625Y218409D01*
X945766Y218158D01*
X945718Y218164D01*
X918283Y222301D01*
X917516Y222763D01*
X917301Y223283D01*
X913164Y250718D01*
X913380Y251587D01*
X914147Y252049D01*
X914190Y252055D01*
X919811Y252667D01*
X919819Y252665D01*
X919819Y252668D01*
X925021Y253199D01*
X934163Y255829D01*
X938885Y258696D01*
X943139Y262390D01*
X943988Y262673D01*
X944733Y262334D01*
G37*
%TD.AperFunction*%
%TD*%
M02*
