  0
SECTION
  2
HEADER
  9
$ANGBASE
  50
0.0
  9
$ANGDIR
  70
1
  9
$MEASUREMENT
  70
1
  0
ENDSEC
  0
SECTION
  2
TABLES
  0
TABLE
  2
LTYPE
  70
4
  0
LTYPE
  5
40F
  2
CONTINUOUS
  70
0
  3
Solid line
  72
65
  73
0
  40
0.0
  0
LTYPE
  5
410
  2
DASHDOT
 70
0
  3
Dash Dot ____ _ ____ _
 72
65
 73
4
 40
2.0
 49
1.25
 49
-0.25
 49
0.25
 49
-0.25
  0
LTYPE
  5
411
  2
DASHED
 70
0
  3
Dashed __ __ __ __ __
 72
65
 73
2
 40
0.75
 49
0.5
 49
-0.25
  0
LTYPE
  5
43B
  2
DOTTED
 70
0
  3
Dotted .  .  .  .
 72
65
 73
2
 40
0.2
 49
0.0
 49
-0.2
  0
ENDTAB
  0
TABLE
  2
STYLE
  70
4
  0
STYLE
  2
KICAD
  70
0
  40
0
  41
1
  42
1
  50
0
  71
0
  3
isocp.shx
  0
STYLE
  2
KICADB
  70
0
  40
0
  41
1
  42
1
  50
0
  71
0
  3
isocp.shx
  0
STYLE
  2
KICADI
  70
0
  40
0
  41
1
  42
1
  50
15
  71
0
  3
isocp.shx
  0
STYLE
  2
KICADBI
  70
0
  40
0
  41
1
  42
1
  50
15
  71
0
  3
isocp.shx
  0
ENDTAB
  0
TABLE
  2
LAYER
  70
1
  0
LAYER
  2
BLACK
  70
0
  62
7
  6
CONTINUOUS
  0
ENDTAB
  0
ENDSEC
  0
SECTION
  2
ENTITIES
0
ARC
8
BLACK
10
1.4479
20
8.0298999999999996
40
1.1999602076735711
50
-89.68141220
51
-45.00000000
0
ARC
8
BLACK
10
5.0446
20
18.2350999999999992
40
1.1999602076735711
50
89.68236718
51
135.00000000
0
LINE
8
BLACK
6
CONTINUOUS
10
1.567275
20
0.351475
11
0.351475
21
1.567275
0
ARC
8
BLACK
10
4.5153999999999996
20
17.7052999999999976
40
1.2004000041652783
50
134.61207138
51
179.99522694
0
ARC
8
BLACK
10
0.5
20
6.3300000000000001
40
0.5
50
90.00000000
51
180.00000000
0
LINE
8
BLACK
6
CONTINUOUS
10
0.
20
2.4158059999999999
11
0.
21
6.3300000000000001
0
LINE
8
BLACK
6
CONTINUOUS
10
4.1550000000000002
20
0.
11
2.4157999999999999
21
0.
0
LINE
8
BLACK
6
CONTINUOUS
10
3.6723469999999998
20
18.5598469999999978
11
4.1960999999999995
21
19.0836000000000006
0
LINE
8
BLACK
6
CONTINUOUS
10
2.2963999999999998
20
7.1814
11
2.9692469999999997
21
7.854247
0
LINE
8
BLACK
6
CONTINUOUS
10
24.7974490000000003
20
19.0775509999999997
11
25.3186
21
18.5564
0
LINE
8
BLACK
6
CONTINUOUS
10
5.0512519999999999
20
19.4349999999999987
11
23.9428999999999981
21
19.4349999999999987
0
ARC
8
BLACK
10
2.4157999999999999
20
1.2
40
1.2
50
-135.00000000
51
-90.00000000
0
ARC
8
BLACK
10
1.2
20
2.4157999999999999
40
1.1999955630126304
50
-180.00028648
51
-135.00000000
0
ARC
8
BLACK
10
2.1145999999999998
20
8.6972000000000005
40
1.2003999999999999
50
-44.60532148
51
-0.00000000
0
LINE
8
BLACK
6
CONTINUOUS
10
25.6699999999999982
20
0.
11
4.1550000000000002
21
0.
0
LINE
8
BLACK
6
CONTINUOUS
10
0.5
20
6.8300000000000001
11
1.454572
21
6.8300000000000001
0
LINE
8
BLACK
6
CONTINUOUS
10
25.6699999999999982
20
17.7012479999999996
11
25.6699999999999982
21
0.
0
ARC
8
BLACK
10
24.4700999999999986
20
17.7078999999999986
40
1.1999602076735711
50
-0.31763282
51
45.00000000
0
ARC
8
BLACK
10
23.9427999999999983
20
18.2346000000000004
40
1.2004000041652783
50
44.60518649
51
89.99522694
0
LINE
8
BLACK
6
CONTINUOUS
10
3.3149999999999999
20
8.6972000000000005
11
3.3149999999999999
21
17.7054000000000009
0
LINE
8
BLACK
6
CONTINUOUS
10
3.7749999999999999
20
17.3000000000000007
11
4.0750000000000002
21
17.
0
LINE
8
BLACK
6
CONTINUOUS
10
4.0750000000000002
20
17.3000000000000007
11
3.7749999999999999
21
17.
0
LINE
8
BLACK
6
CONTINUOUS
10
4.0999999999999996
20
13.5
11
4.3999999999999995
21
13.1999999999999993
0
LINE
8
BLACK
6
CONTINUOUS
10
4.3999999999999995
20
13.5
11
4.0999999999999996
21
13.1999999999999993
0
LINE
8
BLACK
6
CONTINUOUS
10
4.2000000000000002
20
11.2999999999999989
11
4.5
21
11.
0
LINE
8
BLACK
6
CONTINUOUS
10
4.5
20
11.2999999999999989
11
4.2000000000000002
21
11.
0
LINE
8
BLACK
6
CONTINUOUS
10
4.7749999999999995
20
18.3499999999999979
11
5.0750000000000002
21
18.0500000000000007
0
LINE
8
BLACK
6
CONTINUOUS
10
5.0750000000000002
20
18.3499999999999979
11
4.7749999999999995
21
18.0500000000000007
0
LINE
8
BLACK
6
CONTINUOUS
10
6.2749999999999995
20
13.5
11
6.5749999999999993
21
13.1999999999999993
0
LINE
8
BLACK
6
CONTINUOUS
10
6.5749999999999993
20
13.5
11
6.2749999999999995
21
13.1999999999999993
0
LINE
8
BLACK
6
CONTINUOUS
10
6.7849999999999993
20
11.2899999999999991
11
7.085
21
10.9900000000000002
0
LINE
8
BLACK
6
CONTINUOUS
10
7.085
20
11.2899999999999991
11
6.7849999999999993
21
10.9900000000000002
0
LINE
8
BLACK
6
CONTINUOUS
10
7.1749999999999998
20
14.7999999999999989
11
7.4749999999999996
21
14.5
0
LINE
8
BLACK
6
CONTINUOUS
10
7.4749999999999996
20
14.7999999999999989
11
7.1749999999999998
21
14.5
0
LINE
8
BLACK
6
CONTINUOUS
10
7.1899999999999995
20
19.0700000000000003
11
7.4899999999999993
21
18.7699999999999996
0
LINE
8
BLACK
6
CONTINUOUS
10
7.4899999999999993
20
19.0700000000000003
11
7.1899999999999995
21
18.7699999999999996
0
LINE
8
BLACK
6
CONTINUOUS
10
7.8049999999999997
20
5.3700000000000001
11
8.1050000000000004
21
5.0699999999999994
0
LINE
8
BLACK
6
CONTINUOUS
10
8.1050000000000004
20
5.3700000000000001
11
7.8049999999999997
21
5.0699999999999994
0
LINE
8
BLACK
6
CONTINUOUS
10
8.5350000000000001
20
4.7299999999999995
11
8.8349999999999991
21
4.4299999999999997
0
LINE
8
BLACK
6
CONTINUOUS
10
8.8349999999999991
20
4.7299999999999995
11
8.5350000000000001
21
4.4299999999999997
0
LINE
8
BLACK
6
CONTINUOUS
10
8.9349999999999987
20
5.3549999999999995
11
9.2349999999999994
21
5.0549999999999997
0
LINE
8
BLACK
6
CONTINUOUS
10
9.2349999999999994
20
5.3549999999999995
11
8.9349999999999987
21
5.0549999999999997
0
LINE
8
BLACK
6
CONTINUOUS
10
9.0250000000000004
20
2.375
11
9.3249999999999993
21
2.0749999999999997
0
LINE
8
BLACK
6
CONTINUOUS
10
9.3249999999999993
20
2.375
11
9.0250000000000004
21
2.0749999999999997
0
LINE
8
BLACK
6
CONTINUOUS
10
9.1399999999999988
20
9.3099999999999987
11
9.4399999999999995
21
9.0099999999999998
0
LINE
8
BLACK
6
CONTINUOUS
10
9.4399999999999995
20
9.3099999999999987
11
9.1399999999999988
21
9.0099999999999998
0
LINE
8
BLACK
6
CONTINUOUS
10
9.2400000000000002
20
19.
11
9.5399999999999991
21
18.6999999999999993
0
LINE
8
BLACK
6
CONTINUOUS
10
9.5399999999999991
20
19.
11
9.2400000000000002
21
18.6999999999999993
0
LINE
8
BLACK
6
CONTINUOUS
10
9.7099999999999991
20
10.75
11
10.0099999999999998
21
10.4499999999999993
0
LINE
8
BLACK
6
CONTINUOUS
10
10.0099999999999998
20
10.75
11
9.7099999999999991
21
10.4499999999999993
0
LINE
8
BLACK
6
CONTINUOUS
10
9.875
20
9.7400000000000002
11
10.1749999999999989
21
9.4399999999999995
0
LINE
8
BLACK
6
CONTINUOUS
10
10.1749999999999989
20
9.7400000000000002
11
9.875
21
9.4399999999999995
0
LINE
8
BLACK
6
CONTINUOUS
10
10.0099999999999998
20
2.5099999999999998
11
10.3099999999999987
21
2.21
0
LINE
8
BLACK
6
CONTINUOUS
10
10.3099999999999987
20
2.5099999999999998
11
10.0099999999999998
21
2.21
0
LINE
8
BLACK
6
CONTINUOUS
10
10.0749999999999993
20
8.379999999999999
11
10.375
21
8.0800000000000001
0
LINE
8
BLACK
6
CONTINUOUS
10
10.375
20
8.379999999999999
11
10.0749999999999993
21
8.0800000000000001
0
LINE
8
BLACK
6
CONTINUOUS
10
10.1500000000000004
20
14.7249999999999996
11
10.4499999999999993
21
14.4249999999999989
0
LINE
8
BLACK
6
CONTINUOUS
10
10.4499999999999993
20
14.7249999999999996
11
10.1500000000000004
21
14.4249999999999989
0
LINE
8
BLACK
6
CONTINUOUS
10
10.9399999999999995
20
11.
11
11.2400000000000002
21
10.6999999999999993
0
LINE
8
BLACK
6
CONTINUOUS
10
11.2400000000000002
20
11.
11
10.9399999999999995
21
10.6999999999999993
0
LINE
8
BLACK
6
CONTINUOUS
10
11.3599999999999994
20
19.0700000000000003
11
11.6600000000000001
21
18.7699999999999996
0
LINE
8
BLACK
6
CONTINUOUS
10
11.6600000000000001
20
19.0700000000000003
11
11.3599999999999994
21
18.7699999999999996
0
LINE
8
BLACK
6
CONTINUOUS
10
11.4100000000000001
20
1.76
11
11.7099999999999991
21
1.46
0
LINE
8
BLACK
6
CONTINUOUS
10
11.7099999999999991
20
1.76
11
11.4100000000000001
21
1.46
0
LINE
8
BLACK
6
CONTINUOUS
10
11.4199999999999999
20
0.75
11
11.7199999999999989
21
0.45
0
LINE
8
BLACK
6
CONTINUOUS
10
11.7199999999999989
20
0.75
11
11.4199999999999999
21
0.45
0
LINE
8
BLACK
6
CONTINUOUS
10
12.1699999999999999
20
0.75
11
12.4699999999999989
21
0.45
0
LINE
8
BLACK
6
CONTINUOUS
10
12.4699999999999989
20
0.75
11
12.1699999999999999
21
0.45
0
LINE
8
BLACK
6
CONTINUOUS
10
12.2050000000000001
20
3.5
11
12.504999999999999
21
3.1999999999999997
0
LINE
8
BLACK
6
CONTINUOUS
10
12.504999999999999
20
3.5
11
12.2050000000000001
21
3.1999999999999997
0
LINE
8
BLACK
6
CONTINUOUS
10
12.3999999999999986
20
15.0999999999999996
11
12.6999999999999993
21
14.7999999999999989
0
LINE
8
BLACK
6
CONTINUOUS
10
12.6999999999999993
20
15.0999999999999996
11
12.3999999999999986
21
14.7999999999999989
0
LINE
8
BLACK
6
CONTINUOUS
10
12.9199999999999999
20
0.75
11
13.2199999999999989
21
0.45
0
LINE
8
BLACK
6
CONTINUOUS
10
13.2199999999999989
20
0.75
11
12.9199999999999999
21
0.45
0
LINE
8
BLACK
6
CONTINUOUS
10
12.9249999999999989
20
2.5499999999999998
11
13.2249999999999996
21
2.25
0
LINE
8
BLACK
6
CONTINUOUS
10
13.2249999999999996
20
2.5499999999999998
11
12.9249999999999989
21
2.25
0
LINE
8
BLACK
6
CONTINUOUS
10
13.2400000000000002
20
7.1999999999999993
11
13.5399999999999991
21
6.8999999999999995
0
LINE
8
BLACK
6
CONTINUOUS
10
13.5399999999999991
20
7.1999999999999993
11
13.2400000000000002
21
6.8999999999999995
0
LINE
8
BLACK
6
CONTINUOUS
10
13.4799999999999986
20
19.0599999999999987
11
13.7799999999999994
21
18.759999999999998
0
LINE
8
BLACK
6
CONTINUOUS
10
13.7799999999999994
20
19.0599999999999987
11
13.4799999999999986
21
18.759999999999998
0
LINE
8
BLACK
6
CONTINUOUS
10
13.6699999999999999
20
0.75
11
13.9699999999999989
21
0.45
0
LINE
8
BLACK
6
CONTINUOUS
10
13.9699999999999989
20
0.75
11
13.6699999999999999
21
0.45
0
LINE
8
BLACK
6
CONTINUOUS
10
13.7199999999999989
20
7.8999999999999995
11
14.0199999999999996
21
7.5999999999999996
0
LINE
8
BLACK
6
CONTINUOUS
10
14.0199999999999996
20
7.8999999999999995
11
13.7199999999999989
21
7.5999999999999996
0
LINE
8
BLACK
6
CONTINUOUS
10
14.0800000000000001
20
2.4199999999999999
11
14.379999999999999
21
2.1200000000000001
0
LINE
8
BLACK
6
CONTINUOUS
10
14.379999999999999
20
2.4199999999999999
11
14.0800000000000001
21
2.1200000000000001
0
LINE
8
BLACK
6
CONTINUOUS
10
14.4199999999999999
20
0.75
11
14.7199999999999989
21
0.45
0
LINE
8
BLACK
6
CONTINUOUS
10
14.7199999999999989
20
0.75
11
14.4199999999999999
21
0.45
0
LINE
8
BLACK
6
CONTINUOUS
10
14.4749999999999996
20
7.8999999999999995
11
14.7749999999999986
21
7.5999999999999996
0
LINE
8
BLACK
6
CONTINUOUS
10
14.7749999999999986
20
7.8999999999999995
11
14.4749999999999996
21
7.5999999999999996
0
LINE
8
BLACK
6
CONTINUOUS
10
14.7199999999999989
20
2.8999999999999999
11
15.0199999999999996
21
2.6000000000000001
0
LINE
8
BLACK
6
CONTINUOUS
10
15.0199999999999996
20
2.8999999999999999
11
14.7199999999999989
21
2.6000000000000001
0
LINE
8
BLACK
6
CONTINUOUS
10
14.7999999999999989
20
5.2000000000000002
11
15.0999999999999996
21
4.8999999999999995
0
LINE
8
BLACK
6
CONTINUOUS
10
15.0999999999999996
20
5.2000000000000002
11
14.7999999999999989
21
4.8999999999999995
0
LINE
8
BLACK
6
CONTINUOUS
10
15.125
20
14.8999999999999986
11
15.4249999999999989
21
14.5999999999999996
0
LINE
8
BLACK
6
CONTINUOUS
10
15.4249999999999989
20
14.8999999999999986
11
15.125
21
14.5999999999999996
0
LINE
8
BLACK
6
CONTINUOUS
10
15.1699999999999999
20
0.75
11
15.4699999999999989
21
0.45
0
LINE
8
BLACK
6
CONTINUOUS
10
15.4699999999999989
20
0.75
11
15.1699999999999999
21
0.45
0
LINE
8
BLACK
6
CONTINUOUS
10
15.2199999999999989
20
7.8999999999999995
11
15.5199999999999996
21
7.5999999999999996
0
LINE
8
BLACK
6
CONTINUOUS
10
15.5199999999999996
20
7.8999999999999995
11
15.2199999999999989
21
7.5999999999999996
0
LINE
8
BLACK
6
CONTINUOUS
10
15.8149999999999995
20
2.1499999999999999
11
16.1149999999999984
21
1.8499999999999999
0
LINE
8
BLACK
6
CONTINUOUS
10
16.1149999999999984
20
2.1499999999999999
11
15.8149999999999995
21
1.8499999999999999
0
LINE
8
BLACK
6
CONTINUOUS
10
15.9199999999999999
20
0.75
11
16.2199999999999989
21
0.45
0
LINE
8
BLACK
6
CONTINUOUS
10
16.2199999999999989
20
0.75
11
15.9199999999999999
21
0.45
0
LINE
8
BLACK
6
CONTINUOUS
10
15.9699999999999989
20
7.8999999999999995
11
16.2699999999999996
21
7.5999999999999996
0
LINE
8
BLACK
6
CONTINUOUS
10
16.2699999999999996
20
7.8999999999999995
11
15.9699999999999989
21
7.5999999999999996
0
LINE
8
BLACK
6
CONTINUOUS
10
16.120000000000001
20
19.0700000000000003
11
16.4199999999999982
21
18.7699999999999996
0
LINE
8
BLACK
6
CONTINUOUS
10
16.4199999999999982
20
19.0700000000000003
11
16.120000000000001
21
18.7699999999999996
0
LINE
8
BLACK
6
CONTINUOUS
10
16.125
20
9.9499999999999993
11
16.4250000000000007
21
9.6500000000000004
0
LINE
8
BLACK
6
CONTINUOUS
10
16.4250000000000007
20
9.9499999999999993
11
16.125
21
9.6500000000000004
0
LINE
8
BLACK
6
CONTINUOUS
10
16.6699999999999982
20
0.75
11
16.9699999999999989
21
0.45
0
LINE
8
BLACK
6
CONTINUOUS
10
16.9699999999999989
20
0.75
11
16.6699999999999982
21
0.45
0
LINE
8
BLACK
6
CONTINUOUS
10
16.7199999999999989
20
7.8999999999999995
11
17.0199999999999996
21
7.5999999999999996
0
LINE
8
BLACK
6
CONTINUOUS
10
17.0199999999999996
20
7.8999999999999995
11
16.7199999999999989
21
7.5999999999999996
0
LINE
8
BLACK
6
CONTINUOUS
10
16.7199999999999989
20
2.8500000000000001
11
17.0199999999999996
21
2.5499999999999998
0
LINE
8
BLACK
6
CONTINUOUS
10
17.0199999999999996
20
2.8500000000000001
11
16.7199999999999989
21
2.5499999999999998
0
LINE
8
BLACK
6
CONTINUOUS
10
16.9100000000000001
20
6.6499999999999995
11
17.2100000000000009
21
6.3499999999999996
0
LINE
8
BLACK
6
CONTINUOUS
10
17.2100000000000009
20
6.6499999999999995
11
16.9100000000000001
21
6.3499999999999996
0
LINE
8
BLACK
6
CONTINUOUS
10
16.9699999999999989
20
5.1499999999999995
11
17.2699999999999996
21
4.8499999999999996
0
LINE
8
BLACK
6
CONTINUOUS
10
17.2699999999999996
20
5.1499999999999995
11
16.9699999999999989
21
4.8499999999999996
0
LINE
8
BLACK
6
CONTINUOUS
10
17.0500000000000007
20
10.1749999999999989
11
17.3499999999999979
21
9.875
0
LINE
8
BLACK
6
CONTINUOUS
10
17.3499999999999979
20
10.1749999999999989
11
17.0500000000000007
21
9.875
0
LINE
8
BLACK
6
CONTINUOUS
10
17.4699999999999989
20
7.6499999999999995
11
17.7699999999999996
21
7.3499999999999996
0
LINE
8
BLACK
6
CONTINUOUS
10
17.7699999999999996
20
7.6499999999999995
11
17.4699999999999989
21
7.3499999999999996
0
LINE
8
BLACK
6
CONTINUOUS
10
17.5999999999999979
20
13.6999999999999993
11
17.8999999999999986
21
13.3999999999999986
0
LINE
8
BLACK
6
CONTINUOUS
10
17.8999999999999986
20
13.6999999999999993
11
17.5999999999999979
21
13.3999999999999986
0
LINE
8
BLACK
6
CONTINUOUS
10
17.625
20
14.6999999999999993
11
17.9250000000000007
21
14.3999999999999986
0
LINE
8
BLACK
6
CONTINUOUS
10
17.9250000000000007
20
14.6999999999999993
11
17.625
21
14.3999999999999986
0
LINE
8
BLACK
6
CONTINUOUS
10
18.0500000000000007
20
18.9899999999999984
11
18.3499999999999979
21
18.6899999999999977
0
LINE
8
BLACK
6
CONTINUOUS
10
18.3499999999999979
20
18.9899999999999984
11
18.0500000000000007
21
18.6899999999999977
0
LINE
8
BLACK
6
CONTINUOUS
10
18.2199999999999989
20
7.6499999999999995
11
18.5199999999999996
21
7.3499999999999996
0
LINE
8
BLACK
6
CONTINUOUS
10
18.5199999999999996
20
7.6499999999999995
11
18.2199999999999989
21
7.3499999999999996
0
LINE
8
BLACK
6
CONTINUOUS
10
18.7749999999999986
20
10.6749999999999989
11
19.0749999999999993
21
10.375
0
LINE
8
BLACK
6
CONTINUOUS
10
19.0749999999999993
20
10.6749999999999989
11
18.7749999999999986
21
10.375
0
LINE
8
BLACK
6
CONTINUOUS
10
18.9699999999999989
20
7.6499999999999995
11
19.2699999999999996
21
7.3499999999999996
0
LINE
8
BLACK
6
CONTINUOUS
10
19.2699999999999996
20
7.6499999999999995
11
18.9699999999999989
21
7.3499999999999996
0
LINE
8
BLACK
6
CONTINUOUS
10
19.
20
4.1299999999999999
11
19.3000000000000007
21
3.8299999999999996
0
LINE
8
BLACK
6
CONTINUOUS
10
19.3000000000000007
20
4.1299999999999999
11
19.
21
3.8299999999999996
0
LINE
8
BLACK
6
CONTINUOUS
10
19.1699999999999982
20
17.6099999999999994
11
19.4699999999999989
21
17.3099999999999987
0
LINE
8
BLACK
6
CONTINUOUS
10
19.4699999999999989
20
17.6099999999999994
11
19.1699999999999982
21
17.3099999999999987
0
LINE
8
BLACK
6
CONTINUOUS
10
19.4749999999999979
20
15.125
11
19.7749999999999986
21
14.8249999999999993
0
LINE
8
BLACK
6
CONTINUOUS
10
19.7749999999999986
20
15.125
11
19.4749999999999979
21
14.8249999999999993
0
LINE
8
BLACK
6
CONTINUOUS
10
19.6699999999999982
20
0.75
11
19.9699999999999989
21
0.45
0
LINE
8
BLACK
6
CONTINUOUS
10
19.9699999999999989
20
0.75
11
19.6699999999999982
21
0.45
0
LINE
8
BLACK
6
CONTINUOUS
10
19.7199999999999989
20
7.6499999999999995
11
20.0199999999999996
21
7.3499999999999996
0
LINE
8
BLACK
6
CONTINUOUS
10
20.0199999999999996
20
7.6499999999999995
11
19.7199999999999989
21
7.3499999999999996
0
LINE
8
BLACK
6
CONTINUOUS
10
19.7199999999999989
20
2.8999999999999999
11
20.0199999999999996
21
2.6000000000000001
0
LINE
8
BLACK
6
CONTINUOUS
10
20.0199999999999996
20
2.8999999999999999
11
19.7199999999999989
21
2.6000000000000001
0
LINE
8
BLACK
6
CONTINUOUS
10
20.1750000000000007
20
11.2999999999999989
11
20.4749999999999979
21
11.
0
LINE
8
BLACK
6
CONTINUOUS
10
20.4749999999999979
20
11.2999999999999989
11
20.1750000000000007
21
11.
0
LINE
8
BLACK
6
CONTINUOUS
10
20.4699999999999989
20
7.6499999999999995
11
20.7699999999999996
21
7.3499999999999996
0
LINE
8
BLACK
6
CONTINUOUS
10
20.7699999999999996
20
7.6499999999999995
11
20.4699999999999989
21
7.3499999999999996
0
LINE
8
BLACK
6
CONTINUOUS
10
20.4699999999999989
20
2.8999999999999999
11
20.7699999999999996
21
2.6000000000000001
0
LINE
8
BLACK
6
CONTINUOUS
10
20.7699999999999996
20
2.8999999999999999
11
20.4699999999999989
21
2.6000000000000001
0
LINE
8
BLACK
6
CONTINUOUS
10
20.6600000000000001
20
19.
11
20.9599999999999973
21
18.6999999999999993
0
LINE
8
BLACK
6
CONTINUOUS
10
20.9599999999999973
20
19.
11
20.6600000000000001
21
18.6999999999999993
0
LINE
8
BLACK
6
CONTINUOUS
10
21.2199999999999989
20
7.6499999999999995
11
21.5199999999999996
21
7.3499999999999996
0
LINE
8
BLACK
6
CONTINUOUS
10
21.5199999999999996
20
7.6499999999999995
11
21.2199999999999989
21
7.3499999999999996
0
LINE
8
BLACK
6
CONTINUOUS
10
21.2199999999999989
20
2.8999999999999999
11
21.5199999999999996
21
2.6000000000000001
0
LINE
8
BLACK
6
CONTINUOUS
10
21.5199999999999996
20
2.8999999999999999
11
21.2199999999999989
21
2.6000000000000001
0
LINE
8
BLACK
6
CONTINUOUS
10
21.2899999999999991
20
14.75
11
21.5899999999999999
21
14.4499999999999993
0
LINE
8
BLACK
6
CONTINUOUS
10
21.5899999999999999
20
14.75
11
21.2899999999999991
21
14.4499999999999993
0
LINE
8
BLACK
6
CONTINUOUS
10
21.3249999999999993
20
15.6499999999999986
11
21.625
21
15.3499999999999996
0
LINE
8
BLACK
6
CONTINUOUS
10
21.625
20
15.6499999999999986
11
21.3249999999999993
21
15.3499999999999996
0
LINE
8
BLACK
6
CONTINUOUS
10
21.9699999999999989
20
7.6499999999999995
11
22.2699999999999996
21
7.3499999999999996
0
LINE
8
BLACK
6
CONTINUOUS
10
22.2699999999999996
20
7.6499999999999995
11
21.9699999999999989
21
7.3499999999999996
0
LINE
8
BLACK
6
CONTINUOUS
10
21.9699999999999989
20
2.8999999999999999
11
22.2699999999999996
21
2.6000000000000001
0
LINE
8
BLACK
6
CONTINUOUS
10
22.2699999999999996
20
2.8999999999999999
11
21.9699999999999989
21
2.6000000000000001
0
LINE
8
BLACK
6
CONTINUOUS
10
22.1699999999999982
20
19.0700000000000003
11
22.4699999999999989
21
18.7699999999999996
0
LINE
8
BLACK
6
CONTINUOUS
10
22.4699999999999989
20
19.0700000000000003
11
22.1699999999999982
21
18.7699999999999996
0
LINE
8
BLACK
6
CONTINUOUS
10
22.7199999999999989
20
7.6499999999999995
11
23.0199999999999996
21
7.3499999999999996
0
LINE
8
BLACK
6
CONTINUOUS
10
23.0199999999999996
20
7.6499999999999995
11
22.7199999999999989
21
7.3499999999999996
0
LINE
8
BLACK
6
CONTINUOUS
10
22.7199999999999989
20
2.8999999999999999
11
23.0199999999999996
21
2.6000000000000001
0
LINE
8
BLACK
6
CONTINUOUS
10
23.0199999999999996
20
2.8999999999999999
11
22.7199999999999989
21
2.6000000000000001
0
LINE
8
BLACK
6
CONTINUOUS
10
23.4699999999999989
20
7.6499999999999995
11
23.7699999999999996
21
7.3499999999999996
0
LINE
8
BLACK
6
CONTINUOUS
10
23.7699999999999996
20
7.6499999999999995
11
23.4699999999999989
21
7.3499999999999996
0
LINE
8
BLACK
6
CONTINUOUS
10
23.4699999999999989
20
2.8999999999999999
11
23.7699999999999996
21
2.6000000000000001
0
LINE
8
BLACK
6
CONTINUOUS
10
23.7699999999999996
20
2.8999999999999999
11
23.4699999999999989
21
2.6000000000000001
0
LINE
8
BLACK
6
CONTINUOUS
10
23.9749999999999979
20
18.75
11
24.2749999999999986
21
18.4499999999999993
0
LINE
8
BLACK
6
CONTINUOUS
10
24.2749999999999986
20
18.75
11
23.9749999999999979
21
18.4499999999999993
0
LINE
8
BLACK
6
CONTINUOUS
10
24.2199999999999989
20
7.6499999999999995
11
24.5199999999999996
21
7.3499999999999996
0
LINE
8
BLACK
6
CONTINUOUS
10
24.5199999999999996
20
7.6499999999999995
11
24.2199999999999989
21
7.3499999999999996
0
LINE
8
BLACK
6
CONTINUOUS
10
24.2199999999999989
20
2.8999999999999999
11
24.5199999999999996
21
2.6000000000000001
0
LINE
8
BLACK
6
CONTINUOUS
10
24.5199999999999996
20
2.8999999999999999
11
24.2199999999999989
21
2.6000000000000001
0
LINE
8
BLACK
6
CONTINUOUS
10
24.6749999999999972
20
14.5499999999999989
11
24.9749999999999979
21
14.25
0
LINE
8
BLACK
6
CONTINUOUS
10
24.9749999999999979
20
14.5499999999999989
11
24.6749999999999972
21
14.25
0
LINE
8
BLACK
6
CONTINUOUS
10
24.9699999999999989
20
7.6499999999999995
11
25.2699999999999996
21
7.3499999999999996
0
LINE
8
BLACK
6
CONTINUOUS
10
25.2699999999999996
20
7.6499999999999995
11
24.9699999999999989
21
7.3499999999999996
0
LINE
8
BLACK
6
CONTINUOUS
10
24.9699999999999989
20
2.8999999999999999
11
25.2699999999999996
21
2.6000000000000001
0
LINE
8
BLACK
6
CONTINUOUS
10
25.2699999999999996
20
2.8999999999999999
11
24.9699999999999989
21
2.6000000000000001
0
CIRCLE
8
BLACK
10
0.95
20
5.4449999999999994
40
0.375
0
CIRCLE
8
BLACK
10
3.4899999999999998
20
6.6749999999999998
40
0.375
0
LINE
8
BLACK
6
CONTINUOUS
10
18.3149999999999977
20
2.1299999999999999
11
18.3149999999999977
21
1.1299999999999999
0
LINE
8
BLACK
6
CONTINUOUS
10
17.8149999999999977
20
1.6299999999999999
11
18.8149999999999977
21
1.6299999999999999
0
LINE
8
BLACK
6
CONTINUOUS
10
2.5577679999999998
20
-3.164838
11
2.5577679999999998
21
-1.164838
0
LINE
8
BLACK
6
CONTINUOUS
10
2.5577679999999998
20
-1.164838
11
3.0339579999999997
21
-1.164838
0
LINE
8
BLACK
6
CONTINUOUS
10
3.0339579999999997
20
-1.164838
11
3.3196729999999999
21
-1.260076
0
LINE
8
BLACK
6
CONTINUOUS
10
3.3196729999999999
20
-1.260076
11
3.5101489999999997
21
-1.4505519999999998
0
LINE
8
BLACK
6
CONTINUOUS
10
3.5101489999999997
20
-1.4505519999999998
11
3.6053869999999999
21
-1.6410279999999999
0
LINE
8
BLACK
6
CONTINUOUS
10
3.6053869999999999
20
-1.6410279999999999
11
3.7006250000000001
21
-2.0219800000000001
0
LINE
8
BLACK
6
CONTINUOUS
10
3.7006250000000001
20
-2.0219800000000001
11
3.7006250000000001
21
-2.3076949999999998
0
LINE
8
BLACK
6
CONTINUOUS
10
3.7006250000000001
20
-2.3076949999999998
11
3.6053869999999999
21
-2.688647
0
LINE
8
BLACK
6
CONTINUOUS
10
3.6053869999999999
20
-2.688647
11
3.5101489999999997
21
-2.8791229999999999
0
LINE
8
BLACK
6
CONTINUOUS
10
3.5101489999999997
20
-2.8791229999999999
11
3.3196729999999999
21
-3.0695999999999999
0
LINE
8
BLACK
6
CONTINUOUS
10
3.3196729999999999
20
-3.0695999999999999
11
3.0339579999999997
21
-3.164838
0
LINE
8
BLACK
6
CONTINUOUS
10
3.0339579999999997
20
-3.164838
11
2.5577679999999998
21
-3.164838
0
LINE
8
BLACK
6
CONTINUOUS
10
4.5577679999999994
20
-3.164838
11
4.5577679999999994
21
-1.831504
0
LINE
8
BLACK
6
CONTINUOUS
10
4.5577679999999994
20
-2.2124570000000001
11
4.6530059999999995
21
-2.0219800000000001
0
LINE
8
BLACK
6
CONTINUOUS
10
4.6530059999999995
20
-2.0219800000000001
11
4.7482439999999997
21
-1.926742
0
LINE
8
BLACK
6
CONTINUOUS
10
4.7482439999999997
20
-1.926742
11
4.93872
21
-1.831504
0
LINE
8
BLACK
6
CONTINUOUS
10
4.93872
20
-1.831504
11
5.1291969999999996
21
-1.831504
0
LINE
8
BLACK
6
CONTINUOUS
10
5.7958629999999998
20
-3.164838
11
5.7958629999999998
21
-1.831504
0
LINE
8
BLACK
6
CONTINUOUS
10
5.7958629999999998
20
-1.164838
11
5.7006249999999996
21
-1.260076
0
LINE
8
BLACK
6
CONTINUOUS
10
5.7006249999999996
20
-1.260076
11
5.7958629999999998
21
-1.3553139999999999
0
LINE
8
BLACK
6
CONTINUOUS
10
5.7958629999999998
20
-1.3553139999999999
11
5.8911009999999999
21
-1.260076
0
LINE
8
BLACK
6
CONTINUOUS
10
5.8911009999999999
20
-1.260076
11
5.7958629999999998
21
-1.164838
0
LINE
8
BLACK
6
CONTINUOUS
10
5.7958629999999998
20
-1.164838
11
5.7958629999999998
21
-1.3553139999999999
0
LINE
8
BLACK
6
CONTINUOUS
10
7.0339579999999993
20
-3.164838
11
6.8434819999999998
21
-3.0695999999999999
0
LINE
8
BLACK
6
CONTINUOUS
10
6.8434819999999998
20
-3.0695999999999999
11
6.7482439999999997
21
-2.8791229999999999
0
LINE
8
BLACK
6
CONTINUOUS
10
6.7482439999999997
20
-2.8791229999999999
11
6.7482439999999997
21
-1.164838
0
LINE
8
BLACK
6
CONTINUOUS
10
8.0815769999999993
20
-3.164838
11
7.8911009999999999
21
-3.0695999999999999
0
LINE
8
BLACK
6
CONTINUOUS
10
7.8911009999999999
20
-3.0695999999999999
11
7.7958629999999998
21
-2.8791229999999999
0
LINE
8
BLACK
6
CONTINUOUS
10
7.7958629999999998
20
-2.8791229999999999
11
7.7958629999999998
21
-1.164838
0
LINE
8
BLACK
6
CONTINUOUS
10
10.3672919999999991
20
-3.164838
11
10.3672919999999991
21
-1.164838
0
LINE
8
BLACK
6
CONTINUOUS
10
10.3672919999999991
20
-1.164838
11
11.0339589999999994
21
-2.5934089999999999
0
LINE
8
BLACK
6
CONTINUOUS
10
11.0339589999999994
20
-2.5934089999999999
11
11.7006249999999987
21
-1.164838
0
LINE
8
BLACK
6
CONTINUOUS
10
11.7006249999999987
20
-1.164838
11
11.7006249999999987
21
-3.164838
0
LINE
8
BLACK
6
CONTINUOUS
10
13.5101490000000002
20
-3.164838
11
13.5101490000000002
21
-2.117219
0
LINE
8
BLACK
6
CONTINUOUS
10
13.5101490000000002
20
-2.117219
11
13.414911
21
-1.926742
0
LINE
8
BLACK
6
CONTINUOUS
10
13.414911
20
-1.926742
11
13.2244349999999997
21
-1.831504
0
LINE
8
BLACK
6
CONTINUOUS
10
13.2244349999999997
20
-1.831504
11
12.8434819999999998
21
-1.831504
0
LINE
8
BLACK
6
CONTINUOUS
10
12.8434819999999998
20
-1.831504
11
12.6530059999999995
21
-1.926742
0
LINE
8
BLACK
6
CONTINUOUS
10
13.5101490000000002
20
-3.0695999999999999
11
13.3196729999999999
21
-3.164838
0
LINE
8
BLACK
6
CONTINUOUS
10
13.3196729999999999
20
-3.164838
11
12.8434819999999998
21
-3.164838
0
LINE
8
BLACK
6
CONTINUOUS
10
12.8434819999999998
20
-3.164838
11
12.6530059999999995
21
-3.0695999999999999
0
LINE
8
BLACK
6
CONTINUOUS
10
12.6530059999999995
20
-3.0695999999999999
11
12.5577679999999994
21
-2.8791229999999999
0
LINE
8
BLACK
6
CONTINUOUS
10
12.5577679999999994
20
-2.8791229999999999
11
12.5577679999999994
21
-2.688647
0
LINE
8
BLACK
6
CONTINUOUS
10
12.5577679999999994
20
-2.688647
11
12.6530059999999995
21
-2.4981709999999997
0
LINE
8
BLACK
6
CONTINUOUS
10
12.6530059999999995
20
-2.4981709999999997
11
12.8434819999999998
21
-2.402933
0
LINE
8
BLACK
6
CONTINUOUS
10
12.8434819999999998
20
-2.402933
11
13.3196729999999999
21
-2.402933
0
LINE
8
BLACK
6
CONTINUOUS
10
13.3196729999999999
20
-2.402933
11
13.5101490000000002
21
-2.3076949999999998
0
LINE
8
BLACK
6
CONTINUOUS
10
14.4625299999999992
20
-1.831504
11
14.4625299999999992
21
-3.8315039999999998
0
LINE
8
BLACK
6
CONTINUOUS
10
14.4625299999999992
20
-1.926742
11
14.6530059999999995
21
-1.831504
0
LINE
8
BLACK
6
CONTINUOUS
10
14.6530059999999995
20
-1.831504
11
15.0339589999999994
21
-1.831504
0
LINE
8
BLACK
6
CONTINUOUS
10
15.0339589999999994
20
-1.831504
11
15.2244349999999997
21
-1.926742
0
LINE
8
BLACK
6
CONTINUOUS
10
15.2244349999999997
20
-1.926742
11
15.3196729999999999
21
-2.0219800000000001
0
LINE
8
BLACK
6
CONTINUOUS
10
15.3196729999999999
20
-2.0219800000000001
11
15.414911
21
-2.2124570000000001
0
LINE
8
BLACK
6
CONTINUOUS
10
15.414911
20
-2.2124570000000001
11
15.414911
21
-2.7838849999999997
0
LINE
8
BLACK
6
CONTINUOUS
10
15.414911
20
-2.7838849999999997
11
15.3196729999999999
21
-2.974361
0
LINE
8
BLACK
6
CONTINUOUS
10
15.3196729999999999
20
-2.974361
11
15.2244349999999997
21
-3.0695999999999999
0
LINE
8
BLACK
6
CONTINUOUS
10
15.2244349999999997
20
-3.0695999999999999
11
15.0339589999999994
21
-3.164838
0
LINE
8
BLACK
6
CONTINUOUS
10
15.0339589999999994
20
-3.164838
11
14.6530059999999995
21
-3.164838
0
LINE
8
BLACK
6
CONTINUOUS
10
14.6530059999999995
20
-3.164838
11
14.4625299999999992
21
-3.0695999999999999
0
LINE
8
BLACK
6
CONTINUOUS
10
16.2720540000000007
20
-2.974361
11
16.3672919999999991
21
-3.0695999999999999
0
LINE
8
BLACK
6
CONTINUOUS
10
16.3672919999999991
20
-3.0695999999999999
11
16.2720540000000007
21
-3.164838
0
LINE
8
BLACK
6
CONTINUOUS
10
16.2720540000000007
20
-3.164838
11
16.1768159999999988
21
-3.0695999999999999
0
LINE
8
BLACK
6
CONTINUOUS
10
16.1768159999999988
20
-3.0695999999999999
11
16.2720540000000007
21
-2.974361
0
LINE
8
BLACK
6
CONTINUOUS
10
16.2720540000000007
20
-2.974361
11
16.2720540000000007
21
-3.164838
0
LINE
8
BLACK
6
CONTINUOUS
10
16.2720540000000007
20
-1.926742
11
16.3672919999999991
21
-2.0219800000000001
0
LINE
8
BLACK
6
CONTINUOUS
10
16.3672919999999991
20
-2.0219800000000001
11
16.2720540000000007
21
-2.117219
0
LINE
8
BLACK
6
CONTINUOUS
10
16.2720540000000007
20
-2.117219
11
16.1768159999999988
21
-2.0219800000000001
0
LINE
8
BLACK
6
CONTINUOUS
10
16.1768159999999988
20
-2.0219800000000001
11
16.2720540000000007
21
-1.926742
0
LINE
8
BLACK
6
CONTINUOUS
10
16.2720540000000007
20
-1.926742
11
16.2720540000000007
21
-2.117219
0
LINE
8
BLACK
6
CONTINUOUS
10
-0.35
20
-6.2999999999999998
11
-0.05
21
-6.5999999999999996
0
LINE
8
BLACK
6
CONTINUOUS
10
-0.05
20
-6.2999999999999998
11
-0.35
21
-6.5999999999999996
0
LINE
8
BLACK
6
CONTINUOUS
10
2.93872
20
-5.3648379999999998
11
3.129197
21
-5.3648379999999998
0
LINE
8
BLACK
6
CONTINUOUS
10
3.129197
20
-5.3648379999999998
11
3.3196729999999999
21
-5.4600759999999999
0
LINE
8
BLACK
6
CONTINUOUS
10
3.3196729999999999
20
-5.4600759999999999
11
3.414911
21
-5.5553140000000001
0
LINE
8
BLACK
6
CONTINUOUS
10
3.414911
20
-5.5553140000000001
11
3.5101489999999997
21
-5.7457899999999995
0
LINE
8
BLACK
6
CONTINUOUS
10
3.5101489999999997
20
-5.7457899999999995
11
3.6053869999999999
21
-6.1267420000000001
0
LINE
8
BLACK
6
CONTINUOUS
10
3.6053869999999999
20
-6.1267420000000001
11
3.6053869999999999
21
-6.6029329999999993
0
LINE
8
BLACK
6
CONTINUOUS
10
3.6053869999999999
20
-6.6029329999999993
11
3.5101489999999997
21
-6.9838849999999999
0
LINE
8
BLACK
6
CONTINUOUS
10
3.5101489999999997
20
-6.9838849999999999
11
3.414911
21
-7.1743609999999993
0
LINE
8
BLACK
6
CONTINUOUS
10
3.414911
20
-7.1743609999999993
11
3.3196729999999999
21
-7.2695999999999996
0
LINE
8
BLACK
6
CONTINUOUS
10
3.3196729999999999
20
-7.2695999999999996
11
3.129197
21
-7.3648379999999998
0
LINE
8
BLACK
6
CONTINUOUS
10
3.129197
20
-7.3648379999999998
11
2.93872
21
-7.3648379999999998
0
LINE
8
BLACK
6
CONTINUOUS
10
2.93872
20
-7.3648379999999998
11
2.7482439999999997
21
-7.2695999999999996
0
LINE
8
BLACK
6
CONTINUOUS
10
2.7482439999999997
20
-7.2695999999999996
11
2.653006
21
-7.1743609999999993
0
LINE
8
BLACK
6
CONTINUOUS
10
2.653006
20
-7.1743609999999993
11
2.5577679999999998
21
-6.9838849999999999
0
LINE
8
BLACK
6
CONTINUOUS
10
2.5577679999999998
20
-6.9838849999999999
11
2.4625300000000001
21
-6.6029329999999993
0
LINE
8
BLACK
6
CONTINUOUS
10
2.4625300000000001
20
-6.6029329999999993
11
2.4625300000000001
21
-6.1267420000000001
0
LINE
8
BLACK
6
CONTINUOUS
10
2.4625300000000001
20
-6.1267420000000001
11
2.5577679999999998
21
-5.7457899999999995
0
LINE
8
BLACK
6
CONTINUOUS
10
2.5577679999999998
20
-5.7457899999999995
11
2.653006
21
-5.5553140000000001
0
LINE
8
BLACK
6
CONTINUOUS
10
2.653006
20
-5.5553140000000001
11
2.7482439999999997
21
-5.4600759999999999
0
LINE
8
BLACK
6
CONTINUOUS
10
2.7482439999999997
20
-5.4600759999999999
11
2.93872
21
-5.3648379999999998
0
LINE
8
BLACK
6
CONTINUOUS
10
4.4625300000000001
20
-7.1743609999999993
11
4.5577679999999994
21
-7.2695999999999996
0
LINE
8
BLACK
6
CONTINUOUS
10
4.5577679999999994
20
-7.2695999999999996
11
4.4625300000000001
21
-7.3648379999999998
0
LINE
8
BLACK
6
CONTINUOUS
10
4.4625300000000001
20
-7.3648379999999998
11
4.367292
21
-7.2695999999999996
0
LINE
8
BLACK
6
CONTINUOUS
10
4.367292
20
-7.2695999999999996
11
4.4625300000000001
21
-7.1743609999999993
0
LINE
8
BLACK
6
CONTINUOUS
10
4.4625300000000001
20
-7.1743609999999993
11
4.4625300000000001
21
-7.3648379999999998
0
LINE
8
BLACK
6
CONTINUOUS
10
5.2244349999999997
20
-5.3648379999999998
11
6.4625300000000001
21
-5.3648379999999998
0
LINE
8
BLACK
6
CONTINUOUS
10
6.4625300000000001
20
-5.3648379999999998
11
5.7958629999999998
21
-6.1267420000000001
0
LINE
8
BLACK
6
CONTINUOUS
10
5.7958629999999998
20
-6.1267420000000001
11
6.0815779999999995
21
-6.1267420000000001
0
LINE
8
BLACK
6
CONTINUOUS
10
6.0815779999999995
20
-6.1267420000000001
11
6.2720539999999998
21
-6.2219799999999994
0
LINE
8
BLACK
6
CONTINUOUS
10
6.2720539999999998
20
-6.2219799999999994
11
6.367292
21
-6.3172189999999997
0
LINE
8
BLACK
6
CONTINUOUS
10
6.367292
20
-6.3172189999999997
11
6.4625300000000001
21
-6.507695
0
LINE
8
BLACK
6
CONTINUOUS
10
6.4625300000000001
20
-6.507695
11
6.4625300000000001
21
-6.9838849999999999
0
LINE
8
BLACK
6
CONTINUOUS
10
6.4625300000000001
20
-6.9838849999999999
11
6.367292
21
-7.1743609999999993
0
LINE
8
BLACK
6
CONTINUOUS
10
6.367292
20
-7.1743609999999993
11
6.2720539999999998
21
-7.2695999999999996
0
LINE
8
BLACK
6
CONTINUOUS
10
6.2720539999999998
20
-7.2695999999999996
11
6.0815779999999995
21
-7.3648379999999998
0
LINE
8
BLACK
6
CONTINUOUS
10
6.0815779999999995
20
-7.3648379999999998
11
5.5101490000000002
21
-7.3648379999999998
0
LINE
8
BLACK
6
CONTINUOUS
10
5.5101490000000002
20
-7.3648379999999998
11
5.3196729999999999
21
-7.2695999999999996
0
LINE
8
BLACK
6
CONTINUOUS
10
5.3196729999999999
20
-7.2695999999999996
11
5.2244349999999997
21
-7.1743609999999993
0
LINE
8
BLACK
6
CONTINUOUS
10
7.7006249999999996
20
-5.3648379999999998
11
7.8911020000000001
21
-5.3648379999999998
0
LINE
8
BLACK
6
CONTINUOUS
10
7.8911020000000001
20
-5.3648379999999998
11
8.0815780000000004
21
-5.4600759999999999
0
LINE
8
BLACK
6
CONTINUOUS
10
8.0815780000000004
20
-5.4600759999999999
11
8.1768159999999988
21
-5.5553140000000001
0
LINE
8
BLACK
6
CONTINUOUS
10
8.1768159999999988
20
-5.5553140000000001
11
8.2720539999999989
21
-5.7457899999999995
0
LINE
8
BLACK
6
CONTINUOUS
10
8.2720539999999989
20
-5.7457899999999995
11
8.3672919999999991
21
-6.1267420000000001
0
LINE
8
BLACK
6
CONTINUOUS
10
8.3672919999999991
20
-6.1267420000000001
11
8.3672919999999991
21
-6.6029329999999993
0
LINE
8
BLACK
6
CONTINUOUS
10
8.3672919999999991
20
-6.6029329999999993
11
8.2720539999999989
21
-6.9838849999999999
0
LINE
8
BLACK
6
CONTINUOUS
10
8.2720539999999989
20
-6.9838849999999999
11
8.1768159999999988
21
-7.1743609999999993
0
LINE
8
BLACK
6
CONTINUOUS
10
8.1768159999999988
20
-7.1743609999999993
11
8.0815780000000004
21
-7.2695999999999996
0
LINE
8
BLACK
6
CONTINUOUS
10
8.0815780000000004
20
-7.2695999999999996
11
7.8911020000000001
21
-7.3648379999999998
0
LINE
8
BLACK
6
CONTINUOUS
10
7.8911020000000001
20
-7.3648379999999998
11
7.7006249999999996
21
-7.3648379999999998
0
LINE
8
BLACK
6
CONTINUOUS
10
7.7006249999999996
20
-7.3648379999999998
11
7.5101489999999993
21
-7.2695999999999996
0
LINE
8
BLACK
6
CONTINUOUS
10
7.5101489999999993
20
-7.2695999999999996
11
7.414911
21
-7.1743609999999993
0
LINE
8
BLACK
6
CONTINUOUS
10
7.414911
20
-7.1743609999999993
11
7.3196729999999999
21
-6.9838849999999999
0
LINE
8
BLACK
6
CONTINUOUS
10
7.3196729999999999
20
-6.9838849999999999
11
7.2244349999999997
21
-6.6029329999999993
0
LINE
8
BLACK
6
CONTINUOUS
10
7.2244349999999997
20
-6.6029329999999993
11
7.2244349999999997
21
-6.1267420000000001
0
LINE
8
BLACK
6
CONTINUOUS
10
7.2244349999999997
20
-6.1267420000000001
11
7.3196729999999999
21
-5.7457899999999995
0
LINE
8
BLACK
6
CONTINUOUS
10
7.3196729999999999
20
-5.7457899999999995
11
7.414911
21
-5.5553140000000001
0
LINE
8
BLACK
6
CONTINUOUS
10
7.414911
20
-5.5553140000000001
11
7.5101489999999993
21
-5.4600759999999999
0
LINE
8
BLACK
6
CONTINUOUS
10
7.5101489999999993
20
-5.4600759999999999
11
7.7006249999999996
21
-5.3648379999999998
0
LINE
8
BLACK
6
CONTINUOUS
10
9.6053870000000003
20
-5.3648379999999998
11
9.7958639999999999
21
-5.3648379999999998
0
LINE
8
BLACK
6
CONTINUOUS
10
9.7958639999999999
20
-5.3648379999999998
11
9.9863400000000002
21
-5.4600759999999999
0
LINE
8
BLACK
6
CONTINUOUS
10
9.9863400000000002
20
-5.4600759999999999
11
10.0815780000000004
21
-5.5553140000000001
0
LINE
8
BLACK
6
CONTINUOUS
10
10.0815780000000004
20
-5.5553140000000001
11
10.1768159999999988
21
-5.7457899999999995
0
LINE
8
BLACK
6
CONTINUOUS
10
10.1768159999999988
20
-5.7457899999999995
11
10.2720539999999989
21
-6.1267420000000001
0
LINE
8
BLACK
6
CONTINUOUS
10
10.2720539999999989
20
-6.1267420000000001
11
10.2720539999999989
21
-6.6029329999999993
0
LINE
8
BLACK
6
CONTINUOUS
10
10.2720539999999989
20
-6.6029329999999993
11
10.1768159999999988
21
-6.9838849999999999
0
LINE
8
BLACK
6
CONTINUOUS
10
10.1768159999999988
20
-6.9838849999999999
11
10.0815780000000004
21
-7.1743609999999993
0
LINE
8
BLACK
6
CONTINUOUS
10
10.0815780000000004
20
-7.1743609999999993
11
9.9863400000000002
21
-7.2695999999999996
0
LINE
8
BLACK
6
CONTINUOUS
10
9.9863400000000002
20
-7.2695999999999996
11
9.7958639999999999
21
-7.3648379999999998
0
LINE
8
BLACK
6
CONTINUOUS
10
9.7958639999999999
20
-7.3648379999999998
11
9.6053870000000003
21
-7.3648379999999998
0
LINE
8
BLACK
6
CONTINUOUS
10
9.6053870000000003
20
-7.3648379999999998
11
9.414911
21
-7.2695999999999996
0
LINE
8
BLACK
6
CONTINUOUS
10
9.414911
20
-7.2695999999999996
11
9.3196729999999999
21
-7.1743609999999993
0
LINE
8
BLACK
6
CONTINUOUS
10
9.3196729999999999
20
-7.1743609999999993
11
9.2244349999999997
21
-6.9838849999999999
0
LINE
8
BLACK
6
CONTINUOUS
10
9.2244349999999997
20
-6.9838849999999999
11
9.1291969999999996
21
-6.6029329999999993
0
LINE
8
BLACK
6
CONTINUOUS
10
9.1291969999999996
20
-6.6029329999999993
11
9.1291969999999996
21
-6.1267420000000001
0
LINE
8
BLACK
6
CONTINUOUS
10
9.1291969999999996
20
-6.1267420000000001
11
9.2244349999999997
21
-5.7457899999999995
0
LINE
8
BLACK
6
CONTINUOUS
10
9.2244349999999997
20
-5.7457899999999995
11
9.3196729999999999
21
-5.5553140000000001
0
LINE
8
BLACK
6
CONTINUOUS
10
9.3196729999999999
20
-5.5553140000000001
11
9.414911
21
-5.4600759999999999
0
LINE
8
BLACK
6
CONTINUOUS
10
9.414911
20
-5.4600759999999999
11
9.6053870000000003
21
-5.3648379999999998
0
LINE
8
BLACK
6
CONTINUOUS
10
11.1291969999999996
20
-7.3648379999999998
11
11.1291969999999996
21
-6.031504
0
LINE
8
BLACK
6
CONTINUOUS
10
11.1291969999999996
20
-6.2219799999999994
11
11.2244349999999997
21
-6.1267420000000001
0
LINE
8
BLACK
6
CONTINUOUS
10
11.2244349999999997
20
-6.1267420000000001
11
11.414911
21
-6.031504
0
LINE
8
BLACK
6
CONTINUOUS
10
11.414911
20
-6.031504
11
11.7006259999999997
21
-6.031504
0
LINE
8
BLACK
6
CONTINUOUS
10
11.7006259999999997
20
-6.031504
11
11.8911020000000001
21
-6.1267420000000001
0
LINE
8
BLACK
6
CONTINUOUS
10
11.8911020000000001
20
-6.1267420000000001
11
11.9863400000000002
21
-6.3172189999999997
0
LINE
8
BLACK
6
CONTINUOUS
10
11.9863400000000002
20
-6.3172189999999997
11
11.9863400000000002
21
-7.3648379999999998
0
LINE
8
BLACK
6
CONTINUOUS
10
11.9863400000000002
20
-6.3172189999999997
11
12.0815779999999986
21
-6.1267420000000001
0
LINE
8
BLACK
6
CONTINUOUS
10
12.0815779999999986
20
-6.1267420000000001
11
12.2720539999999989
21
-6.031504
0
LINE
8
BLACK
6
CONTINUOUS
10
12.2720539999999989
20
-6.031504
11
12.5577679999999994
21
-6.031504
0
LINE
8
BLACK
6
CONTINUOUS
10
12.5577679999999994
20
-6.031504
11
12.7482449999999989
21
-6.1267420000000001
0
LINE
8
BLACK
6
CONTINUOUS
10
12.7482449999999989
20
-6.1267420000000001
11
12.8434829999999991
21
-6.3172189999999997
0
LINE
8
BLACK
6
CONTINUOUS
10
12.8434829999999991
20
-6.3172189999999997
11
12.8434829999999991
21
-7.3648379999999998
0
LINE
8
BLACK
6
CONTINUOUS
10
13.7958639999999999
20
-7.3648379999999998
11
13.7958639999999999
21
-6.031504
0
LINE
8
BLACK
6
CONTINUOUS
10
13.7958639999999999
20
-6.2219799999999994
11
13.8911020000000001
21
-6.1267420000000001
0
LINE
8
BLACK
6
CONTINUOUS
10
13.8911020000000001
20
-6.1267420000000001
11
14.0815779999999986
21
-6.031504
0
LINE
8
BLACK
6
CONTINUOUS
10
14.0815779999999986
20
-6.031504
11
14.3672930000000001
21
-6.031504
0
LINE
8
BLACK
6
CONTINUOUS
10
14.3672930000000001
20
-6.031504
11
14.5577689999999986
21
-6.1267420000000001
0
LINE
8
BLACK
6
CONTINUOUS
10
14.5577689999999986
20
-6.1267420000000001
11
14.6530069999999988
21
-6.3172189999999997
0
LINE
8
BLACK
6
CONTINUOUS
10
14.6530069999999988
20
-6.3172189999999997
11
14.6530069999999988
21
-7.3648379999999998
0
LINE
8
BLACK
6
CONTINUOUS
10
14.6530069999999988
20
-6.3172189999999997
11
14.7482449999999989
21
-6.1267420000000001
0
LINE
8
BLACK
6
CONTINUOUS
10
14.7482449999999989
20
-6.1267420000000001
11
14.9387209999999993
21
-6.031504
0
LINE
8
BLACK
6
CONTINUOUS
10
14.9387209999999993
20
-6.031504
11
15.2244349999999997
21
-6.031504
0
LINE
8
BLACK
6
CONTINUOUS
10
15.2244349999999997
20
-6.031504
11
15.4149119999999993
21
-6.1267420000000001
0
LINE
8
BLACK
6
CONTINUOUS
10
15.4149119999999993
20
-6.1267420000000001
11
15.5101499999999994
21
-6.3172189999999997
0
LINE
8
BLACK
6
CONTINUOUS
10
15.5101499999999994
20
-6.3172189999999997
11
15.5101499999999994
21
-7.3648379999999998
0
LINE
8
BLACK
6
CONTINUOUS
10
19.4149119999999975
20
-5.2695999999999996
11
17.7006270000000008
21
-7.8410279999999997
0
LINE
8
BLACK
6
CONTINUOUS
10
21.9863409999999995
20
-5.3648379999999998
11
22.1768179999999973
21
-5.3648379999999998
0
LINE
8
BLACK
6
CONTINUOUS
10
22.1768179999999973
20
-5.3648379999999998
11
22.3672939999999976
21
-5.4600759999999999
0
LINE
8
BLACK
6
CONTINUOUS
10
22.3672939999999976
20
-5.4600759999999999
11
22.4625319999999995
21
-5.5553140000000001
0
LINE
8
BLACK
6
CONTINUOUS
10
22.4625319999999995
20
-5.5553140000000001
11
22.5577699999999979
21
-5.7457899999999995
0
LINE
8
BLACK
6
CONTINUOUS
10
22.5577699999999979
20
-5.7457899999999995
11
22.6530079999999998
21
-6.1267420000000001
0
LINE
8
BLACK
6
CONTINUOUS
10
22.6530079999999998
20
-6.1267420000000001
11
22.6530079999999998
21
-6.6029329999999993
0
LINE
8
BLACK
6
CONTINUOUS
10
22.6530079999999998
20
-6.6029329999999993
11
22.5577699999999979
21
-6.9838849999999999
0
LINE
8
BLACK
6
CONTINUOUS
10
22.5577699999999979
20
-6.9838849999999999
11
22.4625319999999995
21
-7.1743609999999993
0
LINE
8
BLACK
6
CONTINUOUS
10
22.4625319999999995
20
-7.1743609999999993
11
22.3672939999999976
21
-7.2695999999999996
0
LINE
8
BLACK
6
CONTINUOUS
10
22.3672939999999976
20
-7.2695999999999996
11
22.1768179999999973
21
-7.3648379999999998
0
LINE
8
BLACK
6
CONTINUOUS
10
22.1768179999999973
20
-7.3648379999999998
11
21.9863409999999995
21
-7.3648379999999998
0
LINE
8
BLACK
6
CONTINUOUS
10
21.9863409999999995
20
-7.3648379999999998
11
21.7958649999999992
21
-7.2695999999999996
0
LINE
8
BLACK
6
CONTINUOUS
10
21.7958649999999992
20
-7.2695999999999996
11
21.7006270000000008
21
-7.1743609999999993
0
LINE
8
BLACK
6
CONTINUOUS
10
21.7006270000000008
20
-7.1743609999999993
11
21.6053889999999988
21
-6.9838849999999999
0
LINE
8
BLACK
6
CONTINUOUS
10
21.6053889999999988
20
-6.9838849999999999
11
21.5101510000000005
21
-6.6029329999999993
0
LINE
8
BLACK
6
CONTINUOUS
10
21.5101510000000005
20
-6.6029329999999993
11
21.5101510000000005
21
-6.1267420000000001
0
LINE
8
BLACK
6
CONTINUOUS
10
21.5101510000000005
20
-6.1267420000000001
11
21.6053889999999988
21
-5.7457899999999995
0
LINE
8
BLACK
6
CONTINUOUS
10
21.6053889999999988
20
-5.7457899999999995
11
21.7006270000000008
21
-5.5553140000000001
0
LINE
8
BLACK
6
CONTINUOUS
10
21.7006270000000008
20
-5.5553140000000001
11
21.7958649999999992
21
-5.4600759999999999
0
LINE
8
BLACK
6
CONTINUOUS
10
21.7958649999999992
20
-5.4600759999999999
11
21.9863409999999995
21
-5.3648379999999998
0
LINE
8
BLACK
6
CONTINUOUS
10
23.5101510000000005
20
-7.1743609999999993
11
23.6053889999999988
21
-7.2695999999999996
0
LINE
8
BLACK
6
CONTINUOUS
10
23.6053889999999988
20
-7.2695999999999996
11
23.5101510000000005
21
-7.3648379999999998
0
LINE
8
BLACK
6
CONTINUOUS
10
23.5101510000000005
20
-7.3648379999999998
11
23.4149129999999985
21
-7.2695999999999996
0
LINE
8
BLACK
6
CONTINUOUS
10
23.4149129999999985
20
-7.2695999999999996
11
23.5101510000000005
21
-7.1743609999999993
0
LINE
8
BLACK
6
CONTINUOUS
10
23.5101510000000005
20
-7.1743609999999993
11
23.5101510000000005
21
-7.3648379999999998
0
LINE
8
BLACK
6
CONTINUOUS
10
24.8434840000000001
20
-5.3648379999999998
11
25.0339609999999979
21
-5.3648379999999998
0
LINE
8
BLACK
6
CONTINUOUS
10
25.0339609999999979
20
-5.3648379999999998
11
25.2244369999999982
21
-5.4600759999999999
0
LINE
8
BLACK
6
CONTINUOUS
10
25.2244369999999982
20
-5.4600759999999999
11
25.3196750000000002
21
-5.5553140000000001
0
LINE
8
BLACK
6
CONTINUOUS
10
25.3196750000000002
20
-5.5553140000000001
11
25.4149129999999985
21
-5.7457899999999995
0
LINE
8
BLACK
6
CONTINUOUS
10
25.4149129999999985
20
-5.7457899999999995
11
25.5101510000000005
21
-6.1267420000000001
0
LINE
8
BLACK
6
CONTINUOUS
10
25.5101510000000005
20
-6.1267420000000001
11
25.5101510000000005
21
-6.6029329999999993
0
LINE
8
BLACK
6
CONTINUOUS
10
25.5101510000000005
20
-6.6029329999999993
11
25.4149129999999985
21
-6.9838849999999999
0
LINE
8
BLACK
6
CONTINUOUS
10
25.4149129999999985
20
-6.9838849999999999
11
25.3196750000000002
21
-7.1743609999999993
0
LINE
8
BLACK
6
CONTINUOUS
10
25.3196750000000002
20
-7.1743609999999993
11
25.2244369999999982
21
-7.2695999999999996
0
LINE
8
BLACK
6
CONTINUOUS
10
25.2244369999999982
20
-7.2695999999999996
11
25.0339609999999979
21
-7.3648379999999998
0
LINE
8
BLACK
6
CONTINUOUS
10
25.0339609999999979
20
-7.3648379999999998
11
24.8434840000000001
21
-7.3648379999999998
0
LINE
8
BLACK
6
CONTINUOUS
10
24.8434840000000001
20
-7.3648379999999998
11
24.6530079999999998
21
-7.2695999999999996
0
LINE
8
BLACK
6
CONTINUOUS
10
24.6530079999999998
20
-7.2695999999999996
11
24.5577699999999979
21
-7.1743609999999993
0
LINE
8
BLACK
6
CONTINUOUS
10
24.5577699999999979
20
-7.1743609999999993
11
24.4625319999999995
21
-6.9838849999999999
0
LINE
8
BLACK
6
CONTINUOUS
10
24.4625319999999995
20
-6.9838849999999999
11
24.3672939999999976
21
-6.6029329999999993
0
LINE
8
BLACK
6
CONTINUOUS
10
24.3672939999999976
20
-6.6029329999999993
11
24.3672939999999976
21
-6.1267420000000001
0
LINE
8
BLACK
6
CONTINUOUS
10
24.3672939999999976
20
-6.1267420000000001
11
24.4625319999999995
21
-5.7457899999999995
0
LINE
8
BLACK
6
CONTINUOUS
10
24.4625319999999995
20
-5.7457899999999995
11
24.5577699999999979
21
-5.5553140000000001
0
LINE
8
BLACK
6
CONTINUOUS
10
24.5577699999999979
20
-5.5553140000000001
11
24.6530079999999998
21
-5.4600759999999999
0
LINE
8
BLACK
6
CONTINUOUS
10
24.6530079999999998
20
-5.4600759999999999
11
24.8434840000000001
21
-5.3648379999999998
0
LINE
8
BLACK
6
CONTINUOUS
10
27.4149129999999985
20
-7.3648379999999998
11
26.2720559999999992
21
-7.3648379999999998
0
LINE
8
BLACK
6
CONTINUOUS
10
26.8434840000000001
20
-7.3648379999999998
11
26.8434840000000001
21
-5.3648379999999998
0
LINE
8
BLACK
6
CONTINUOUS
10
26.8434840000000001
20
-5.3648379999999998
11
26.6530079999999998
21
-5.6505519999999994
0
LINE
8
BLACK
6
CONTINUOUS
10
26.6530079999999998
20
-5.6505519999999994
11
26.4625319999999995
21
-5.8410279999999997
0
LINE
8
BLACK
6
CONTINUOUS
10
26.4625319999999995
20
-5.8410279999999997
11
26.2720559999999992
21
-5.9362659999999998
0
LINE
8
BLACK
6
CONTINUOUS
10
29.3196750000000002
20
-7.3648379999999998
11
28.1768179999999973
21
-7.3648379999999998
0
LINE
8
BLACK
6
CONTINUOUS
10
28.7482459999999982
20
-7.3648379999999998
11
28.7482459999999982
21
-5.3648379999999998
0
LINE
8
BLACK
6
CONTINUOUS
10
28.7482459999999982
20
-5.3648379999999998
11
28.5577699999999979
21
-5.6505519999999994
0
LINE
8
BLACK
6
CONTINUOUS
10
28.5577699999999979
20
-5.6505519999999994
11
28.3672939999999976
21
-5.8410279999999997
0
LINE
8
BLACK
6
CONTINUOUS
10
28.3672939999999976
20
-5.8410279999999997
11
28.1768179999999973
21
-5.9362659999999998
0
LINE
8
BLACK
6
CONTINUOUS
10
30.4625319999999995
20
-6.2219799999999994
11
30.2720559999999992
21
-6.1267420000000001
0
LINE
8
BLACK
6
CONTINUOUS
10
30.2720559999999992
20
-6.1267420000000001
11
30.1768179999999973
21
-6.031504
0
LINE
8
BLACK
6
CONTINUOUS
10
30.1768179999999973
20
-6.031504
11
30.0815799999999989
21
-5.8410279999999997
0
LINE
8
BLACK
6
CONTINUOUS
10
30.0815799999999989
20
-5.8410279999999997
11
30.0815799999999989
21
-5.7457899999999995
0
LINE
8
BLACK
6
CONTINUOUS
10
30.0815799999999989
20
-5.7457899999999995
11
30.1768179999999973
21
-5.5553140000000001
0
LINE
8
BLACK
6
CONTINUOUS
10
30.1768179999999973
20
-5.5553140000000001
11
30.2720559999999992
21
-5.4600759999999999
0
LINE
8
BLACK
6
CONTINUOUS
10
30.2720559999999992
20
-5.4600759999999999
11
30.4625319999999995
21
-5.3648379999999998
0
LINE
8
BLACK
6
CONTINUOUS
10
30.4625319999999995
20
-5.3648379999999998
11
30.8434849999999976
21
-5.3648379999999998
0
LINE
8
BLACK
6
CONTINUOUS
10
30.8434849999999976
20
-5.3648379999999998
11
31.0339609999999979
21
-5.4600759999999999
0
LINE
8
BLACK
6
CONTINUOUS
10
31.0339609999999979
20
-5.4600759999999999
11
31.1291989999999998
21
-5.5553140000000001
0
LINE
8
BLACK
6
CONTINUOUS
10
31.1291989999999998
20
-5.5553140000000001
11
31.2244369999999982
21
-5.7457899999999995
0
LINE
8
BLACK
6
CONTINUOUS
10
31.2244369999999982
20
-5.7457899999999995
11
31.2244369999999982
21
-5.8410279999999997
0
LINE
8
BLACK
6
CONTINUOUS
10
31.2244369999999982
20
-5.8410279999999997
11
31.1291989999999998
21
-6.031504
0
LINE
8
BLACK
6
CONTINUOUS
10
31.1291989999999998
20
-6.031504
11
31.0339609999999979
21
-6.1267420000000001
0
LINE
8
BLACK
6
CONTINUOUS
10
31.0339609999999979
20
-6.1267420000000001
11
30.8434849999999976
21
-6.2219799999999994
0
LINE
8
BLACK
6
CONTINUOUS
10
30.8434849999999976
20
-6.2219799999999994
11
30.4625319999999995
21
-6.2219799999999994
0
LINE
8
BLACK
6
CONTINUOUS
10
30.4625319999999995
20
-6.2219799999999994
11
30.2720559999999992
21
-6.3172189999999997
0
LINE
8
BLACK
6
CONTINUOUS
10
30.2720559999999992
20
-6.3172189999999997
11
30.1768179999999973
21
-6.4124569999999999
0
LINE
8
BLACK
6
CONTINUOUS
10
30.1768179999999973
20
-6.4124569999999999
11
30.0815799999999989
21
-6.6029329999999993
0
LINE
8
BLACK
6
CONTINUOUS
10
30.0815799999999989
20
-6.6029329999999993
11
30.0815799999999989
21
-6.9838849999999999
0
LINE
8
BLACK
6
CONTINUOUS
10
30.0815799999999989
20
-6.9838849999999999
11
30.1768179999999973
21
-7.1743609999999993
0
LINE
8
BLACK
6
CONTINUOUS
10
30.1768179999999973
20
-7.1743609999999993
11
30.2720559999999992
21
-7.2695999999999996
0
LINE
8
BLACK
6
CONTINUOUS
10
30.2720559999999992
20
-7.2695999999999996
11
30.4625319999999995
21
-7.3648379999999998
0
LINE
8
BLACK
6
CONTINUOUS
10
30.4625319999999995
20
-7.3648379999999998
11
30.8434849999999976
21
-7.3648379999999998
0
LINE
8
BLACK
6
CONTINUOUS
10
30.8434849999999976
20
-7.3648379999999998
11
31.0339609999999979
21
-7.2695999999999996
0
LINE
8
BLACK
6
CONTINUOUS
10
31.0339609999999979
20
-7.2695999999999996
11
31.1291989999999998
21
-7.1743609999999993
0
LINE
8
BLACK
6
CONTINUOUS
10
31.1291989999999998
20
-7.1743609999999993
11
31.2244369999999982
21
-6.9838849999999999
0
LINE
8
BLACK
6
CONTINUOUS
10
31.2244369999999982
20
-6.9838849999999999
11
31.2244369999999982
21
-6.6029329999999993
0
LINE
8
BLACK
6
CONTINUOUS
10
31.2244369999999982
20
-6.6029329999999993
11
31.1291989999999998
21
-6.4124569999999999
0
LINE
8
BLACK
6
CONTINUOUS
10
31.1291989999999998
20
-6.4124569999999999
11
31.0339609999999979
21
-6.3172189999999997
0
LINE
8
BLACK
6
CONTINUOUS
10
31.0339609999999979
20
-6.3172189999999997
11
30.8434849999999976
21
-6.2219799999999994
0
LINE
8
BLACK
6
CONTINUOUS
10
31.9863419999999969
20
-5.3648379999999998
11
31.9863419999999969
21
-5.7457899999999995
0
LINE
8
BLACK
6
CONTINUOUS
10
32.7482469999999992
20
-5.3648379999999998
11
32.7482469999999992
21
-5.7457899999999995
0
LINE
8
BLACK
6
CONTINUOUS
10
35.7006289999999993
20
-8.1267420000000001
11
35.6053899999999999
21
-8.031504
0
LINE
8
BLACK
6
CONTINUOUS
10
35.6053899999999999
20
-8.031504
11
35.414913999999996
21
-7.7457899999999995
0
LINE
8
BLACK
6
CONTINUOUS
10
35.414913999999996
20
-7.7457899999999995
11
35.3196760000000012
21
-7.5553140000000001
0
LINE
8
BLACK
6
CONTINUOUS
10
35.3196760000000012
20
-7.5553140000000001
11
35.2244379999999992
21
-7.2695999999999996
0
LINE
8
BLACK
6
CONTINUOUS
10
35.2244379999999992
20
-7.2695999999999996
11
35.1291999999999973
21
-6.7934089999999996
0
LINE
8
BLACK
6
CONTINUOUS
10
35.1291999999999973
20
-6.7934089999999996
11
35.1291999999999973
21
-6.4124569999999999
0
LINE
8
BLACK
6
CONTINUOUS
10
35.1291999999999973
20
-6.4124569999999999
11
35.2244379999999992
21
-5.9362659999999998
0
LINE
8
BLACK
6
CONTINUOUS
10
35.2244379999999992
20
-5.9362659999999998
11
35.3196760000000012
21
-5.6505519999999994
0
LINE
8
BLACK
6
CONTINUOUS
10
35.3196760000000012
20
-5.6505519999999994
11
35.414913999999996
21
-5.4600759999999999
0
LINE
8
BLACK
6
CONTINUOUS
10
35.414913999999996
20
-5.4600759999999999
11
35.6053899999999999
21
-5.1743609999999993
0
LINE
8
BLACK
6
CONTINUOUS
10
35.6053899999999999
20
-5.1743609999999993
11
35.7006289999999993
21
-5.0791230000000001
0
LINE
8
BLACK
6
CONTINUOUS
10
36.7482469999999992
20
-6.2219799999999994
11
36.5577709999999954
21
-6.1267420000000001
0
LINE
8
BLACK
6
CONTINUOUS
10
36.5577709999999954
20
-6.1267420000000001
11
36.4625330000000005
21
-6.031504
0
LINE
8
BLACK
6
CONTINUOUS
10
36.4625330000000005
20
-6.031504
11
36.3672949999999986
21
-5.8410279999999997
0
LINE
8
BLACK
6
CONTINUOUS
10
36.3672949999999986
20
-5.8410279999999997
11
36.3672949999999986
21
-5.7457899999999995
0
LINE
8
BLACK
6
CONTINUOUS
10
36.3672949999999986
20
-5.7457899999999995
11
36.4625330000000005
21
-5.5553140000000001
0
LINE
8
BLACK
6
CONTINUOUS
10
36.4625330000000005
20
-5.5553140000000001
11
36.5577709999999954
21
-5.4600759999999999
0
LINE
8
BLACK
6
CONTINUOUS
10
36.5577709999999954
20
-5.4600759999999999
11
36.7482469999999992
21
-5.3648379999999998
0
LINE
8
BLACK
6
CONTINUOUS
10
36.7482469999999992
20
-5.3648379999999998
11
37.1291999999999973
21
-5.3648379999999998
0
LINE
8
BLACK
6
CONTINUOUS
10
37.1291999999999973
20
-5.3648379999999998
11
37.3196760000000012
21
-5.4600759999999999
0
LINE
8
BLACK
6
CONTINUOUS
10
37.3196760000000012
20
-5.4600759999999999
11
37.414913999999996
21
-5.5553140000000001
0
LINE
8
BLACK
6
CONTINUOUS
10
37.414913999999996
20
-5.5553140000000001
11
37.5101519999999979
21
-5.7457899999999995
0
LINE
8
BLACK
6
CONTINUOUS
10
37.5101519999999979
20
-5.7457899999999995
11
37.5101519999999979
21
-5.8410279999999997
0
LINE
8
BLACK
6
CONTINUOUS
10
37.5101519999999979
20
-5.8410279999999997
11
37.414913999999996
21
-6.031504
0
LINE
8
BLACK
6
CONTINUOUS
10
37.414913999999996
20
-6.031504
11
37.3196760000000012
21
-6.1267420000000001
0
LINE
8
BLACK
6
CONTINUOUS
10
37.3196760000000012
20
-6.1267420000000001
11
37.1291999999999973
21
-6.2219799999999994
0
LINE
8
BLACK
6
CONTINUOUS
10
37.1291999999999973
20
-6.2219799999999994
11
36.7482469999999992
21
-6.2219799999999994
0
LINE
8
BLACK
6
CONTINUOUS
10
36.7482469999999992
20
-6.2219799999999994
11
36.5577709999999954
21
-6.3172189999999997
0
LINE
8
BLACK
6
CONTINUOUS
10
36.5577709999999954
20
-6.3172189999999997
11
36.4625330000000005
21
-6.4124569999999999
0
LINE
8
BLACK
6
CONTINUOUS
10
36.4625330000000005
20
-6.4124569999999999
11
36.3672949999999986
21
-6.6029329999999993
0
LINE
8
BLACK
6
CONTINUOUS
10
36.3672949999999986
20
-6.6029329999999993
11
36.3672949999999986
21
-6.9838849999999999
0
LINE
8
BLACK
6
CONTINUOUS
10
36.3672949999999986
20
-6.9838849999999999
11
36.4625330000000005
21
-7.1743609999999993
0
LINE
8
BLACK
6
CONTINUOUS
10
36.4625330000000005
20
-7.1743609999999993
11
36.5577709999999954
21
-7.2695999999999996
0
LINE
8
BLACK
6
CONTINUOUS
10
36.5577709999999954
20
-7.2695999999999996
11
36.7482469999999992
21
-7.3648379999999998
0
LINE
8
BLACK
6
CONTINUOUS
10
36.7482469999999992
20
-7.3648379999999998
11
37.1291999999999973
21
-7.3648379999999998
0
LINE
8
BLACK
6
CONTINUOUS
10
37.1291999999999973
20
-7.3648379999999998
11
37.3196760000000012
21
-7.2695999999999996
0
LINE
8
BLACK
6
CONTINUOUS
10
37.3196760000000012
20
-7.2695999999999996
11
37.414913999999996
21
-7.1743609999999993
0
LINE
8
BLACK
6
CONTINUOUS
10
37.414913999999996
20
-7.1743609999999993
11
37.5101519999999979
21
-6.9838849999999999
0
LINE
8
BLACK
6
CONTINUOUS
10
37.5101519999999979
20
-6.9838849999999999
11
37.5101519999999979
21
-6.6029329999999993
0
LINE
8
BLACK
6
CONTINUOUS
10
37.5101519999999979
20
-6.6029329999999993
11
37.414913999999996
21
-6.4124569999999999
0
LINE
8
BLACK
6
CONTINUOUS
10
37.414913999999996
20
-6.4124569999999999
11
37.3196760000000012
21
-6.3172189999999997
0
LINE
8
BLACK
6
CONTINUOUS
10
37.3196760000000012
20
-6.3172189999999997
11
37.1291999999999973
21
-6.2219799999999994
0
LINE
8
BLACK
6
CONTINUOUS
10
39.3196760000000012
20
-5.3648379999999998
11
38.3672949999999986
21
-5.3648379999999998
0
LINE
8
BLACK
6
CONTINUOUS
10
38.3672949999999986
20
-5.3648379999999998
11
38.2720569999999967
21
-6.3172189999999997
0
LINE
8
BLACK
6
CONTINUOUS
10
38.2720569999999967
20
-6.3172189999999997
11
38.3672949999999986
21
-6.2219799999999994
0
LINE
8
BLACK
6
CONTINUOUS
10
38.3672949999999986
20
-6.2219799999999994
11
38.5577709999999954
21
-6.1267420000000001
0
LINE
8
BLACK
6
CONTINUOUS
10
38.5577709999999954
20
-6.1267420000000001
11
39.0339619999999954
21
-6.1267420000000001
0
LINE
8
BLACK
6
CONTINUOUS
10
39.0339619999999954
20
-6.1267420000000001
11
39.2244379999999992
21
-6.2219799999999994
0
LINE
8
BLACK
6
CONTINUOUS
10
39.2244379999999992
20
-6.2219799999999994
11
39.3196760000000012
21
-6.3172189999999997
0
LINE
8
BLACK
6
CONTINUOUS
10
39.3196760000000012
20
-6.3172189999999997
11
39.414913999999996
21
-6.507695
0
LINE
8
BLACK
6
CONTINUOUS
10
39.414913999999996
20
-6.507695
11
39.414913999999996
21
-6.9838849999999999
0
LINE
8
BLACK
6
CONTINUOUS
10
39.414913999999996
20
-6.9838849999999999
11
39.3196760000000012
21
-7.1743609999999993
0
LINE
8
BLACK
6
CONTINUOUS
10
39.3196760000000012
20
-7.1743609999999993
11
39.2244379999999992
21
-7.2695999999999996
0
LINE
8
BLACK
6
CONTINUOUS
10
39.2244379999999992
20
-7.2695999999999996
11
39.0339619999999954
21
-7.3648379999999998
0
LINE
8
BLACK
6
CONTINUOUS
10
39.0339619999999954
20
-7.3648379999999998
11
38.5577709999999954
21
-7.3648379999999998
0
LINE
8
BLACK
6
CONTINUOUS
10
38.5577709999999954
20
-7.3648379999999998
11
38.3672949999999986
21
-7.2695999999999996
0
LINE
8
BLACK
6
CONTINUOUS
10
38.3672949999999986
20
-7.2695999999999996
11
38.2720569999999967
21
-7.1743609999999993
0
LINE
8
BLACK
6
CONTINUOUS
10
41.7958670000000012
20
-7.3648379999999998
11
41.7958670000000012
21
-5.3648379999999998
0
LINE
8
BLACK
6
CONTINUOUS
10
42.6530099999999948
20
-7.3648379999999998
11
42.6530099999999948
21
-6.3172189999999997
0
LINE
8
BLACK
6
CONTINUOUS
10
42.6530099999999948
20
-6.3172189999999997
11
42.5577719999999999
21
-6.1267420000000001
0
LINE
8
BLACK
6
CONTINUOUS
10
42.5577719999999999
20
-6.1267420000000001
11
42.3672959999999961
21
-6.031504
0
LINE
8
BLACK
6
CONTINUOUS
10
42.3672959999999961
20
-6.031504
11
42.0815809999999999
21
-6.031504
0
LINE
8
BLACK
6
CONTINUOUS
10
42.0815809999999999
20
-6.031504
11
41.891104999999996
21
-6.1267420000000001
0
LINE
8
BLACK
6
CONTINUOUS
10
41.891104999999996
20
-6.1267420000000001
11
41.7958670000000012
21
-6.2219799999999994
0
LINE
8
BLACK
6
CONTINUOUS
10
43.891104999999996
20
-7.3648379999999998
11
43.7006289999999993
21
-7.2695999999999996
0
LINE
8
BLACK
6
CONTINUOUS
10
43.7006289999999993
20
-7.2695999999999996
11
43.6053909999999973
21
-7.1743609999999993
0
LINE
8
BLACK
6
CONTINUOUS
10
43.6053909999999973
20
-7.1743609999999993
11
43.5101529999999954
21
-6.9838849999999999
0
LINE
8
BLACK
6
CONTINUOUS
10
43.5101529999999954
20
-6.9838849999999999
11
43.5101529999999954
21
-6.4124569999999999
0
LINE
8
BLACK
6
CONTINUOUS
10
43.5101529999999954
20
-6.4124569999999999
11
43.6053909999999973
21
-6.2219799999999994
0
LINE
8
BLACK
6
CONTINUOUS
10
43.6053909999999973
20
-6.2219799999999994
11
43.7006289999999993
21
-6.1267420000000001
0
LINE
8
BLACK
6
CONTINUOUS
10
43.7006289999999993
20
-6.1267420000000001
11
43.891104999999996
21
-6.031504
0
LINE
8
BLACK
6
CONTINUOUS
10
43.891104999999996
20
-6.031504
11
44.1768199999999993
21
-6.031504
0
LINE
8
BLACK
6
CONTINUOUS
10
44.1768199999999993
20
-6.031504
11
44.3672959999999961
21
-6.1267420000000001
0
LINE
8
BLACK
6
CONTINUOUS
10
44.3672959999999961
20
-6.1267420000000001
11
44.462533999999998
21
-6.2219799999999994
0
LINE
8
BLACK
6
CONTINUOUS
10
44.462533999999998
20
-6.2219799999999994
11
44.5577719999999999
21
-6.4124569999999999
0
LINE
8
BLACK
6
CONTINUOUS
10
44.5577719999999999
20
-6.4124569999999999
11
44.5577719999999999
21
-6.9838849999999999
0
LINE
8
BLACK
6
CONTINUOUS
10
44.5577719999999999
20
-6.9838849999999999
11
44.462533999999998
21
-7.1743609999999993
0
LINE
8
BLACK
6
CONTINUOUS
10
44.462533999999998
20
-7.1743609999999993
11
44.3672959999999961
21
-7.2695999999999996
0
LINE
8
BLACK
6
CONTINUOUS
10
44.3672959999999961
20
-7.2695999999999996
11
44.1768199999999993
21
-7.3648379999999998
0
LINE
8
BLACK
6
CONTINUOUS
10
44.1768199999999993
20
-7.3648379999999998
11
43.891104999999996
21
-7.3648379999999998
0
LINE
8
BLACK
6
CONTINUOUS
10
45.7006289999999993
20
-7.3648379999999998
11
45.5101529999999954
21
-7.2695999999999996
0
LINE
8
BLACK
6
CONTINUOUS
10
45.5101529999999954
20
-7.2695999999999996
11
45.4149150000000006
21
-7.0791230000000001
0
LINE
8
BLACK
6
CONTINUOUS
10
45.4149150000000006
20
-7.0791230000000001
11
45.4149150000000006
21
-5.3648379999999998
0
LINE
8
BLACK
6
CONTINUOUS
10
47.2244389999999967
20
-7.2695999999999996
11
47.033963
21
-7.3648379999999998
0
LINE
8
BLACK
6
CONTINUOUS
10
47.033963
20
-7.3648379999999998
11
46.6530099999999948
21
-7.3648379999999998
0
LINE
8
BLACK
6
CONTINUOUS
10
46.6530099999999948
20
-7.3648379999999998
11
46.462533999999998
21
-7.2695999999999996
0
LINE
8
BLACK
6
CONTINUOUS
10
46.462533999999998
20
-7.2695999999999996
11
46.3672959999999961
21
-7.0791230000000001
0
LINE
8
BLACK
6
CONTINUOUS
10
46.3672959999999961
20
-7.0791230000000001
11
46.3672959999999961
21
-6.3172189999999997
0
LINE
8
BLACK
6
CONTINUOUS
10
46.3672959999999961
20
-6.3172189999999997
11
46.462533999999998
21
-6.1267420000000001
0
LINE
8
BLACK
6
CONTINUOUS
10
46.462533999999998
20
-6.1267420000000001
11
46.6530099999999948
21
-6.031504
0
LINE
8
BLACK
6
CONTINUOUS
10
46.6530099999999948
20
-6.031504
11
47.033963
21
-6.031504
0
LINE
8
BLACK
6
CONTINUOUS
10
47.033963
20
-6.031504
11
47.2244389999999967
21
-6.1267420000000001
0
LINE
8
BLACK
6
CONTINUOUS
10
47.2244389999999967
20
-6.1267420000000001
11
47.3196769999999987
21
-6.3172189999999997
0
LINE
8
BLACK
6
CONTINUOUS
10
47.3196769999999987
20
-6.3172189999999997
11
47.3196769999999987
21
-6.507695
0
LINE
8
BLACK
6
CONTINUOUS
10
47.3196769999999987
20
-6.507695
11
46.3672959999999961
21
-6.6981709999999994
0
LINE
8
BLACK
6
CONTINUOUS
10
48.0815819999999974
20
-7.2695999999999996
11
48.2720580000000012
21
-7.3648379999999998
0
LINE
8
BLACK
6
CONTINUOUS
10
48.2720580000000012
20
-7.3648379999999998
11
48.6530099999999948
21
-7.3648379999999998
0
LINE
8
BLACK
6
CONTINUOUS
10
48.6530099999999948
20
-7.3648379999999998
11
48.8434869999999961
21
-7.2695999999999996
0
LINE
8
BLACK
6
CONTINUOUS
10
48.8434869999999961
20
-7.2695999999999996
11
48.938724999999998
21
-7.0791230000000001
0
LINE
8
BLACK
6
CONTINUOUS
10
48.938724999999998
20
-7.0791230000000001
11
48.938724999999998
21
-6.9838849999999999
0
LINE
8
BLACK
6
CONTINUOUS
10
48.938724999999998
20
-6.9838849999999999
11
48.8434869999999961
21
-6.7934089999999996
0
LINE
8
BLACK
6
CONTINUOUS
10
48.8434869999999961
20
-6.7934089999999996
11
48.6530099999999948
21
-6.6981709999999994
0
LINE
8
BLACK
6
CONTINUOUS
10
48.6530099999999948
20
-6.6981709999999994
11
48.3672959999999961
21
-6.6981709999999994
0
LINE
8
BLACK
6
CONTINUOUS
10
48.3672959999999961
20
-6.6981709999999994
11
48.1768199999999993
21
-6.6029329999999993
0
LINE
8
BLACK
6
CONTINUOUS
10
48.1768199999999993
20
-6.6029329999999993
11
48.0815819999999974
21
-6.4124569999999999
0
LINE
8
BLACK
6
CONTINUOUS
10
48.0815819999999974
20
-6.4124569999999999
11
48.0815819999999974
21
-6.3172189999999997
0
LINE
8
BLACK
6
CONTINUOUS
10
48.0815819999999974
20
-6.3172189999999997
11
48.1768199999999993
21
-6.1267420000000001
0
LINE
8
BLACK
6
CONTINUOUS
10
48.1768199999999993
20
-6.1267420000000001
11
48.3672959999999961
21
-6.031504
0
LINE
8
BLACK
6
CONTINUOUS
10
48.3672959999999961
20
-6.031504
11
48.6530099999999948
21
-6.031504
0
LINE
8
BLACK
6
CONTINUOUS
10
48.6530099999999948
20
-6.031504
11
48.8434869999999961
21
-6.1267420000000001
0
LINE
8
BLACK
6
CONTINUOUS
10
49.6053919999999948
20
-8.1267420000000001
11
49.7006299999999968
21
-8.031504
0
LINE
8
BLACK
6
CONTINUOUS
10
49.7006299999999968
20
-8.031504
11
49.8911060000000006
21
-7.7457899999999995
0
LINE
8
BLACK
6
CONTINUOUS
10
49.8911060000000006
20
-7.7457899999999995
11
49.9863439999999954
21
-7.5553140000000001
0
LINE
8
BLACK
6
CONTINUOUS
10
49.9863439999999954
20
-7.5553140000000001
11
50.0815819999999974
21
-7.2695999999999996
0
LINE
8
BLACK
6
CONTINUOUS
10
50.0815819999999974
20
-7.2695999999999996
11
50.1768199999999993
21
-6.7934089999999996
0
LINE
8
BLACK
6
CONTINUOUS
10
50.1768199999999993
20
-6.7934089999999996
11
50.1768199999999993
21
-6.4124569999999999
0
LINE
8
BLACK
6
CONTINUOUS
10
50.1768199999999993
20
-6.4124569999999999
11
50.0815819999999974
21
-5.9362659999999998
0
LINE
8
BLACK
6
CONTINUOUS
10
50.0815819999999974
20
-5.9362659999999998
11
49.9863439999999954
21
-5.6505519999999994
0
LINE
8
BLACK
6
CONTINUOUS
10
49.9863439999999954
20
-5.6505519999999994
11
49.8911060000000006
21
-5.4600759999999999
0
LINE
8
BLACK
6
CONTINUOUS
10
49.8911060000000006
20
-5.4600759999999999
11
49.7006299999999968
21
-5.1743609999999993
0
LINE
8
BLACK
6
CONTINUOUS
10
49.7006299999999968
20
-5.1743609999999993
11
49.6053919999999948
21
-5.0791230000000001
0
CIRCLE
8
BLACK
10
-0.425
20
-9.0899999999999999
40
0.375
0
LINE
8
BLACK
6
CONTINUOUS
10
2.93872
20
-8.0048379999999995
11
3.129197
21
-8.0048379999999995
0
LINE
8
BLACK
6
CONTINUOUS
10
3.129197
20
-8.0048379999999995
11
3.3196729999999999
21
-8.1000759999999996
0
LINE
8
BLACK
6
CONTINUOUS
10
3.3196729999999999
20
-8.1000759999999996
11
3.414911
21
-8.1953139999999998
0
LINE
8
BLACK
6
CONTINUOUS
10
3.414911
20
-8.1953139999999998
11
3.5101489999999997
21
-8.3857900000000001
0
LINE
8
BLACK
6
CONTINUOUS
10
3.5101489999999997
20
-8.3857900000000001
11
3.6053869999999999
21
-8.7667419999999989
0
LINE
8
BLACK
6
CONTINUOUS
10
3.6053869999999999
20
-8.7667419999999989
11
3.6053869999999999
21
-9.242932999999999
0
LINE
8
BLACK
6
CONTINUOUS
10
3.6053869999999999
20
-9.242932999999999
11
3.5101489999999997
21
-9.6238849999999996
0
LINE
8
BLACK
6
CONTINUOUS
10
3.5101489999999997
20
-9.6238849999999996
11
3.414911
21
-9.8143609999999999
0
LINE
8
BLACK
6
CONTINUOUS
10
3.414911
20
-9.8143609999999999
11
3.3196729999999999
21
-9.9095999999999993
0
LINE
8
BLACK
6
CONTINUOUS
10
3.3196729999999999
20
-9.9095999999999993
11
3.129197
21
-10.0048379999999995
0
LINE
8
BLACK
6
CONTINUOUS
10
3.129197
20
-10.0048379999999995
11
2.93872
21
-10.0048379999999995
0
LINE
8
BLACK
6
CONTINUOUS
10
2.93872
20
-10.0048379999999995
11
2.7482439999999997
21
-9.9095999999999993
0
LINE
8
BLACK
6
CONTINUOUS
10
2.7482439999999997
20
-9.9095999999999993
11
2.653006
21
-9.8143609999999999
0
LINE
8
BLACK
6
CONTINUOUS
10
2.653006
20
-9.8143609999999999
11
2.5577679999999998
21
-9.6238849999999996
0
LINE
8
BLACK
6
CONTINUOUS
10
2.5577679999999998
20
-9.6238849999999996
11
2.4625300000000001
21
-9.242932999999999
0
LINE
8
BLACK
6
CONTINUOUS
10
2.4625300000000001
20
-9.242932999999999
11
2.4625300000000001
21
-8.7667419999999989
0
LINE
8
BLACK
6
CONTINUOUS
10
2.4625300000000001
20
-8.7667419999999989
11
2.5577679999999998
21
-8.3857900000000001
0
LINE
8
BLACK
6
CONTINUOUS
10
2.5577679999999998
20
-8.3857900000000001
11
2.653006
21
-8.1953139999999998
0
LINE
8
BLACK
6
CONTINUOUS
10
2.653006
20
-8.1953139999999998
11
2.7482439999999997
21
-8.1000759999999996
0
LINE
8
BLACK
6
CONTINUOUS
10
2.7482439999999997
20
-8.1000759999999996
11
2.93872
21
-8.0048379999999995
0
LINE
8
BLACK
6
CONTINUOUS
10
4.4625300000000001
20
-9.8143609999999999
11
4.5577679999999994
21
-9.9095999999999993
0
LINE
8
BLACK
6
CONTINUOUS
10
4.5577679999999994
20
-9.9095999999999993
11
4.4625300000000001
21
-10.0048379999999995
0
LINE
8
BLACK
6
CONTINUOUS
10
4.4625300000000001
20
-10.0048379999999995
11
4.367292
21
-9.9095999999999993
0
LINE
8
BLACK
6
CONTINUOUS
10
4.367292
20
-9.9095999999999993
11
4.4625300000000001
21
-9.8143609999999999
0
LINE
8
BLACK
6
CONTINUOUS
10
4.4625300000000001
20
-9.8143609999999999
11
4.4625300000000001
21
-10.0048379999999995
0
LINE
8
BLACK
6
CONTINUOUS
10
5.2244349999999997
20
-8.0048379999999995
11
6.5577679999999994
21
-8.0048379999999995
0
LINE
8
BLACK
6
CONTINUOUS
10
6.5577679999999994
20
-8.0048379999999995
11
5.7006249999999996
21
-10.0048379999999995
0
LINE
8
BLACK
6
CONTINUOUS
10
8.2720539999999989
20
-8.0048379999999995
11
7.3196729999999999
21
-8.0048379999999995
0
LINE
8
BLACK
6
CONTINUOUS
10
7.3196729999999999
20
-8.0048379999999995
11
7.2244349999999997
21
-8.9572190000000003
0
LINE
8
BLACK
6
CONTINUOUS
10
7.2244349999999997
20
-8.9572190000000003
11
7.3196729999999999
21
-8.8619799999999991
0
LINE
8
BLACK
6
CONTINUOUS
10
7.3196729999999999
20
-8.8619799999999991
11
7.5101489999999993
21
-8.7667419999999989
0
LINE
8
BLACK
6
CONTINUOUS
10
7.5101489999999993
20
-8.7667419999999989
11
7.9863399999999993
21
-8.7667419999999989
0
LINE
8
BLACK
6
CONTINUOUS
10
7.9863399999999993
20
-8.7667419999999989
11
8.1768159999999988
21
-8.8619799999999991
0
LINE
8
BLACK
6
CONTINUOUS
10
8.1768159999999988
20
-8.8619799999999991
11
8.2720539999999989
21
-8.9572190000000003
0
LINE
8
BLACK
6
CONTINUOUS
10
8.2720539999999989
20
-8.9572190000000003
11
8.3672919999999991
21
-9.1476949999999988
0
LINE
8
BLACK
6
CONTINUOUS
10
8.3672919999999991
20
-9.1476949999999988
11
8.3672919999999991
21
-9.6238849999999996
0
LINE
8
BLACK
6
CONTINUOUS
10
8.3672919999999991
20
-9.6238849999999996
11
8.2720539999999989
21
-9.8143609999999999
0
LINE
8
BLACK
6
CONTINUOUS
10
8.2720539999999989
20
-9.8143609999999999
11
8.1768159999999988
21
-9.9095999999999993
0
LINE
8
BLACK
6
CONTINUOUS
10
8.1768159999999988
20
-9.9095999999999993
11
7.9863399999999993
21
-10.0048379999999995
0
LINE
8
BLACK
6
CONTINUOUS
10
7.9863399999999993
20
-10.0048379999999995
11
7.5101489999999993
21
-10.0048379999999995
0
LINE
8
BLACK
6
CONTINUOUS
10
7.5101489999999993
20
-10.0048379999999995
11
7.3196729999999999
21
-9.9095999999999993
0
LINE
8
BLACK
6
CONTINUOUS
10
7.3196729999999999
20
-9.9095999999999993
11
7.2244349999999997
21
-9.8143609999999999
0
LINE
8
BLACK
6
CONTINUOUS
10
9.6053870000000003
20
-8.0048379999999995
11
9.7958639999999999
21
-8.0048379999999995
0
LINE
8
BLACK
6
CONTINUOUS
10
9.7958639999999999
20
-8.0048379999999995
11
9.9863400000000002
21
-8.1000759999999996
0
LINE
8
BLACK
6
CONTINUOUS
10
9.9863400000000002
20
-8.1000759999999996
11
10.0815780000000004
21
-8.1953139999999998
0
LINE
8
BLACK
6
CONTINUOUS
10
10.0815780000000004
20
-8.1953139999999998
11
10.1768159999999988
21
-8.3857900000000001
0
LINE
8
BLACK
6
CONTINUOUS
10
10.1768159999999988
20
-8.3857900000000001
11
10.2720539999999989
21
-8.7667419999999989
0
LINE
8
BLACK
6
CONTINUOUS
10
10.2720539999999989
20
-8.7667419999999989
11
10.2720539999999989
21
-9.242932999999999
0
LINE
8
BLACK
6
CONTINUOUS
10
10.2720539999999989
20
-9.242932999999999
11
10.1768159999999988
21
-9.6238849999999996
0
LINE
8
BLACK
6
CONTINUOUS
10
10.1768159999999988
20
-9.6238849999999996
11
10.0815780000000004
21
-9.8143609999999999
0
LINE
8
BLACK
6
CONTINUOUS
10
10.0815780000000004
20
-9.8143609999999999
11
9.9863400000000002
21
-9.9095999999999993
0
LINE
8
BLACK
6
CONTINUOUS
10
9.9863400000000002
20
-9.9095999999999993
11
9.7958639999999999
21
-10.0048379999999995
0
LINE
8
BLACK
6
CONTINUOUS
10
9.7958639999999999
20
-10.0048379999999995
11
9.6053870000000003
21
-10.0048379999999995
0
LINE
8
BLACK
6
CONTINUOUS
10
9.6053870000000003
20
-10.0048379999999995
11
9.414911
21
-9.9095999999999993
0
LINE
8
BLACK
6
CONTINUOUS
10
9.414911
20
-9.9095999999999993
11
9.3196729999999999
21
-9.8143609999999999
0
LINE
8
BLACK
6
CONTINUOUS
10
9.3196729999999999
20
-9.8143609999999999
11
9.2244349999999997
21
-9.6238849999999996
0
LINE
8
BLACK
6
CONTINUOUS
10
9.2244349999999997
20
-9.6238849999999996
11
9.1291969999999996
21
-9.242932999999999
0
LINE
8
BLACK
6
CONTINUOUS
10
9.1291969999999996
20
-9.242932999999999
11
9.1291969999999996
21
-8.7667419999999989
0
LINE
8
BLACK
6
CONTINUOUS
10
9.1291969999999996
20
-8.7667419999999989
11
9.2244349999999997
21
-8.3857900000000001
0
LINE
8
BLACK
6
CONTINUOUS
10
9.2244349999999997
20
-8.3857900000000001
11
9.3196729999999999
21
-8.1953139999999998
0
LINE
8
BLACK
6
CONTINUOUS
10
9.3196729999999999
20
-8.1953139999999998
11
9.414911
21
-8.1000759999999996
0
LINE
8
BLACK
6
CONTINUOUS
10
9.414911
20
-8.1000759999999996
11
9.6053870000000003
21
-8.0048379999999995
0
LINE
8
BLACK
6
CONTINUOUS
10
11.1291969999999996
20
-10.0048379999999995
11
11.1291969999999996
21
-8.6715039999999988
0
LINE
8
BLACK
6
CONTINUOUS
10
11.1291969999999996
20
-8.8619799999999991
11
11.2244349999999997
21
-8.7667419999999989
0
LINE
8
BLACK
6
CONTINUOUS
10
11.2244349999999997
20
-8.7667419999999989
11
11.414911
21
-8.6715039999999988
0
LINE
8
BLACK
6
CONTINUOUS
10
11.414911
20
-8.6715039999999988
11
11.7006259999999997
21
-8.6715039999999988
0
LINE
8
BLACK
6
CONTINUOUS
10
11.7006259999999997
20
-8.6715039999999988
11
11.8911020000000001
21
-8.7667419999999989
0
LINE
8
BLACK
6
CONTINUOUS
10
11.8911020000000001
20
-8.7667419999999989
11
11.9863400000000002
21
-8.9572190000000003
0
LINE
8
BLACK
6
CONTINUOUS
10
11.9863400000000002
20
-8.9572190000000003
11
11.9863400000000002
21
-10.0048379999999995
0
LINE
8
BLACK
6
CONTINUOUS
10
11.9863400000000002
20
-8.9572190000000003
11
12.0815779999999986
21
-8.7667419999999989
0
LINE
8
BLACK
6
CONTINUOUS
10
12.0815779999999986
20
-8.7667419999999989
11
12.2720539999999989
21
-8.6715039999999988
0
LINE
8
BLACK
6
CONTINUOUS
10
12.2720539999999989
20
-8.6715039999999988
11
12.5577679999999994
21
-8.6715039999999988
0
LINE
8
BLACK
6
CONTINUOUS
10
12.5577679999999994
20
-8.6715039999999988
11
12.7482449999999989
21
-8.7667419999999989
0
LINE
8
BLACK
6
CONTINUOUS
10
12.7482449999999989
20
-8.7667419999999989
11
12.8434829999999991
21
-8.9572190000000003
0
LINE
8
BLACK
6
CONTINUOUS
10
12.8434829999999991
20
-8.9572190000000003
11
12.8434829999999991
21
-10.0048379999999995
0
LINE
8
BLACK
6
CONTINUOUS
10
13.7958639999999999
20
-10.0048379999999995
11
13.7958639999999999
21
-8.6715039999999988
0
LINE
8
BLACK
6
CONTINUOUS
10
13.7958639999999999
20
-8.8619799999999991
11
13.8911020000000001
21
-8.7667419999999989
0
LINE
8
BLACK
6
CONTINUOUS
10
13.8911020000000001
20
-8.7667419999999989
11
14.0815779999999986
21
-8.6715039999999988
0
LINE
8
BLACK
6
CONTINUOUS
10
14.0815779999999986
20
-8.6715039999999988
11
14.3672930000000001
21
-8.6715039999999988
0
LINE
8
BLACK
6
CONTINUOUS
10
14.3672930000000001
20
-8.6715039999999988
11
14.5577689999999986
21
-8.7667419999999989
0
LINE
8
BLACK
6
CONTINUOUS
10
14.5577689999999986
20
-8.7667419999999989
11
14.6530069999999988
21
-8.9572190000000003
0
LINE
8
BLACK
6
CONTINUOUS
10
14.6530069999999988
20
-8.9572190000000003
11
14.6530069999999988
21
-10.0048379999999995
0
LINE
8
BLACK
6
CONTINUOUS
10
14.6530069999999988
20
-8.9572190000000003
11
14.7482449999999989
21
-8.7667419999999989
0
LINE
8
BLACK
6
CONTINUOUS
10
14.7482449999999989
20
-8.7667419999999989
11
14.9387209999999993
21
-8.6715039999999988
0
LINE
8
BLACK
6
CONTINUOUS
10
14.9387209999999993
20
-8.6715039999999988
11
15.2244349999999997
21
-8.6715039999999988
0
LINE
8
BLACK
6
CONTINUOUS
10
15.2244349999999997
20
-8.6715039999999988
11
15.4149119999999993
21
-8.7667419999999989
0
LINE
8
BLACK
6
CONTINUOUS
10
15.4149119999999993
20
-8.7667419999999989
11
15.5101499999999994
21
-8.9572190000000003
0
LINE
8
BLACK
6
CONTINUOUS
10
15.5101499999999994
20
-8.9572190000000003
11
15.5101499999999994
21
-10.0048379999999995
0
LINE
8
BLACK
6
CONTINUOUS
10
19.4149119999999975
20
-7.9095999999999993
11
17.7006270000000008
21
-10.4810280000000002
0
LINE
8
BLACK
6
CONTINUOUS
10
21.9863409999999995
20
-8.0048379999999995
11
22.1768179999999973
21
-8.0048379999999995
0
LINE
8
BLACK
6
CONTINUOUS
10
22.1768179999999973
20
-8.0048379999999995
11
22.3672939999999976
21
-8.1000759999999996
0
LINE
8
BLACK
6
CONTINUOUS
10
22.3672939999999976
20
-8.1000759999999996
11
22.4625319999999995
21
-8.1953139999999998
0
LINE
8
BLACK
6
CONTINUOUS
10
22.4625319999999995
20
-8.1953139999999998
11
22.5577699999999979
21
-8.3857900000000001
0
LINE
8
BLACK
6
CONTINUOUS
10
22.5577699999999979
20
-8.3857900000000001
11
22.6530079999999998
21
-8.7667419999999989
0
LINE
8
BLACK
6
CONTINUOUS
10
22.6530079999999998
20
-8.7667419999999989
11
22.6530079999999998
21
-9.242932999999999
0
LINE
8
BLACK
6
CONTINUOUS
10
22.6530079999999998
20
-9.242932999999999
11
22.5577699999999979
21
-9.6238849999999996
0
LINE
8
BLACK
6
CONTINUOUS
10
22.5577699999999979
20
-9.6238849999999996
11
22.4625319999999995
21
-9.8143609999999999
0
LINE
8
BLACK
6
CONTINUOUS
10
22.4625319999999995
20
-9.8143609999999999
11
22.3672939999999976
21
-9.9095999999999993
0
LINE
8
BLACK
6
CONTINUOUS
10
22.3672939999999976
20
-9.9095999999999993
11
22.1768179999999973
21
-10.0048379999999995
0
LINE
8
BLACK
6
CONTINUOUS
10
22.1768179999999973
20
-10.0048379999999995
11
21.9863409999999995
21
-10.0048379999999995
0
LINE
8
BLACK
6
CONTINUOUS
10
21.9863409999999995
20
-10.0048379999999995
11
21.7958649999999992
21
-9.9095999999999993
0
LINE
8
BLACK
6
CONTINUOUS
10
21.7958649999999992
20
-9.9095999999999993
11
21.7006270000000008
21
-9.8143609999999999
0
LINE
8
BLACK
6
CONTINUOUS
10
21.7006270000000008
20
-9.8143609999999999
11
21.6053889999999988
21
-9.6238849999999996
0
LINE
8
BLACK
6
CONTINUOUS
10
21.6053889999999988
20
-9.6238849999999996
11
21.5101510000000005
21
-9.242932999999999
0
LINE
8
BLACK
6
CONTINUOUS
10
21.5101510000000005
20
-9.242932999999999
11
21.5101510000000005
21
-8.7667419999999989
0
LINE
8
BLACK
6
CONTINUOUS
10
21.5101510000000005
20
-8.7667419999999989
11
21.6053889999999988
21
-8.3857900000000001
0
LINE
8
BLACK
6
CONTINUOUS
10
21.6053889999999988
20
-8.3857900000000001
11
21.7006270000000008
21
-8.1953139999999998
0
LINE
8
BLACK
6
CONTINUOUS
10
21.7006270000000008
20
-8.1953139999999998
11
21.7958649999999992
21
-8.1000759999999996
0
LINE
8
BLACK
6
CONTINUOUS
10
21.7958649999999992
20
-8.1000759999999996
11
21.9863409999999995
21
-8.0048379999999995
0
LINE
8
BLACK
6
CONTINUOUS
10
23.5101510000000005
20
-9.8143609999999999
11
23.6053889999999988
21
-9.9095999999999993
0
LINE
8
BLACK
6
CONTINUOUS
10
23.6053889999999988
20
-9.9095999999999993
11
23.5101510000000005
21
-10.0048379999999995
0
LINE
8
BLACK
6
CONTINUOUS
10
23.5101510000000005
20
-10.0048379999999995
11
23.4149129999999985
21
-9.9095999999999993
0
LINE
8
BLACK
6
CONTINUOUS
10
23.4149129999999985
20
-9.9095999999999993
11
23.5101510000000005
21
-9.8143609999999999
0
LINE
8
BLACK
6
CONTINUOUS
10
23.5101510000000005
20
-9.8143609999999999
11
23.5101510000000005
21
-10.0048379999999995
0
LINE
8
BLACK
6
CONTINUOUS
10
24.8434840000000001
20
-8.0048379999999995
11
25.0339609999999979
21
-8.0048379999999995
0
LINE
8
BLACK
6
CONTINUOUS
10
25.0339609999999979
20
-8.0048379999999995
11
25.2244369999999982
21
-8.1000759999999996
0
LINE
8
BLACK
6
CONTINUOUS
10
25.2244369999999982
20
-8.1000759999999996
11
25.3196750000000002
21
-8.1953139999999998
0
LINE
8
BLACK
6
CONTINUOUS
10
25.3196750000000002
20
-8.1953139999999998
11
25.4149129999999985
21
-8.3857900000000001
0
LINE
8
BLACK
6
CONTINUOUS
10
25.4149129999999985
20
-8.3857900000000001
11
25.5101510000000005
21
-8.7667419999999989
0
LINE
8
BLACK
6
CONTINUOUS
10
25.5101510000000005
20
-8.7667419999999989
11
25.5101510000000005
21
-9.242932999999999
0
LINE
8
BLACK
6
CONTINUOUS
10
25.5101510000000005
20
-9.242932999999999
11
25.4149129999999985
21
-9.6238849999999996
0
LINE
8
BLACK
6
CONTINUOUS
10
25.4149129999999985
20
-9.6238849999999996
11
25.3196750000000002
21
-9.8143609999999999
0
LINE
8
BLACK
6
CONTINUOUS
10
25.3196750000000002
20
-9.8143609999999999
11
25.2244369999999982
21
-9.9095999999999993
0
LINE
8
BLACK
6
CONTINUOUS
10
25.2244369999999982
20
-9.9095999999999993
11
25.0339609999999979
21
-10.0048379999999995
0
LINE
8
BLACK
6
CONTINUOUS
10
25.0339609999999979
20
-10.0048379999999995
11
24.8434840000000001
21
-10.0048379999999995
0
LINE
8
BLACK
6
CONTINUOUS
10
24.8434840000000001
20
-10.0048379999999995
11
24.6530079999999998
21
-9.9095999999999993
0
LINE
8
BLACK
6
CONTINUOUS
10
24.6530079999999998
20
-9.9095999999999993
11
24.5577699999999979
21
-9.8143609999999999
0
LINE
8
BLACK
6
CONTINUOUS
10
24.5577699999999979
20
-9.8143609999999999
11
24.4625319999999995
21
-9.6238849999999996
0
LINE
8
BLACK
6
CONTINUOUS
10
24.4625319999999995
20
-9.6238849999999996
11
24.3672939999999976
21
-9.242932999999999
0
LINE
8
BLACK
6
CONTINUOUS
10
24.3672939999999976
20
-9.242932999999999
11
24.3672939999999976
21
-8.7667419999999989
0
LINE
8
BLACK
6
CONTINUOUS
10
24.3672939999999976
20
-8.7667419999999989
11
24.4625319999999995
21
-8.3857900000000001
0
LINE
8
BLACK
6
CONTINUOUS
10
24.4625319999999995
20
-8.3857900000000001
11
24.5577699999999979
21
-8.1953139999999998
0
LINE
8
BLACK
6
CONTINUOUS
10
24.5577699999999979
20
-8.1953139999999998
11
24.6530079999999998
21
-8.1000759999999996
0
LINE
8
BLACK
6
CONTINUOUS
10
24.6530079999999998
20
-8.1000759999999996
11
24.8434840000000001
21
-8.0048379999999995
0
LINE
8
BLACK
6
CONTINUOUS
10
26.2720559999999992
20
-8.1953139999999998
11
26.3672939999999976
21
-8.1000759999999996
0
LINE
8
BLACK
6
CONTINUOUS
10
26.3672939999999976
20
-8.1000759999999996
11
26.5577699999999979
21
-8.0048379999999995
0
LINE
8
BLACK
6
CONTINUOUS
10
26.5577699999999979
20
-8.0048379999999995
11
27.0339609999999979
21
-8.0048379999999995
0
LINE
8
BLACK
6
CONTINUOUS
10
27.0339609999999979
20
-8.0048379999999995
11
27.2244369999999982
21
-8.1000759999999996
0
LINE
8
BLACK
6
CONTINUOUS
10
27.2244369999999982
20
-8.1000759999999996
11
27.3196750000000002
21
-8.1953139999999998
0
LINE
8
BLACK
6
CONTINUOUS
10
27.3196750000000002
20
-8.1953139999999998
11
27.4149129999999985
21
-8.3857900000000001
0
LINE
8
BLACK
6
CONTINUOUS
10
27.4149129999999985
20
-8.3857900000000001
11
27.4149129999999985
21
-8.5762660000000004
0
LINE
8
BLACK
6
CONTINUOUS
10
27.4149129999999985
20
-8.5762660000000004
11
27.3196750000000002
21
-8.8619799999999991
0
LINE
8
BLACK
6
CONTINUOUS
10
27.3196750000000002
20
-8.8619799999999991
11
26.1768179999999973
21
-10.0048379999999995
0
LINE
8
BLACK
6
CONTINUOUS
10
26.1768179999999973
20
-10.0048379999999995
11
27.4149129999999985
21
-10.0048379999999995
0
LINE
8
BLACK
6
CONTINUOUS
10
28.3672939999999976
20
-10.0048379999999995
11
28.7482459999999982
21
-10.0048379999999995
0
LINE
8
BLACK
6
CONTINUOUS
10
28.7482459999999982
20
-10.0048379999999995
11
28.9387229999999995
21
-9.9095999999999993
0
LINE
8
BLACK
6
CONTINUOUS
10
28.9387229999999995
20
-9.9095999999999993
11
29.0339609999999979
21
-9.8143609999999999
0
LINE
8
BLACK
6
CONTINUOUS
10
29.0339609999999979
20
-9.8143609999999999
11
29.2244369999999982
21
-9.5286469999999994
0
LINE
8
BLACK
6
CONTINUOUS
10
29.2244369999999982
20
-9.5286469999999994
11
29.3196750000000002
21
-9.1476949999999988
0
LINE
8
BLACK
6
CONTINUOUS
10
29.3196750000000002
20
-9.1476949999999988
11
29.3196750000000002
21
-8.3857900000000001
0
LINE
8
BLACK
6
CONTINUOUS
10
29.3196750000000002
20
-8.3857900000000001
11
29.2244369999999982
21
-8.1953139999999998
0
LINE
8
BLACK
6
CONTINUOUS
10
29.2244369999999982
20
-8.1953139999999998
11
29.1291989999999998
21
-8.1000759999999996
0
LINE
8
BLACK
6
CONTINUOUS
10
29.1291989999999998
20
-8.1000759999999996
11
28.9387229999999995
21
-8.0048379999999995
0
LINE
8
BLACK
6
CONTINUOUS
10
28.9387229999999995
20
-8.0048379999999995
11
28.5577699999999979
21
-8.0048379999999995
0
LINE
8
BLACK
6
CONTINUOUS
10
28.5577699999999979
20
-8.0048379999999995
11
28.3672939999999976
21
-8.1000759999999996
0
LINE
8
BLACK
6
CONTINUOUS
10
28.3672939999999976
20
-8.1000759999999996
11
28.2720559999999992
21
-8.1953139999999998
0
LINE
8
BLACK
6
CONTINUOUS
10
28.2720559999999992
20
-8.1953139999999998
11
28.1768179999999973
21
-8.3857900000000001
0
LINE
8
BLACK
6
CONTINUOUS
10
28.1768179999999973
20
-8.3857900000000001
11
28.1768179999999973
21
-8.8619799999999991
0
LINE
8
BLACK
6
CONTINUOUS
10
28.1768179999999973
20
-8.8619799999999991
11
28.2720559999999992
21
-9.0524570000000004
0
LINE
8
BLACK
6
CONTINUOUS
10
28.2720559999999992
20
-9.0524570000000004
11
28.3672939999999976
21
-9.1476949999999988
0
LINE
8
BLACK
6
CONTINUOUS
10
28.3672939999999976
20
-9.1476949999999988
11
28.5577699999999979
21
-9.242932999999999
0
LINE
8
BLACK
6
CONTINUOUS
10
28.5577699999999979
20
-9.242932999999999
11
28.9387229999999995
21
-9.242932999999999
0
LINE
8
BLACK
6
CONTINUOUS
10
28.9387229999999995
20
-9.242932999999999
11
29.1291989999999998
21
-9.1476949999999988
0
LINE
8
BLACK
6
CONTINUOUS
10
29.1291989999999998
20
-9.1476949999999988
11
29.2244369999999982
21
-9.0524570000000004
0
LINE
8
BLACK
6
CONTINUOUS
10
29.2244369999999982
20
-9.0524570000000004
11
29.3196750000000002
21
-8.8619799999999991
0
LINE
8
BLACK
6
CONTINUOUS
10
31.1291989999999998
20
-8.0048379999999995
11
30.1768179999999973
21
-8.0048379999999995
0
LINE
8
BLACK
6
CONTINUOUS
10
30.1768179999999973
20
-8.0048379999999995
11
30.0815799999999989
21
-8.9572190000000003
0
LINE
8
BLACK
6
CONTINUOUS
10
30.0815799999999989
20
-8.9572190000000003
11
30.1768179999999973
21
-8.8619799999999991
0
LINE
8
BLACK
6
CONTINUOUS
10
30.1768179999999973
20
-8.8619799999999991
11
30.3672939999999976
21
-8.7667419999999989
0
LINE
8
BLACK
6
CONTINUOUS
10
30.3672939999999976
20
-8.7667419999999989
11
30.8434849999999976
21
-8.7667419999999989
0
LINE
8
BLACK
6
CONTINUOUS
10
30.8434849999999976
20
-8.7667419999999989
11
31.0339609999999979
21
-8.8619799999999991
0
LINE
8
BLACK
6
CONTINUOUS
10
31.0339609999999979
20
-8.8619799999999991
11
31.1291989999999998
21
-8.9572190000000003
0
LINE
8
BLACK
6
CONTINUOUS
10
31.1291989999999998
20
-8.9572190000000003
11
31.2244369999999982
21
-9.1476949999999988
0
LINE
8
BLACK
6
CONTINUOUS
10
31.2244369999999982
20
-9.1476949999999988
11
31.2244369999999982
21
-9.6238849999999996
0
LINE
8
BLACK
6
CONTINUOUS
10
31.2244369999999982
20
-9.6238849999999996
11
31.1291989999999998
21
-9.8143609999999999
0
LINE
8
BLACK
6
CONTINUOUS
10
31.1291989999999998
20
-9.8143609999999999
11
31.0339609999999979
21
-9.9095999999999993
0
LINE
8
BLACK
6
CONTINUOUS
10
31.0339609999999979
20
-9.9095999999999993
11
30.8434849999999976
21
-10.0048379999999995
0
LINE
8
BLACK
6
CONTINUOUS
10
30.8434849999999976
20
-10.0048379999999995
11
30.3672939999999976
21
-10.0048379999999995
0
LINE
8
BLACK
6
CONTINUOUS
10
30.3672939999999976
20
-10.0048379999999995
11
30.1768179999999973
21
-9.9095999999999993
0
LINE
8
BLACK
6
CONTINUOUS
10
30.1768179999999973
20
-9.9095999999999993
11
30.0815799999999989
21
-9.8143609999999999
0
LINE
8
BLACK
6
CONTINUOUS
10
31.9863419999999969
20
-8.0048379999999995
11
31.9863419999999969
21
-8.3857900000000001
0
LINE
8
BLACK
6
CONTINUOUS
10
32.7482469999999992
20
-8.0048379999999995
11
32.7482469999999992
21
-8.3857900000000001
0
LINE
8
BLACK
6
CONTINUOUS
10
35.7006289999999993
20
-10.7667419999999989
11
35.6053899999999999
21
-10.6715039999999988
0
LINE
8
BLACK
6
CONTINUOUS
10
35.6053899999999999
20
-10.6715039999999988
11
35.414913999999996
21
-10.3857900000000001
0
LINE
8
BLACK
6
CONTINUOUS
10
35.414913999999996
20
-10.3857900000000001
11
35.3196760000000012
21
-10.1953139999999998
0
LINE
8
BLACK
6
CONTINUOUS
10
35.3196760000000012
20
-10.1953139999999998
11
35.2244379999999992
21
-9.9095999999999993
0
LINE
8
BLACK
6
CONTINUOUS
10
35.2244379999999992
20
-9.9095999999999993
11
35.1291999999999973
21
-9.4334089999999993
0
LINE
8
BLACK
6
CONTINUOUS
10
35.1291999999999973
20
-9.4334089999999993
11
35.1291999999999973
21
-9.0524570000000004
0
LINE
8
BLACK
6
CONTINUOUS
10
35.1291999999999973
20
-9.0524570000000004
11
35.2244379999999992
21
-8.5762660000000004
0
LINE
8
BLACK
6
CONTINUOUS
10
35.2244379999999992
20
-8.5762660000000004
11
35.3196760000000012
21
-8.2905519999999999
0
LINE
8
BLACK
6
CONTINUOUS
10
35.3196760000000012
20
-8.2905519999999999
11
35.414913999999996
21
-8.1000759999999996
0
LINE
8
BLACK
6
CONTINUOUS
10
35.414913999999996
20
-8.1000759999999996
11
35.6053899999999999
21
-7.8143609999999999
0
LINE
8
BLACK
6
CONTINUOUS
10
35.6053899999999999
20
-7.8143609999999999
11
35.7006289999999993
21
-7.7191229999999997
0
LINE
8
BLACK
6
CONTINUOUS
10
36.3672949999999986
20
-8.1953139999999998
11
36.4625330000000005
21
-8.1000759999999996
0
LINE
8
BLACK
6
CONTINUOUS
10
36.4625330000000005
20
-8.1000759999999996
11
36.6530089999999973
21
-8.0048379999999995
0
LINE
8
BLACK
6
CONTINUOUS
10
36.6530089999999973
20
-8.0048379999999995
11
37.1291999999999973
21
-8.0048379999999995
0
LINE
8
BLACK
6
CONTINUOUS
10
37.1291999999999973
20
-8.0048379999999995
11
37.3196760000000012
21
-8.1000759999999996
0
LINE
8
BLACK
6
CONTINUOUS
10
37.3196760000000012
20
-8.1000759999999996
11
37.414913999999996
21
-8.1953139999999998
0
LINE
8
BLACK
6
CONTINUOUS
10
37.414913999999996
20
-8.1953139999999998
11
37.5101519999999979
21
-8.3857900000000001
0
LINE
8
BLACK
6
CONTINUOUS
10
37.5101519999999979
20
-8.3857900000000001
11
37.5101519999999979
21
-8.5762660000000004
0
LINE
8
BLACK
6
CONTINUOUS
10
37.5101519999999979
20
-8.5762660000000004
11
37.414913999999996
21
-8.8619799999999991
0
LINE
8
BLACK
6
CONTINUOUS
10
37.414913999999996
20
-8.8619799999999991
11
36.2720569999999967
21
-10.0048379999999995
0
LINE
8
BLACK
6
CONTINUOUS
10
36.2720569999999967
20
-10.0048379999999995
11
37.5101519999999979
21
-10.0048379999999995
0
LINE
8
BLACK
6
CONTINUOUS
10
39.891104999999996
20
-10.0048379999999995
11
39.891104999999996
21
-8.0048379999999995
0
LINE
8
BLACK
6
CONTINUOUS
10
40.7482479999999967
20
-10.0048379999999995
11
40.7482479999999967
21
-8.9572190000000003
0
LINE
8
BLACK
6
CONTINUOUS
10
40.7482479999999967
20
-8.9572190000000003
11
40.6530099999999948
21
-8.7667419999999989
0
LINE
8
BLACK
6
CONTINUOUS
10
40.6530099999999948
20
-8.7667419999999989
11
40.462533999999998
21
-8.6715039999999988
0
LINE
8
BLACK
6
CONTINUOUS
10
40.462533999999998
20
-8.6715039999999988
11
40.1768189999999947
21
-8.6715039999999988
0
LINE
8
BLACK
6
CONTINUOUS
10
40.1768189999999947
20
-8.6715039999999988
11
39.986342999999998
21
-8.7667419999999989
0
LINE
8
BLACK
6
CONTINUOUS
10
39.986342999999998
20
-8.7667419999999989
11
39.891104999999996
21
-8.8619799999999991
0
LINE
8
BLACK
6
CONTINUOUS
10
41.986342999999998
20
-10.0048379999999995
11
41.7958670000000012
21
-9.9095999999999993
0
LINE
8
BLACK
6
CONTINUOUS
10
41.7958670000000012
20
-9.9095999999999993
11
41.7006289999999993
21
-9.8143609999999999
0
LINE
8
BLACK
6
CONTINUOUS
10
41.7006289999999993
20
-9.8143609999999999
11
41.6053909999999973
21
-9.6238849999999996
0
LINE
8
BLACK
6
CONTINUOUS
10
41.6053909999999973
20
-9.6238849999999996
11
41.6053909999999973
21
-9.0524570000000004
0
LINE
8
BLACK
6
CONTINUOUS
10
41.6053909999999973
20
-9.0524570000000004
11
41.7006289999999993
21
-8.8619799999999991
0
LINE
8
BLACK
6
CONTINUOUS
10
41.7006289999999993
20
-8.8619799999999991
11
41.7958670000000012
21
-8.7667419999999989
0
LINE
8
BLACK
6
CONTINUOUS
10
41.7958670000000012
20
-8.7667419999999989
11
41.986342999999998
21
-8.6715039999999988
0
LINE
8
BLACK
6
CONTINUOUS
10
41.986342999999998
20
-8.6715039999999988
11
42.2720580000000012
21
-8.6715039999999988
0
LINE
8
BLACK
6
CONTINUOUS
10
42.2720580000000012
20
-8.6715039999999988
11
42.462533999999998
21
-8.7667419999999989
0
LINE
8
BLACK
6
CONTINUOUS
10
42.462533999999998
20
-8.7667419999999989
11
42.5577719999999999
21
-8.8619799999999991
0
LINE
8
BLACK
6
CONTINUOUS
10
42.5577719999999999
20
-8.8619799999999991
11
42.6530099999999948
21
-9.0524570000000004
0
LINE
8
BLACK
6
CONTINUOUS
10
42.6530099999999948
20
-9.0524570000000004
11
42.6530099999999948
21
-9.6238849999999996
0
LINE
8
BLACK
6
CONTINUOUS
10
42.6530099999999948
20
-9.6238849999999996
11
42.5577719999999999
21
-9.8143609999999999
0
LINE
8
BLACK
6
CONTINUOUS
10
42.5577719999999999
20
-9.8143609999999999
11
42.462533999999998
21
-9.9095999999999993
0
LINE
8
BLACK
6
CONTINUOUS
10
42.462533999999998
20
-9.9095999999999993
11
42.2720580000000012
21
-10.0048379999999995
0
LINE
8
BLACK
6
CONTINUOUS
10
42.2720580000000012
20
-10.0048379999999995
11
41.986342999999998
21
-10.0048379999999995
0
LINE
8
BLACK
6
CONTINUOUS
10
43.7958670000000012
20
-10.0048379999999995
11
43.6053909999999973
21
-9.9095999999999993
0
LINE
8
BLACK
6
CONTINUOUS
10
43.6053909999999973
20
-9.9095999999999993
11
43.5101529999999954
21
-9.7191229999999997
0
LINE
8
BLACK
6
CONTINUOUS
10
43.5101529999999954
20
-9.7191229999999997
11
43.5101529999999954
21
-8.0048379999999995
0
LINE
8
BLACK
6
CONTINUOUS
10
45.3196769999999987
20
-9.9095999999999993
11
45.1292009999999948
21
-10.0048379999999995
0
LINE
8
BLACK
6
CONTINUOUS
10
45.1292009999999948
20
-10.0048379999999995
11
44.7482479999999967
21
-10.0048379999999995
0
LINE
8
BLACK
6
CONTINUOUS
10
44.7482479999999967
20
-10.0048379999999995
11
44.5577719999999999
21
-9.9095999999999993
0
LINE
8
BLACK
6
CONTINUOUS
10
44.5577719999999999
20
-9.9095999999999993
11
44.462533999999998
21
-9.7191229999999997
0
LINE
8
BLACK
6
CONTINUOUS
10
44.462533999999998
20
-9.7191229999999997
11
44.462533999999998
21
-8.9572190000000003
0
LINE
8
BLACK
6
CONTINUOUS
10
44.462533999999998
20
-8.9572190000000003
11
44.5577719999999999
21
-8.7667419999999989
0
LINE
8
BLACK
6
CONTINUOUS
10
44.5577719999999999
20
-8.7667419999999989
11
44.7482479999999967
21
-8.6715039999999988
0
LINE
8
BLACK
6
CONTINUOUS
10
44.7482479999999967
20
-8.6715039999999988
11
45.1292009999999948
21
-8.6715039999999988
0
LINE
8
BLACK
6
CONTINUOUS
10
45.1292009999999948
20
-8.6715039999999988
11
45.3196769999999987
21
-8.7667419999999989
0
LINE
8
BLACK
6
CONTINUOUS
10
45.3196769999999987
20
-8.7667419999999989
11
45.4149150000000006
21
-8.9572190000000003
0
LINE
8
BLACK
6
CONTINUOUS
10
45.4149150000000006
20
-8.9572190000000003
11
45.4149150000000006
21
-9.1476949999999988
0
LINE
8
BLACK
6
CONTINUOUS
10
45.4149150000000006
20
-9.1476949999999988
11
44.462533999999998
21
-9.3381709999999991
0
LINE
8
BLACK
6
CONTINUOUS
10
46.1768199999999993
20
-9.9095999999999993
11
46.3672959999999961
21
-10.0048379999999995
0
LINE
8
BLACK
6
CONTINUOUS
10
46.3672959999999961
20
-10.0048379999999995
11
46.7482479999999967
21
-10.0048379999999995
0
LINE
8
BLACK
6
CONTINUOUS
10
46.7482479999999967
20
-10.0048379999999995
11
46.938724999999998
21
-9.9095999999999993
0
LINE
8
BLACK
6
CONTINUOUS
10
46.938724999999998
20
-9.9095999999999993
11
47.033963
21
-9.7191229999999997
0
LINE
8
BLACK
6
CONTINUOUS
10
47.033963
20
-9.7191229999999997
11
47.033963
21
-9.6238849999999996
0
LINE
8
BLACK
6
CONTINUOUS
10
47.033963
20
-9.6238849999999996
11
46.938724999999998
21
-9.4334089999999993
0
LINE
8
BLACK
6
CONTINUOUS
10
46.938724999999998
20
-9.4334089999999993
11
46.7482479999999967
21
-9.3381709999999991
0
LINE
8
BLACK
6
CONTINUOUS
10
46.7482479999999967
20
-9.3381709999999991
11
46.462533999999998
21
-9.3381709999999991
0
LINE
8
BLACK
6
CONTINUOUS
10
46.462533999999998
20
-9.3381709999999991
11
46.2720580000000012
21
-9.242932999999999
0
LINE
8
BLACK
6
CONTINUOUS
10
46.2720580000000012
20
-9.242932999999999
11
46.1768199999999993
21
-9.0524570000000004
0
LINE
8
BLACK
6
CONTINUOUS
10
46.1768199999999993
20
-9.0524570000000004
11
46.1768199999999993
21
-8.9572190000000003
0
LINE
8
BLACK
6
CONTINUOUS
10
46.1768199999999993
20
-8.9572190000000003
11
46.2720580000000012
21
-8.7667419999999989
0
LINE
8
BLACK
6
CONTINUOUS
10
46.2720580000000012
20
-8.7667419999999989
11
46.462533999999998
21
-8.6715039999999988
0
LINE
8
BLACK
6
CONTINUOUS
10
46.462533999999998
20
-8.6715039999999988
11
46.7482479999999967
21
-8.6715039999999988
0
LINE
8
BLACK
6
CONTINUOUS
10
46.7482479999999967
20
-8.6715039999999988
11
46.938724999999998
21
-8.7667419999999989
0
LINE
8
BLACK
6
CONTINUOUS
10
47.7006299999999968
20
-10.7667419999999989
11
47.7958679999999987
21
-10.6715039999999988
0
LINE
8
BLACK
6
CONTINUOUS
10
47.7958679999999987
20
-10.6715039999999988
11
47.9863439999999954
21
-10.3857900000000001
0
LINE
8
BLACK
6
CONTINUOUS
10
47.9863439999999954
20
-10.3857900000000001
11
48.0815819999999974
21
-10.1953139999999998
0
LINE
8
BLACK
6
CONTINUOUS
10
48.0815819999999974
20
-10.1953139999999998
11
48.1768199999999993
21
-9.9095999999999993
0
LINE
8
BLACK
6
CONTINUOUS
10
48.1768199999999993
20
-9.9095999999999993
11
48.2720580000000012
21
-9.4334089999999993
0
LINE
8
BLACK
6
CONTINUOUS
10
48.2720580000000012
20
-9.4334089999999993
11
48.2720580000000012
21
-9.0524570000000004
0
LINE
8
BLACK
6
CONTINUOUS
10
48.2720580000000012
20
-9.0524570000000004
11
48.1768199999999993
21
-8.5762660000000004
0
LINE
8
BLACK
6
CONTINUOUS
10
48.1768199999999993
20
-8.5762660000000004
11
48.0815819999999974
21
-8.2905519999999999
0
LINE
8
BLACK
6
CONTINUOUS
10
48.0815819999999974
20
-8.2905519999999999
11
47.9863439999999954
21
-8.1000759999999996
0
LINE
8
BLACK
6
CONTINUOUS
10
47.9863439999999954
20
-8.1000759999999996
11
47.7958679999999987
21
-7.8143609999999999
0
LINE
8
BLACK
6
CONTINUOUS
10
47.7958679999999987
20
-7.8143609999999999
11
47.7006299999999968
21
-7.7191229999999997
0
LINE
8
BLACK
6
CONTINUOUS
10
-0.5499999999999999
20
-11.2299999999999986
11
-0.5499999999999999
21
-12.2299999999999986
0
LINE
8
BLACK
6
CONTINUOUS
10
-1.05
20
-11.7299999999999986
11
-0.05
21
-11.7299999999999986
0
LINE
8
BLACK
6
CONTINUOUS
10
3.6053869999999999
20
-12.644838
11
2.4625300000000001
21
-12.644838
0
LINE
8
BLACK
6
CONTINUOUS
10
3.0339579999999997
20
-12.644838
11
3.0339579999999997
21
-10.644838
0
LINE
8
BLACK
6
CONTINUOUS
10
3.0339579999999997
20
-10.644838
11
2.8434819999999998
21
-10.9305519999999987
0
LINE
8
BLACK
6
CONTINUOUS
10
2.8434819999999998
20
-10.9305519999999987
11
2.653006
21
-11.121027999999999
0
LINE
8
BLACK
6
CONTINUOUS
10
2.653006
20
-11.121027999999999
11
2.4625300000000001
21
-11.2162659999999992
0
LINE
8
BLACK
6
CONTINUOUS
10
4.4625300000000001
20
-12.4543609999999987
11
4.5577679999999994
21
-12.5495999999999999
0
LINE
8
BLACK
6
CONTINUOUS
10
4.5577679999999994
20
-12.5495999999999999
11
4.4625300000000001
21
-12.644838
0
LINE
8
BLACK
6
CONTINUOUS
10
4.4625300000000001
20
-12.644838
11
4.367292
21
-12.5495999999999999
0
LINE
8
BLACK
6
CONTINUOUS
10
4.367292
20
-12.5495999999999999
11
4.4625300000000001
21
-12.4543609999999987
0
LINE
8
BLACK
6
CONTINUOUS
10
4.4625300000000001
20
-12.4543609999999987
11
4.4625300000000001
21
-12.644838
0
LINE
8
BLACK
6
CONTINUOUS
10
5.7958629999999998
20
-10.644838
11
5.9863399999999993
21
-10.644838
0
LINE
8
BLACK
6
CONTINUOUS
10
5.9863399999999993
20
-10.644838
11
6.1768159999999996
21
-10.7400760000000002
0
LINE
8
BLACK
6
CONTINUOUS
10
6.1768159999999996
20
-10.7400760000000002
11
6.2720539999999998
21
-10.8353140000000003
0
LINE
8
BLACK
6
CONTINUOUS
10
6.2720539999999998
20
-10.8353140000000003
11
6.367292
21
-11.0257899999999989
0
LINE
8
BLACK
6
CONTINUOUS
10
6.367292
20
-11.0257899999999989
11
6.4625300000000001
21
-11.4067419999999995
0
LINE
8
BLACK
6
CONTINUOUS
10
6.4625300000000001
20
-11.4067419999999995
11
6.4625300000000001
21
-11.8829329999999995
0
LINE
8
BLACK
6
CONTINUOUS
10
6.4625300000000001
20
-11.8829329999999995
11
6.367292
21
-12.2638850000000001
0
LINE
8
BLACK
6
CONTINUOUS
10
6.367292
20
-12.2638850000000001
11
6.2720539999999998
21
-12.4543609999999987
0
LINE
8
BLACK
6
CONTINUOUS
10
6.2720539999999998
20
-12.4543609999999987
11
6.1768159999999996
21
-12.5495999999999999
0
LINE
8
BLACK
6
CONTINUOUS
10
6.1768159999999996
20
-12.5495999999999999
11
5.9863399999999993
21
-12.644838
0
LINE
8
BLACK
6
CONTINUOUS
10
5.9863399999999993
20
-12.644838
11
5.7958629999999998
21
-12.644838
0
LINE
8
BLACK
6
CONTINUOUS
10
5.7958629999999998
20
-12.644838
11
5.6053869999999995
21
-12.5495999999999999
0
LINE
8
BLACK
6
CONTINUOUS
10
5.6053869999999995
20
-12.5495999999999999
11
5.5101490000000002
21
-12.4543609999999987
0
LINE
8
BLACK
6
CONTINUOUS
10
5.5101490000000002
20
-12.4543609999999987
11
5.414911
21
-12.2638850000000001
0
LINE
8
BLACK
6
CONTINUOUS
10
5.414911
20
-12.2638850000000001
11
5.3196729999999999
21
-11.8829329999999995
0
LINE
8
BLACK
6
CONTINUOUS
10
5.3196729999999999
20
-11.8829329999999995
11
5.3196729999999999
21
-11.4067419999999995
0
LINE
8
BLACK
6
CONTINUOUS
10
5.3196729999999999
20
-11.4067419999999995
11
5.414911
21
-11.0257899999999989
0
LINE
8
BLACK
6
CONTINUOUS
10
5.414911
20
-11.0257899999999989
11
5.5101490000000002
21
-10.8353140000000003
0
LINE
8
BLACK
6
CONTINUOUS
10
5.5101490000000002
20
-10.8353140000000003
11
5.6053869999999995
21
-10.7400760000000002
0
LINE
8
BLACK
6
CONTINUOUS
10
5.6053869999999995
20
-10.7400760000000002
11
5.7958629999999998
21
-10.644838
0
LINE
8
BLACK
6
CONTINUOUS
10
7.7006249999999996
20
-10.644838
11
7.8911020000000001
21
-10.644838
0
LINE
8
BLACK
6
CONTINUOUS
10
7.8911020000000001
20
-10.644838
11
8.0815780000000004
21
-10.7400760000000002
0
LINE
8
BLACK
6
CONTINUOUS
10
8.0815780000000004
20
-10.7400760000000002
11
8.1768159999999988
21
-10.8353140000000003
0
LINE
8
BLACK
6
CONTINUOUS
10
8.1768159999999988
20
-10.8353140000000003
11
8.2720539999999989
21
-11.0257899999999989
0
LINE
8
BLACK
6
CONTINUOUS
10
8.2720539999999989
20
-11.0257899999999989
11
8.3672919999999991
21
-11.4067419999999995
0
LINE
8
BLACK
6
CONTINUOUS
10
8.3672919999999991
20
-11.4067419999999995
11
8.3672919999999991
21
-11.8829329999999995
0
LINE
8
BLACK
6
CONTINUOUS
10
8.3672919999999991
20
-11.8829329999999995
11
8.2720539999999989
21
-12.2638850000000001
0
LINE
8
BLACK
6
CONTINUOUS
10
8.2720539999999989
20
-12.2638850000000001
11
8.1768159999999988
21
-12.4543609999999987
0
LINE
8
BLACK
6
CONTINUOUS
10
8.1768159999999988
20
-12.4543609999999987
11
8.0815780000000004
21
-12.5495999999999999
0
LINE
8
BLACK
6
CONTINUOUS
10
8.0815780000000004
20
-12.5495999999999999
11
7.8911020000000001
21
-12.644838
0
LINE
8
BLACK
6
CONTINUOUS
10
7.8911020000000001
20
-12.644838
11
7.7006249999999996
21
-12.644838
0
LINE
8
BLACK
6
CONTINUOUS
10
7.7006249999999996
20
-12.644838
11
7.5101489999999993
21
-12.5495999999999999
0
LINE
8
BLACK
6
CONTINUOUS
10
7.5101489999999993
20
-12.5495999999999999
11
7.414911
21
-12.4543609999999987
0
LINE
8
BLACK
6
CONTINUOUS
10
7.414911
20
-12.4543609999999987
11
7.3196729999999999
21
-12.2638850000000001
0
LINE
8
BLACK
6
CONTINUOUS
10
7.3196729999999999
20
-12.2638850000000001
11
7.2244349999999997
21
-11.8829329999999995
0
LINE
8
BLACK
6
CONTINUOUS
10
7.2244349999999997
20
-11.8829329999999995
11
7.2244349999999997
21
-11.4067419999999995
0
LINE
8
BLACK
6
CONTINUOUS
10
7.2244349999999997
20
-11.4067419999999995
11
7.3196729999999999
21
-11.0257899999999989
0
LINE
8
BLACK
6
CONTINUOUS
10
7.3196729999999999
20
-11.0257899999999989
11
7.414911
21
-10.8353140000000003
0
LINE
8
BLACK
6
CONTINUOUS
10
7.414911
20
-10.8353140000000003
11
7.5101489999999993
21
-10.7400760000000002
0
LINE
8
BLACK
6
CONTINUOUS
10
7.5101489999999993
20
-10.7400760000000002
11
7.7006249999999996
21
-10.644838
0
LINE
8
BLACK
6
CONTINUOUS
10
9.6053870000000003
20
-10.644838
11
9.7958639999999999
21
-10.644838
0
LINE
8
BLACK
6
CONTINUOUS
10
9.7958639999999999
20
-10.644838
11
9.9863400000000002
21
-10.7400760000000002
0
LINE
8
BLACK
6
CONTINUOUS
10
9.9863400000000002
20
-10.7400760000000002
11
10.0815780000000004
21
-10.8353140000000003
0
LINE
8
BLACK
6
CONTINUOUS
10
10.0815780000000004
20
-10.8353140000000003
11
10.1768159999999988
21
-11.0257899999999989
0
LINE
8
BLACK
6
CONTINUOUS
10
10.1768159999999988
20
-11.0257899999999989
11
10.2720539999999989
21
-11.4067419999999995
0
LINE
8
BLACK
6
CONTINUOUS
10
10.2720539999999989
20
-11.4067419999999995
11
10.2720539999999989
21
-11.8829329999999995
0
LINE
8
BLACK
6
CONTINUOUS
10
10.2720539999999989
20
-11.8829329999999995
11
10.1768159999999988
21
-12.2638850000000001
0
LINE
8
BLACK
6
CONTINUOUS
10
10.1768159999999988
20
-12.2638850000000001
11
10.0815780000000004
21
-12.4543609999999987
0
LINE
8
BLACK
6
CONTINUOUS
10
10.0815780000000004
20
-12.4543609999999987
11
9.9863400000000002
21
-12.5495999999999999
0
LINE
8
BLACK
6
CONTINUOUS
10
9.9863400000000002
20
-12.5495999999999999
11
9.7958639999999999
21
-12.644838
0
LINE
8
BLACK
6
CONTINUOUS
10
9.7958639999999999
20
-12.644838
11
9.6053870000000003
21
-12.644838
0
LINE
8
BLACK
6
CONTINUOUS
10
9.6053870000000003
20
-12.644838
11
9.414911
21
-12.5495999999999999
0
LINE
8
BLACK
6
CONTINUOUS
10
9.414911
20
-12.5495999999999999
11
9.3196729999999999
21
-12.4543609999999987
0
LINE
8
BLACK
6
CONTINUOUS
10
9.3196729999999999
20
-12.4543609999999987
11
9.2244349999999997
21
-12.2638850000000001
0
LINE
8
BLACK
6
CONTINUOUS
10
9.2244349999999997
20
-12.2638850000000001
11
9.1291969999999996
21
-11.8829329999999995
0
LINE
8
BLACK
6
CONTINUOUS
10
9.1291969999999996
20
-11.8829329999999995
11
9.1291969999999996
21
-11.4067419999999995
0
LINE
8
BLACK
6
CONTINUOUS
10
9.1291969999999996
20
-11.4067419999999995
11
9.2244349999999997
21
-11.0257899999999989
0
LINE
8
BLACK
6
CONTINUOUS
10
9.2244349999999997
20
-11.0257899999999989
11
9.3196729999999999
21
-10.8353140000000003
0
LINE
8
BLACK
6
CONTINUOUS
10
9.3196729999999999
20
-10.8353140000000003
11
9.414911
21
-10.7400760000000002
0
LINE
8
BLACK
6
CONTINUOUS
10
9.414911
20
-10.7400760000000002
11
9.6053870000000003
21
-10.644838
0
LINE
8
BLACK
6
CONTINUOUS
10
11.1291969999999996
20
-12.644838
11
11.1291969999999996
21
-11.3115039999999993
0
LINE
8
BLACK
6
CONTINUOUS
10
11.1291969999999996
20
-11.5019799999999996
11
11.2244349999999997
21
-11.4067419999999995
0
LINE
8
BLACK
6
CONTINUOUS
10
11.2244349999999997
20
-11.4067419999999995
11
11.414911
21
-11.3115039999999993
0
LINE
8
BLACK
6
CONTINUOUS
10
11.414911
20
-11.3115039999999993
11
11.7006259999999997
21
-11.3115039999999993
0
LINE
8
BLACK
6
CONTINUOUS
10
11.7006259999999997
20
-11.3115039999999993
11
11.8911020000000001
21
-11.4067419999999995
0
LINE
8
BLACK
6
CONTINUOUS
10
11.8911020000000001
20
-11.4067419999999995
11
11.9863400000000002
21
-11.5972189999999991
0
LINE
8
BLACK
6
CONTINUOUS
10
11.9863400000000002
20
-11.5972189999999991
11
11.9863400000000002
21
-12.644838
0
LINE
8
BLACK
6
CONTINUOUS
10
11.9863400000000002
20
-11.5972189999999991
11
12.0815779999999986
21
-11.4067419999999995
0
LINE
8
BLACK
6
CONTINUOUS
10
12.0815779999999986
20
-11.4067419999999995
11
12.2720539999999989
21
-11.3115039999999993
0
LINE
8
BLACK
6
CONTINUOUS
10
12.2720539999999989
20
-11.3115039999999993
11
12.5577679999999994
21
-11.3115039999999993
0
LINE
8
BLACK
6
CONTINUOUS
10
12.5577679999999994
20
-11.3115039999999993
11
12.7482449999999989
21
-11.4067419999999995
0
LINE
8
BLACK
6
CONTINUOUS
10
12.7482449999999989
20
-11.4067419999999995
11
12.8434829999999991
21
-11.5972189999999991
0
LINE
8
BLACK
6
CONTINUOUS
10
12.8434829999999991
20
-11.5972189999999991
11
12.8434829999999991
21
-12.644838
0
LINE
8
BLACK
6
CONTINUOUS
10
13.7958639999999999
20
-12.644838
11
13.7958639999999999
21
-11.3115039999999993
0
LINE
8
BLACK
6
CONTINUOUS
10
13.7958639999999999
20
-11.5019799999999996
11
13.8911020000000001
21
-11.4067419999999995
0
LINE
8
BLACK
6
CONTINUOUS
10
13.8911020000000001
20
-11.4067419999999995
11
14.0815779999999986
21
-11.3115039999999993
0
LINE
8
BLACK
6
CONTINUOUS
10
14.0815779999999986
20
-11.3115039999999993
11
14.3672930000000001
21
-11.3115039999999993
0
LINE
8
BLACK
6
CONTINUOUS
10
14.3672930000000001
20
-11.3115039999999993
11
14.5577689999999986
21
-11.4067419999999995
0
LINE
8
BLACK
6
CONTINUOUS
10
14.5577689999999986
20
-11.4067419999999995
11
14.6530069999999988
21
-11.5972189999999991
0
LINE
8
BLACK
6
CONTINUOUS
10
14.6530069999999988
20
-11.5972189999999991
11
14.6530069999999988
21
-12.644838
0
LINE
8
BLACK
6
CONTINUOUS
10
14.6530069999999988
20
-11.5972189999999991
11
14.7482449999999989
21
-11.4067419999999995
0
LINE
8
BLACK
6
CONTINUOUS
10
14.7482449999999989
20
-11.4067419999999995
11
14.9387209999999993
21
-11.3115039999999993
0
LINE
8
BLACK
6
CONTINUOUS
10
14.9387209999999993
20
-11.3115039999999993
11
15.2244349999999997
21
-11.3115039999999993
0
LINE
8
BLACK
6
CONTINUOUS
10
15.2244349999999997
20
-11.3115039999999993
11
15.4149119999999993
21
-11.4067419999999995
0
LINE
8
BLACK
6
CONTINUOUS
10
15.4149119999999993
20
-11.4067419999999995
11
15.5101499999999994
21
-11.5972189999999991
0
LINE
8
BLACK
6
CONTINUOUS
10
15.5101499999999994
20
-11.5972189999999991
11
15.5101499999999994
21
-12.644838
0
LINE
8
BLACK
6
CONTINUOUS
10
19.4149119999999975
20
-10.5495999999999999
11
17.7006270000000008
21
-13.121027999999999
0
LINE
8
BLACK
6
CONTINUOUS
10
21.9863409999999995
20
-10.644838
11
22.1768179999999973
21
-10.644838
0
LINE
8
BLACK
6
CONTINUOUS
10
22.1768179999999973
20
-10.644838
11
22.3672939999999976
21
-10.7400760000000002
0
LINE
8
BLACK
6
CONTINUOUS
10
22.3672939999999976
20
-10.7400760000000002
11
22.4625319999999995
21
-10.8353140000000003
0
LINE
8
BLACK
6
CONTINUOUS
10
22.4625319999999995
20
-10.8353140000000003
11
22.5577699999999979
21
-11.0257899999999989
0
LINE
8
BLACK
6
CONTINUOUS
10
22.5577699999999979
20
-11.0257899999999989
11
22.6530079999999998
21
-11.4067419999999995
0
LINE
8
BLACK
6
CONTINUOUS
10
22.6530079999999998
20
-11.4067419999999995
11
22.6530079999999998
21
-11.8829329999999995
0
LINE
8
BLACK
6
CONTINUOUS
10
22.6530079999999998
20
-11.8829329999999995
11
22.5577699999999979
21
-12.2638850000000001
0
LINE
8
BLACK
6
CONTINUOUS
10
22.5577699999999979
20
-12.2638850000000001
11
22.4625319999999995
21
-12.4543609999999987
0
LINE
8
BLACK
6
CONTINUOUS
10
22.4625319999999995
20
-12.4543609999999987
11
22.3672939999999976
21
-12.5495999999999999
0
LINE
8
BLACK
6
CONTINUOUS
10
22.3672939999999976
20
-12.5495999999999999
11
22.1768179999999973
21
-12.644838
0
LINE
8
BLACK
6
CONTINUOUS
10
22.1768179999999973
20
-12.644838
11
21.9863409999999995
21
-12.644838
0
LINE
8
BLACK
6
CONTINUOUS
10
21.9863409999999995
20
-12.644838
11
21.7958649999999992
21
-12.5495999999999999
0
LINE
8
BLACK
6
CONTINUOUS
10
21.7958649999999992
20
-12.5495999999999999
11
21.7006270000000008
21
-12.4543609999999987
0
LINE
8
BLACK
6
CONTINUOUS
10
21.7006270000000008
20
-12.4543609999999987
11
21.6053889999999988
21
-12.2638850000000001
0
LINE
8
BLACK
6
CONTINUOUS
10
21.6053889999999988
20
-12.2638850000000001
11
21.5101510000000005
21
-11.8829329999999995
0
LINE
8
BLACK
6
CONTINUOUS
10
21.5101510000000005
20
-11.8829329999999995
11
21.5101510000000005
21
-11.4067419999999995
0
LINE
8
BLACK
6
CONTINUOUS
10
21.5101510000000005
20
-11.4067419999999995
11
21.6053889999999988
21
-11.0257899999999989
0
LINE
8
BLACK
6
CONTINUOUS
10
21.6053889999999988
20
-11.0257899999999989
11
21.7006270000000008
21
-10.8353140000000003
0
LINE
8
BLACK
6
CONTINUOUS
10
21.7006270000000008
20
-10.8353140000000003
11
21.7958649999999992
21
-10.7400760000000002
0
LINE
8
BLACK
6
CONTINUOUS
10
21.7958649999999992
20
-10.7400760000000002
11
21.9863409999999995
21
-10.644838
0
LINE
8
BLACK
6
CONTINUOUS
10
23.5101510000000005
20
-12.4543609999999987
11
23.6053889999999988
21
-12.5495999999999999
0
LINE
8
BLACK
6
CONTINUOUS
10
23.6053889999999988
20
-12.5495999999999999
11
23.5101510000000005
21
-12.644838
0
LINE
8
BLACK
6
CONTINUOUS
10
23.5101510000000005
20
-12.644838
11
23.4149129999999985
21
-12.5495999999999999
0
LINE
8
BLACK
6
CONTINUOUS
10
23.4149129999999985
20
-12.5495999999999999
11
23.5101510000000005
21
-12.4543609999999987
0
LINE
8
BLACK
6
CONTINUOUS
10
23.5101510000000005
20
-12.4543609999999987
11
23.5101510000000005
21
-12.644838
0
LINE
8
BLACK
6
CONTINUOUS
10
24.8434840000000001
20
-10.644838
11
25.0339609999999979
21
-10.644838
0
LINE
8
BLACK
6
CONTINUOUS
10
25.0339609999999979
20
-10.644838
11
25.2244369999999982
21
-10.7400760000000002
0
LINE
8
BLACK
6
CONTINUOUS
10
25.2244369999999982
20
-10.7400760000000002
11
25.3196750000000002
21
-10.8353140000000003
0
LINE
8
BLACK
6
CONTINUOUS
10
25.3196750000000002
20
-10.8353140000000003
11
25.4149129999999985
21
-11.0257899999999989
0
LINE
8
BLACK
6
CONTINUOUS
10
25.4149129999999985
20
-11.0257899999999989
11
25.5101510000000005
21
-11.4067419999999995
0
LINE
8
BLACK
6
CONTINUOUS
10
25.5101510000000005
20
-11.4067419999999995
11
25.5101510000000005
21
-11.8829329999999995
0
LINE
8
BLACK
6
CONTINUOUS
10
25.5101510000000005
20
-11.8829329999999995
11
25.4149129999999985
21
-12.2638850000000001
0
LINE
8
BLACK
6
CONTINUOUS
10
25.4149129999999985
20
-12.2638850000000001
11
25.3196750000000002
21
-12.4543609999999987
0
LINE
8
BLACK
6
CONTINUOUS
10
25.3196750000000002
20
-12.4543609999999987
11
25.2244369999999982
21
-12.5495999999999999
0
LINE
8
BLACK
6
CONTINUOUS
10
25.2244369999999982
20
-12.5495999999999999
11
25.0339609999999979
21
-12.644838
0
LINE
8
BLACK
6
CONTINUOUS
10
25.0339609999999979
20
-12.644838
11
24.8434840000000001
21
-12.644838
0
LINE
8
BLACK
6
CONTINUOUS
10
24.8434840000000001
20
-12.644838
11
24.6530079999999998
21
-12.5495999999999999
0
LINE
8
BLACK
6
CONTINUOUS
10
24.6530079999999998
20
-12.5495999999999999
11
24.5577699999999979
21
-12.4543609999999987
0
LINE
8
BLACK
6
CONTINUOUS
10
24.5577699999999979
20
-12.4543609999999987
11
24.4625319999999995
21
-12.2638850000000001
0
LINE
8
BLACK
6
CONTINUOUS
10
24.4625319999999995
20
-12.2638850000000001
11
24.3672939999999976
21
-11.8829329999999995
0
LINE
8
BLACK
6
CONTINUOUS
10
24.3672939999999976
20
-11.8829329999999995
11
24.3672939999999976
21
-11.4067419999999995
0
LINE
8
BLACK
6
CONTINUOUS
10
24.3672939999999976
20
-11.4067419999999995
11
24.4625319999999995
21
-11.0257899999999989
0
LINE
8
BLACK
6
CONTINUOUS
10
24.4625319999999995
20
-11.0257899999999989
11
24.5577699999999979
21
-10.8353140000000003
0
LINE
8
BLACK
6
CONTINUOUS
10
24.5577699999999979
20
-10.8353140000000003
11
24.6530079999999998
21
-10.7400760000000002
0
LINE
8
BLACK
6
CONTINUOUS
10
24.6530079999999998
20
-10.7400760000000002
11
24.8434840000000001
21
-10.644838
0
LINE
8
BLACK
6
CONTINUOUS
10
26.1768179999999973
20
-10.644838
11
27.4149129999999985
21
-10.644838
0
LINE
8
BLACK
6
CONTINUOUS
10
27.4149129999999985
20
-10.644838
11
26.7482459999999982
21
-11.4067419999999995
0
LINE
8
BLACK
6
CONTINUOUS
10
26.7482459999999982
20
-11.4067419999999995
11
27.0339609999999979
21
-11.4067419999999995
0
LINE
8
BLACK
6
CONTINUOUS
10
27.0339609999999979
20
-11.4067419999999995
11
27.2244369999999982
21
-11.5019799999999996
0
LINE
8
BLACK
6
CONTINUOUS
10
27.2244369999999982
20
-11.5019799999999996
11
27.3196750000000002
21
-11.5972189999999991
0
LINE
8
BLACK
6
CONTINUOUS
10
27.3196750000000002
20
-11.5972189999999991
11
27.4149129999999985
21
-11.7876949999999994
0
LINE
8
BLACK
6
CONTINUOUS
10
27.4149129999999985
20
-11.7876949999999994
11
27.4149129999999985
21
-12.2638850000000001
0
LINE
8
BLACK
6
CONTINUOUS
10
27.4149129999999985
20
-12.2638850000000001
11
27.3196750000000002
21
-12.4543609999999987
0
LINE
8
BLACK
6
CONTINUOUS
10
27.3196750000000002
20
-12.4543609999999987
11
27.2244369999999982
21
-12.5495999999999999
0
LINE
8
BLACK
6
CONTINUOUS
10
27.2244369999999982
20
-12.5495999999999999
11
27.0339609999999979
21
-12.644838
0
LINE
8
BLACK
6
CONTINUOUS
10
27.0339609999999979
20
-12.644838
11
26.4625319999999995
21
-12.644838
0
LINE
8
BLACK
6
CONTINUOUS
10
26.4625319999999995
20
-12.644838
11
26.2720559999999992
21
-12.5495999999999999
0
LINE
8
BLACK
6
CONTINUOUS
10
26.2720559999999992
20
-12.5495999999999999
11
26.1768179999999973
21
-12.4543609999999987
0
LINE
8
BLACK
6
CONTINUOUS
10
28.3672939999999976
20
-12.644838
11
28.7482459999999982
21
-12.644838
0
LINE
8
BLACK
6
CONTINUOUS
10
28.7482459999999982
20
-12.644838
11
28.9387229999999995
21
-12.5495999999999999
0
LINE
8
BLACK
6
CONTINUOUS
10
28.9387229999999995
20
-12.5495999999999999
11
29.0339609999999979
21
-12.4543609999999987
0
LINE
8
BLACK
6
CONTINUOUS
10
29.0339609999999979
20
-12.4543609999999987
11
29.2244369999999982
21
-12.168647
0
LINE
8
BLACK
6
CONTINUOUS
10
29.2244369999999982
20
-12.168647
11
29.3196750000000002
21
-11.7876949999999994
0
LINE
8
BLACK
6
CONTINUOUS
10
29.3196750000000002
20
-11.7876949999999994
11
29.3196750000000002
21
-11.0257899999999989
0
LINE
8
BLACK
6
CONTINUOUS
10
29.3196750000000002
20
-11.0257899999999989
11
29.2244369999999982
21
-10.8353140000000003
0
LINE
8
BLACK
6
CONTINUOUS
10
29.2244369999999982
20
-10.8353140000000003
11
29.1291989999999998
21
-10.7400760000000002
0
LINE
8
BLACK
6
CONTINUOUS
10
29.1291989999999998
20
-10.7400760000000002
11
28.9387229999999995
21
-10.644838
0
LINE
8
BLACK
6
CONTINUOUS
10
28.9387229999999995
20
-10.644838
11
28.5577699999999979
21
-10.644838
0
LINE
8
BLACK
6
CONTINUOUS
10
28.5577699999999979
20
-10.644838
11
28.3672939999999976
21
-10.7400760000000002
0
LINE
8
BLACK
6
CONTINUOUS
10
28.3672939999999976
20
-10.7400760000000002
11
28.2720559999999992
21
-10.8353140000000003
0
LINE
8
BLACK
6
CONTINUOUS
10
28.2720559999999992
20
-10.8353140000000003
11
28.1768179999999973
21
-11.0257899999999989
0
LINE
8
BLACK
6
CONTINUOUS
10
28.1768179999999973
20
-11.0257899999999989
11
28.1768179999999973
21
-11.5019799999999996
0
LINE
8
BLACK
6
CONTINUOUS
10
28.1768179999999973
20
-11.5019799999999996
11
28.2720559999999992
21
-11.6924569999999992
0
LINE
8
BLACK
6
CONTINUOUS
10
28.2720559999999992
20
-11.6924569999999992
11
28.3672939999999976
21
-11.7876949999999994
0
LINE
8
BLACK
6
CONTINUOUS
10
28.3672939999999976
20
-11.7876949999999994
11
28.5577699999999979
21
-11.8829329999999995
0
LINE
8
BLACK
6
CONTINUOUS
10
28.5577699999999979
20
-11.8829329999999995
11
28.9387229999999995
21
-11.8829329999999995
0
LINE
8
BLACK
6
CONTINUOUS
10
28.9387229999999995
20
-11.8829329999999995
11
29.1291989999999998
21
-11.7876949999999994
0
LINE
8
BLACK
6
CONTINUOUS
10
29.1291989999999998
20
-11.7876949999999994
11
29.2244369999999982
21
-11.6924569999999992
0
LINE
8
BLACK
6
CONTINUOUS
10
29.2244369999999982
20
-11.6924569999999992
11
29.3196750000000002
21
-11.5019799999999996
0
LINE
8
BLACK
6
CONTINUOUS
10
31.0339609999999979
20
-11.3115039999999993
11
31.0339609999999979
21
-12.644838
0
LINE
8
BLACK
6
CONTINUOUS
10
30.5577699999999979
20
-10.5495999999999999
11
30.0815799999999989
21
-11.9781709999999997
0
LINE
8
BLACK
6
CONTINUOUS
10
30.0815799999999989
20
-11.9781709999999997
11
31.3196750000000002
21
-11.9781709999999997
0
LINE
8
BLACK
6
CONTINUOUS
10
31.9863419999999969
20
-10.644838
11
31.9863419999999969
21
-11.0257899999999989
0
LINE
8
BLACK
6
CONTINUOUS
10
32.7482469999999992
20
-10.644838
11
32.7482469999999992
21
-11.0257899999999989
0
LINE
8
BLACK
6
CONTINUOUS
10
35.7006289999999993
20
-13.4067419999999995
11
35.6053899999999999
21
-13.3115039999999993
0
LINE
8
BLACK
6
CONTINUOUS
10
35.6053899999999999
20
-13.3115039999999993
11
35.414913999999996
21
-13.0257899999999989
0
LINE
8
BLACK
6
CONTINUOUS
10
35.414913999999996
20
-13.0257899999999989
11
35.3196760000000012
21
-12.8353139999999986
0
LINE
8
BLACK
6
CONTINUOUS
10
35.3196760000000012
20
-12.8353139999999986
11
35.2244379999999992
21
-12.5495999999999999
0
LINE
8
BLACK
6
CONTINUOUS
10
35.2244379999999992
20
-12.5495999999999999
11
35.1291999999999973
21
-12.0734089999999998
0
LINE
8
BLACK
6
CONTINUOUS
10
35.1291999999999973
20
-12.0734089999999998
11
35.1291999999999973
21
-11.6924569999999992
0
LINE
8
BLACK
6
CONTINUOUS
10
35.1291999999999973
20
-11.6924569999999992
11
35.2244379999999992
21
-11.2162659999999992
0
LINE
8
BLACK
6
CONTINUOUS
10
35.2244379999999992
20
-11.2162659999999992
11
35.3196760000000012
21
-10.9305519999999987
0
LINE
8
BLACK
6
CONTINUOUS
10
35.3196760000000012
20
-10.9305519999999987
11
35.414913999999996
21
-10.7400760000000002
0
LINE
8
BLACK
6
CONTINUOUS
10
35.414913999999996
20
-10.7400760000000002
11
35.6053899999999999
21
-10.4543609999999987
0
LINE
8
BLACK
6
CONTINUOUS
10
35.6053899999999999
20
-10.4543609999999987
11
35.7006289999999993
21
-10.3591230000000003
0
LINE
8
BLACK
6
CONTINUOUS
10
37.5101519999999979
20
-12.644838
11
36.3672949999999986
21
-12.644838
0
LINE
8
BLACK
6
CONTINUOUS
10
36.938722999999996
20
-12.644838
11
36.938722999999996
21
-10.644838
0
LINE
8
BLACK
6
CONTINUOUS
10
36.938722999999996
20
-10.644838
11
36.7482469999999992
21
-10.9305519999999987
0
LINE
8
BLACK
6
CONTINUOUS
10
36.7482469999999992
20
-10.9305519999999987
11
36.5577709999999954
21
-11.121027999999999
0
LINE
8
BLACK
6
CONTINUOUS
10
36.5577709999999954
20
-11.121027999999999
11
36.3672949999999986
21
-11.2162659999999992
0
LINE
8
BLACK
6
CONTINUOUS
10
39.891104999999996
20
-12.644838
11
39.891104999999996
21
-10.644838
0
LINE
8
BLACK
6
CONTINUOUS
10
40.7482479999999967
20
-12.644838
11
40.7482479999999967
21
-11.5972189999999991
0
LINE
8
BLACK
6
CONTINUOUS
10
40.7482479999999967
20
-11.5972189999999991
11
40.6530099999999948
21
-11.4067419999999995
0
LINE
8
BLACK
6
CONTINUOUS
10
40.6530099999999948
20
-11.4067419999999995
11
40.462533999999998
21
-11.3115039999999993
0
LINE
8
BLACK
6
CONTINUOUS
10
40.462533999999998
20
-11.3115039999999993
11
40.1768189999999947
21
-11.3115039999999993
0
LINE
8
BLACK
6
CONTINUOUS
10
40.1768189999999947
20
-11.3115039999999993
11
39.986342999999998
21
-11.4067419999999995
0
LINE
8
BLACK
6
CONTINUOUS
10
39.986342999999998
20
-11.4067419999999995
11
39.891104999999996
21
-11.5019799999999996
0
LINE
8
BLACK
6
CONTINUOUS
10
41.986342999999998
20
-12.644838
11
41.7958670000000012
21
-12.5495999999999999
0
LINE
8
BLACK
6
CONTINUOUS
10
41.7958670000000012
20
-12.5495999999999999
11
41.7006289999999993
21
-12.4543609999999987
0
LINE
8
BLACK
6
CONTINUOUS
10
41.7006289999999993
20
-12.4543609999999987
11
41.6053909999999973
21
-12.2638850000000001
0
LINE
8
BLACK
6
CONTINUOUS
10
41.6053909999999973
20
-12.2638850000000001
11
41.6053909999999973
21
-11.6924569999999992
0
LINE
8
BLACK
6
CONTINUOUS
10
41.6053909999999973
20
-11.6924569999999992
11
41.7006289999999993
21
-11.5019799999999996
0
LINE
8
BLACK
6
CONTINUOUS
10
41.7006289999999993
20
-11.5019799999999996
11
41.7958670000000012
21
-11.4067419999999995
0
LINE
8
BLACK
6
CONTINUOUS
10
41.7958670000000012
20
-11.4067419999999995
11
41.986342999999998
21
-11.3115039999999993
0
LINE
8
BLACK
6
CONTINUOUS
10
41.986342999999998
20
-11.3115039999999993
11
42.2720580000000012
21
-11.3115039999999993
0
LINE
8
BLACK
6
CONTINUOUS
10
42.2720580000000012
20
-11.3115039999999993
11
42.462533999999998
21
-11.4067419999999995
0
LINE
8
BLACK
6
CONTINUOUS
10
42.462533999999998
20
-11.4067419999999995
11
42.5577719999999999
21
-11.5019799999999996
0
LINE
8
BLACK
6
CONTINUOUS
10
42.5577719999999999
20
-11.5019799999999996
11
42.6530099999999948
21
-11.6924569999999992
0
LINE
8
BLACK
6
CONTINUOUS
10
42.6530099999999948
20
-11.6924569999999992
11
42.6530099999999948
21
-12.2638850000000001
0
LINE
8
BLACK
6
CONTINUOUS
10
42.6530099999999948
20
-12.2638850000000001
11
42.5577719999999999
21
-12.4543609999999987
0
LINE
8
BLACK
6
CONTINUOUS
10
42.5577719999999999
20
-12.4543609999999987
11
42.462533999999998
21
-12.5495999999999999
0
LINE
8
BLACK
6
CONTINUOUS
10
42.462533999999998
20
-12.5495999999999999
11
42.2720580000000012
21
-12.644838
0
LINE
8
BLACK
6
CONTINUOUS
10
42.2720580000000012
20
-12.644838
11
41.986342999999998
21
-12.644838
0
LINE
8
BLACK
6
CONTINUOUS
10
43.7958670000000012
20
-12.644838
11
43.6053909999999973
21
-12.5495999999999999
0
LINE
8
BLACK
6
CONTINUOUS
10
43.6053909999999973
20
-12.5495999999999999
11
43.5101529999999954
21
-12.3591230000000003
0
LINE
8
BLACK
6
CONTINUOUS
10
43.5101529999999954
20
-12.3591230000000003
11
43.5101529999999954
21
-10.644838
0
LINE
8
BLACK
6
CONTINUOUS
10
45.3196769999999987
20
-12.5495999999999999
11
45.1292009999999948
21
-12.644838
0
LINE
8
BLACK
6
CONTINUOUS
10
45.1292009999999948
20
-12.644838
11
44.7482479999999967
21
-12.644838
0
LINE
8
BLACK
6
CONTINUOUS
10
44.7482479999999967
20
-12.644838
11
44.5577719999999999
21
-12.5495999999999999
0
LINE
8
BLACK
6
CONTINUOUS
10
44.5577719999999999
20
-12.5495999999999999
11
44.462533999999998
21
-12.3591230000000003
0
LINE
8
BLACK
6
CONTINUOUS
10
44.462533999999998
20
-12.3591230000000003
11
44.462533999999998
21
-11.5972189999999991
0
LINE
8
BLACK
6
CONTINUOUS
10
44.462533999999998
20
-11.5972189999999991
11
44.5577719999999999
21
-11.4067419999999995
0
LINE
8
BLACK
6
CONTINUOUS
10
44.5577719999999999
20
-11.4067419999999995
11
44.7482479999999967
21
-11.3115039999999993
0
LINE
8
BLACK
6
CONTINUOUS
10
44.7482479999999967
20
-11.3115039999999993
11
45.1292009999999948
21
-11.3115039999999993
0
LINE
8
BLACK
6
CONTINUOUS
10
45.1292009999999948
20
-11.3115039999999993
11
45.3196769999999987
21
-11.4067419999999995
0
LINE
8
BLACK
6
CONTINUOUS
10
45.3196769999999987
20
-11.4067419999999995
11
45.4149150000000006
21
-11.5972189999999991
0
LINE
8
BLACK
6
CONTINUOUS
10
45.4149150000000006
20
-11.5972189999999991
11
45.4149150000000006
21
-11.7876949999999994
0
LINE
8
BLACK
6
CONTINUOUS
10
45.4149150000000006
20
-11.7876949999999994
11
44.462533999999998
21
-11.9781709999999997
0
LINE
8
BLACK
6
CONTINUOUS
10
46.0815819999999974
20
-13.4067419999999995
11
46.1768199999999993
21
-13.3115039999999993
0
LINE
8
BLACK
6
CONTINUOUS
10
46.1768199999999993
20
-13.3115039999999993
11
46.3672959999999961
21
-13.0257899999999989
0
LINE
8
BLACK
6
CONTINUOUS
10
46.3672959999999961
20
-13.0257899999999989
11
46.462533999999998
21
-12.8353139999999986
0
LINE
8
BLACK
6
CONTINUOUS
10
46.462533999999998
20
-12.8353139999999986
11
46.5577719999999999
21
-12.5495999999999999
0
LINE
8
BLACK
6
CONTINUOUS
10
46.5577719999999999
20
-12.5495999999999999
11
46.6530099999999948
21
-12.0734089999999998
0
LINE
8
BLACK
6
CONTINUOUS
10
46.6530099999999948
20
-12.0734089999999998
11
46.6530099999999948
21
-11.6924569999999992
0
LINE
8
BLACK
6
CONTINUOUS
10
46.6530099999999948
20
-11.6924569999999992
11
46.5577719999999999
21
-11.2162659999999992
0
LINE
8
BLACK
6
CONTINUOUS
10
46.5577719999999999
20
-11.2162659999999992
11
46.462533999999998
21
-10.9305519999999987
0
LINE
8
BLACK
6
CONTINUOUS
10
46.462533999999998
20
-10.9305519999999987
11
46.3672959999999961
21
-10.7400760000000002
0
LINE
8
BLACK
6
CONTINUOUS
10
46.3672959999999961
20
-10.7400760000000002
11
46.1768199999999993
21
-10.4543609999999987
0
LINE
8
BLACK
6
CONTINUOUS
10
46.1768199999999993
20
-10.4543609999999987
11
46.0815819999999974
21
-10.3591230000000003
  0
ENDSEC
  0
EOF
