M48
; DRILL file {KiCad 9.0.1-129-g6cd3a802a7} date 2025-04-11T10:19:03+0200
; FORMAT={-:-/ absolute / metric / decimal}
; #@! TF.CreationDate,2025-04-11T10:19:03+02:00
; #@! TF.GenerationSoftware,Kicad,Pcbnew,9.0.1-129-g6cd3a802a7
; #@! TF.FileFunction,Plated,1,4,PTH
FMAT,2
METRIC
; #@! TA.AperFunction,Plated,PTH,ViaDrill
T1C0.300
; #@! TA.AperFunction,Plated,PTH,ComponentDrill
T2C0.750
; #@! TA.AperFunction,Plated,PTH,ComponentDrill
T3C1.000
%
G90
G05
T1
X3.925Y17.15
X4.25Y13.35
X4.35Y11.15
X4.925Y18.2
X6.425Y13.35
X6.935Y11.14
X7.325Y14.65
X7.34Y18.92
X7.955Y5.22
X8.685Y4.58
X9.085Y5.205
X9.175Y2.225
X9.29Y9.16
X9.39Y18.85
X9.86Y10.6
X10.025Y9.59
X10.16Y2.36
X10.225Y8.23
X10.3Y14.575
X11.09Y10.85
X11.51Y18.92
X11.56Y1.61
X11.57Y0.6
X12.32Y0.6
X12.355Y3.35
X12.55Y14.95
X12.92Y5.7
X13.07Y0.6
X13.075Y2.4
X13.39Y7.05
X13.63Y18.91
X13.82Y0.6
X13.87Y7.75
X14.23Y2.27
X14.57Y0.6
X14.625Y7.75
X14.87Y2.75
X14.95Y5.05
X15.275Y14.75
X15.32Y0.6
X15.37Y7.75
X15.965Y2.0
X16.07Y0.6
X16.12Y7.75
X16.27Y18.92
X16.275Y9.8
X16.82Y0.6
X16.87Y7.75
X16.87Y2.7
X17.06Y6.5
X17.12Y5.0
X17.2Y10.025
X17.62Y7.5
X17.75Y13.55
X17.775Y14.55
X18.2Y18.84
X18.37Y7.5
X18.925Y10.525
X19.12Y7.5
X19.15Y3.98
X19.32Y17.46
X19.625Y14.975
X19.82Y0.6
X19.87Y7.5
X19.87Y2.75
X20.325Y11.15
X20.62Y7.5
X20.62Y2.75
X20.81Y18.85
X21.37Y7.5
X21.37Y2.75
X21.44Y14.6
X21.475Y15.5
X22.12Y7.5
X22.12Y2.75
X22.32Y18.92
X22.87Y7.5
X22.87Y2.75
X23.62Y7.5
X23.62Y2.75
X24.125Y18.6
X24.37Y7.5
X24.37Y2.75
X24.825Y14.4
X25.12Y7.5
X25.12Y2.75
T2
X0.95Y5.445
X3.49Y6.675
T3
X18.315Y1.63
M30
